<svg width="325" height="325" viewBox="0 0 325 325" fill="none" xmlns="http://www.w3.org/2000/svg">
<path d="M279.813 113.838C286.112 115.131 288.827 119.543 290.255 125.171C290.707 126.95 291.184 128.728 291.77 130.465C292.256 131.908 292.772 133.377 293.536 134.683C295.39 137.854 298.314 138.845 301.313 137.496C304.311 136.149 306.088 132.059 305.016 128.972C304.218 126.676 302.168 125.298 300.089 125.898C298.588 126.331 296.9 126.974 298.7 129.014C299.293 129.686 299.351 130.42 298.691 131.022C298.075 131.585 297.284 131.531 296.544 131.202C294.435 130.265 293.848 127.963 295.148 125.785C297.703 121.506 304.003 121.097 306.624 125.576C308.589 128.932 310.327 131.9 314.356 132.802C314.76 132.892 315.159 133.284 315.432 133.635C317.112 135.782 319.069 137.077 322.023 136.829C323.359 136.717 324.73 137.664 324.888 139.295C325.046 140.934 323.852 141.721 322.532 142.306C322.255 142.428 321.947 142.575 321.659 142.563C319.314 142.457 318.081 143.887 317.077 145.733C316.716 146.396 316.292 147.235 315.678 147.513C311.958 149.197 310.641 152.299 309.316 155.987C307.506 161.027 300.772 161.616 297.718 157.485C296.398 155.698 296.491 153.899 297.997 152.565C298.729 151.917 299.616 151.536 300.499 152.096C301.226 152.559 301.257 153.344 300.797 154.102C299.582 156.107 301.104 156.535 302.488 156.792C304.381 157.145 306.316 155.699 306.969 153.659C307.918 150.697 305.784 146.601 302.675 145.416C299.429 144.181 296.325 145.632 294.909 149.036C294.012 151.19 293.808 153.477 293.563 155.76C293.255 158.639 293.029 160.774 292.748 162.451C293.029 164.128 293.255 166.263 293.563 169.142C293.808 171.423 294.012 173.712 294.909 175.866C296.325 179.268 299.429 180.721 302.675 179.485C305.783 178.301 307.917 174.206 306.969 171.243C306.315 169.202 304.381 167.756 302.488 168.109C301.104 168.367 299.582 168.794 300.797 170.799C301.257 171.559 301.226 172.344 300.499 172.807C299.616 173.367 298.729 172.986 297.997 172.337C296.491 171.004 296.398 169.204 297.718 167.419C300.772 163.286 307.506 163.876 309.316 168.915C310.64 172.602 311.957 175.705 315.678 177.39C316.291 177.667 316.716 178.506 317.077 179.169C318.08 181.016 319.314 182.446 321.659 182.34C321.947 182.327 322.255 182.473 322.532 182.597C323.852 183.18 325.046 183.969 324.888 185.608C324.73 187.238 323.359 188.186 322.023 188.073C319.069 187.825 317.112 189.121 315.432 191.269C315.158 191.619 314.76 192.011 314.356 192.102C310.328 193.002 308.589 195.971 306.624 199.328C304.003 203.807 297.703 203.398 295.148 199.117C293.848 196.94 294.434 194.638 296.544 193.701C297.284 193.373 298.075 193.317 298.691 193.881C299.35 194.483 299.293 195.217 298.7 195.889C296.9 197.928 298.588 198.57 300.089 199.005C302.168 199.605 304.218 198.225 305.016 195.929C306.088 192.844 304.311 188.753 301.313 187.406C298.313 186.057 295.39 187.048 293.536 190.219C292.772 191.525 292.256 192.993 291.77 194.437C291.184 196.174 290.707 197.951 290.255 199.731C288.828 205.359 286.112 209.771 279.813 211.064C283.353 216.432 282.153 221.473 279.183 226.461C278.244 228.037 277.324 229.633 276.51 231.275C275.834 232.639 275.16 234.042 274.777 235.505C273.844 239.059 275.213 241.826 278.287 242.994C281.36 244.162 285.508 242.525 286.931 239.585C287.992 237.398 287.517 234.973 285.623 233.928C284.256 233.173 282.606 232.433 282.437 235.149C282.383 236.043 281.903 236.602 281.011 236.562C280.177 236.525 279.657 235.926 279.366 235.172C278.538 233.018 279.75 230.976 282.209 230.355C287.043 229.135 291.786 233.3 290.472 238.322C289.487 242.084 288.619 245.413 290.83 248.897C291.052 249.247 291.055 249.806 291.002 250.248C290.671 252.954 291.14 255.254 293.403 257.167C294.428 258.033 294.727 259.672 293.685 260.936C292.637 262.207 291.237 261.919 289.89 261.399C289.608 261.29 289.285 261.175 289.092 260.963C287.508 259.23 285.624 259.369 283.61 259.966C282.886 260.18 281.992 260.472 281.361 260.235C277.54 258.795 274.415 260.057 270.871 261.728C266.027 264.012 260.849 259.667 261.612 254.585C261.942 252.39 263.28 251.183 265.288 251.305C266.264 251.364 267.163 251.722 267.389 252.742C267.577 253.583 267.044 254.161 266.181 254.373C263.904 254.93 264.678 256.309 265.474 257.47C266.565 259.058 268.955 259.403 270.858 258.423C273.624 256.998 275.013 252.594 273.651 249.559C272.231 246.389 269.008 245.221 265.6 246.625C263.443 247.515 261.681 248.988 259.895 250.43C257.641 252.247 255.971 253.597 254.587 254.585C253.6 255.968 252.251 257.639 250.433 259.892C248.993 261.679 247.518 263.44 246.629 265.599C245.225 269.007 246.391 272.229 249.561 273.65C252.596 275.01 257.002 273.623 258.426 270.857C259.406 268.952 259.061 266.563 257.473 265.473C256.312 264.676 254.932 263.902 254.375 266.18C254.164 267.041 253.585 267.576 252.744 267.388C251.724 267.16 251.367 266.263 251.307 265.287C251.185 263.279 252.392 261.941 254.589 261.611C259.669 260.849 264.015 266.026 261.73 270.87C260.061 274.414 258.798 277.54 260.237 281.36C260.475 281.99 260.181 282.885 259.968 283.607C259.372 285.622 259.233 287.506 260.967 289.09C261.179 289.283 261.292 289.606 261.401 289.888C261.923 291.234 262.209 292.635 260.938 293.681C259.674 294.723 258.035 294.423 257.169 293.4C255.256 291.137 252.956 290.668 250.25 290.998C249.809 291.053 249.25 291.048 248.9 290.826C245.415 288.615 242.085 289.485 238.324 290.469C233.304 291.782 229.138 287.038 230.357 282.206C230.978 279.747 233.02 278.534 235.174 279.363C235.929 279.652 236.528 280.174 236.566 281.008C236.606 281.899 236.046 282.378 235.152 282.434C232.438 282.603 233.177 284.251 233.931 285.62C234.976 287.515 237.401 287.987 239.589 286.928C242.53 285.504 244.165 281.356 242.997 278.283C241.829 275.208 239.062 273.84 235.508 274.772C234.046 275.156 232.642 275.83 231.277 276.506C229.635 277.32 228.04 278.239 226.463 279.179C221.474 282.148 216.434 283.348 211.066 279.81C209.773 286.109 205.361 288.824 199.733 290.25C197.954 290.701 196.176 291.179 194.439 291.765C192.996 292.252 191.527 292.768 190.221 293.531C187.049 295.385 186.059 298.309 187.408 301.31C188.755 304.308 192.845 306.085 195.932 305.012C198.228 304.215 199.606 302.164 199.006 300.086C198.573 298.586 197.93 296.897 195.891 298.697C195.219 299.29 194.485 299.346 193.883 298.688C193.32 298.072 193.374 297.279 193.702 296.54C194.639 294.432 196.941 293.844 199.119 295.146C203.398 297.701 203.807 304.001 199.328 306.622C195.972 308.585 193.004 310.325 192.102 314.354C192.012 314.758 191.62 315.155 191.269 315.43C189.122 317.11 187.827 319.067 188.075 322.019C188.187 323.356 187.24 324.726 185.609 324.884C183.969 325.043 183.183 323.849 182.598 322.529C182.476 322.252 182.329 321.943 182.341 321.656C182.447 319.31 181.017 318.076 179.171 317.073C178.507 316.713 177.669 316.288 177.391 315.674C175.707 311.955 172.603 310.638 168.917 309.313C163.877 307.503 163.288 300.77 167.419 297.716C169.206 296.396 171.005 296.489 172.339 297.996C172.987 298.728 173.368 299.615 172.808 300.497C172.345 301.225 171.56 301.257 170.802 300.797C168.797 299.582 168.369 301.104 168.111 302.488C167.76 304.381 169.206 306.316 171.245 306.969C174.207 307.918 178.303 305.784 179.488 302.675C180.723 299.429 179.27 296.325 175.868 294.908C173.714 294.011 171.427 293.807 169.144 293.564C166.265 293.256 164.13 293.029 162.453 292.749C160.776 293.03 158.641 293.256 155.762 293.564C153.481 293.808 151.192 294.011 149.038 294.908C145.636 296.325 144.183 299.429 145.419 302.675C146.603 305.783 150.699 307.917 153.661 306.969C155.702 306.315 157.146 304.381 156.795 302.488C156.537 301.104 156.11 299.582 154.105 300.797C153.345 301.257 152.56 301.225 152.097 300.497C151.537 299.616 151.918 298.729 152.567 297.996C153.9 296.49 155.7 296.397 157.485 297.716C161.618 300.77 161.028 307.503 155.989 309.313C152.302 310.639 149.198 311.956 147.514 315.674C147.237 316.287 146.398 316.713 145.735 317.073C143.888 318.076 142.458 319.31 142.564 321.656C142.577 321.943 142.431 322.252 142.307 322.529C141.724 323.849 140.936 325.043 139.296 324.884C137.667 324.726 136.718 323.356 136.831 322.019C137.079 319.067 135.782 317.109 133.635 315.43C133.285 315.155 132.893 314.758 132.802 314.354C131.902 310.326 128.933 308.586 125.576 306.622C121.098 304.001 121.506 297.701 125.785 295.146C127.963 293.845 130.265 294.432 131.202 296.54C131.53 297.28 131.586 298.072 131.021 298.688C130.419 299.346 129.685 299.29 129.013 298.697C126.974 296.897 126.332 298.585 125.897 300.086C125.297 302.164 126.677 304.215 128.973 305.012C132.058 306.085 136.149 304.308 137.496 301.31C138.844 298.309 137.854 295.386 134.683 293.531C133.377 292.769 131.908 292.253 130.465 291.765C128.728 291.179 126.95 290.702 125.171 290.25C119.543 288.824 115.131 286.108 113.838 279.81C108.47 283.348 103.429 282.149 98.4413 279.179C96.8653 278.239 95.2703 277.32 93.6273 276.506C92.2633 275.83 90.8583 275.156 89.3973 274.772C85.8433 273.841 83.0763 275.208 81.9083 278.283C80.7403 281.356 82.3773 285.503 85.3173 286.928C87.5043 287.987 89.9293 287.514 90.9733 285.62C91.7283 284.251 92.4683 282.603 89.7523 282.434C88.8583 282.378 88.2993 281.899 88.3393 281.008C88.3763 280.174 88.9753 279.652 89.7293 279.363C91.8833 278.535 93.9253 279.747 94.5463 282.206C95.7663 287.038 91.6013 291.782 86.5793 290.469C82.8173 289.485 79.4883 288.615 76.0043 290.826C75.6543 291.048 75.0953 291.052 74.6523 290.998C71.9463 290.668 69.6463 291.137 67.7333 293.4C66.8673 294.423 65.2283 294.723 63.9643 293.681C62.6933 292.635 62.9813 291.233 63.5013 289.888C63.6103 289.606 63.7253 289.283 63.9373 289.09C65.6703 287.506 65.5313 285.622 64.9343 283.607C64.7203 282.885 64.4283 281.99 64.6643 281.36C66.1043 277.539 64.8423 274.414 63.1713 270.87C60.8873 266.026 65.2323 260.848 70.3143 261.611C72.5103 261.941 73.7163 263.279 73.5943 265.287C73.5353 266.263 73.1773 267.16 72.1573 267.388C71.3163 267.576 70.7383 267.041 70.5263 266.18C69.9693 263.903 68.5903 264.677 67.4293 265.473C65.8413 266.564 65.4963 268.953 66.4763 270.857C67.8993 273.623 72.3043 275.01 75.3403 273.65C78.5103 272.228 79.6783 269.007 78.2743 265.599C77.3843 263.441 75.9113 261.68 74.4693 259.892C72.6523 257.639 71.3023 255.968 70.3143 254.585C68.9313 253.598 67.2603 252.248 65.0063 250.43C63.2203 248.988 61.4583 247.515 59.3013 246.625C55.8933 245.221 52.6723 246.389 51.2503 249.559C49.8903 252.594 51.2773 256.998 54.0433 258.423C55.9483 259.403 58.3373 259.058 59.4273 257.47C60.2243 256.309 60.9983 254.931 58.7213 254.373C57.8603 254.161 57.3253 253.583 57.5133 252.742C57.7413 251.722 58.6383 251.363 59.6143 251.305C61.6223 251.183 62.9603 252.39 63.2903 254.585C64.0523 259.667 58.8753 264.012 54.0313 261.728C50.4873 260.057 47.3613 258.794 43.5413 260.235C42.9103 260.471 42.0163 260.179 41.2943 259.966C39.2793 259.37 37.3953 259.231 35.8113 260.963C35.6173 261.175 35.2953 261.29 35.0133 261.399C33.6673 261.919 32.2663 262.207 31.2193 260.936C30.1773 259.672 30.4773 258.032 31.5003 257.167C33.7633 255.254 34.2323 252.954 33.9003 250.248C33.8473 249.805 33.8513 249.246 34.0723 248.897C36.2853 245.413 35.4153 242.084 34.4303 238.322C33.1173 233.3 37.8613 229.136 42.6933 230.355C45.1523 230.976 46.3653 233.018 45.5363 235.172C45.2473 235.926 44.7253 236.525 43.8913 236.562C43.0003 236.602 42.5213 236.043 42.4653 235.149C42.2963 232.433 40.6483 233.173 39.2793 233.928C37.3843 234.973 36.9123 237.398 37.9713 239.585C39.3943 242.526 43.5433 244.162 46.6163 242.994C49.6913 241.826 51.0593 239.059 50.1273 235.505C49.7433 234.042 49.0693 232.639 48.3933 231.275C47.5793 229.633 46.6603 228.038 45.7203 226.461C42.7513 221.472 41.5503 216.432 45.0893 211.064C38.7913 209.771 36.0753 205.359 34.6493 199.731C34.1983 197.951 33.7203 196.174 33.1343 194.437C32.6473 192.994 32.1313 191.525 31.3683 190.219C29.5143 187.048 26.5893 186.057 23.5893 187.406C20.5913 188.753 18.8143 192.843 19.8873 195.929C20.6843 198.225 22.7353 199.605 24.8133 199.005C26.3133 198.571 28.0023 197.929 26.2023 195.889C25.6093 195.217 25.5533 194.483 26.2113 193.881C26.8273 193.316 27.6203 193.372 28.3593 193.701C30.4673 194.638 31.0553 196.94 29.7533 199.117C27.1983 203.398 20.8983 203.806 18.2773 199.328C16.3143 195.972 14.5743 193.002 10.5453 192.102C10.1413 192.012 9.74426 191.619 9.46926 191.269C7.78926 189.121 5.83226 187.825 2.87926 188.073C1.54226 188.186 0.172274 187.237 0.0142735 185.608C-0.144726 183.969 1.04925 183.18 2.36925 182.597C2.64625 182.474 2.95527 182.328 3.24227 182.34C5.58827 182.446 6.82228 181.016 7.82528 179.169C8.18528 178.507 8.61026 177.667 9.22427 177.39C12.9433 175.705 14.2603 172.602 15.5863 168.915C17.3963 163.876 24.1293 163.286 27.1833 167.419C28.5033 169.205 28.4103 171.005 26.9043 172.337C26.1723 172.986 25.2853 173.367 24.4033 172.807C23.6753 172.344 23.6433 171.559 24.1043 170.799C25.3193 168.794 23.7973 168.367 22.4133 168.109C20.5203 167.757 18.5853 169.203 17.9323 171.243C16.9833 174.205 19.1173 178.301 22.2263 179.485C25.4723 180.722 28.5763 179.269 29.9933 175.866C30.8903 173.712 31.0943 171.423 31.3373 169.142C31.6453 166.263 31.8723 164.128 32.1523 162.451C31.8713 160.774 31.6453 158.639 31.3373 155.76C31.0933 153.477 30.8903 151.19 29.9933 149.036C28.5763 145.632 25.4723 144.181 22.2263 145.416C19.1183 146.601 16.9843 150.697 17.9323 153.659C18.5863 155.698 20.5203 157.144 22.4133 156.792C23.7973 156.535 25.3193 156.107 24.1043 154.102C23.6443 153.344 23.6763 152.558 24.4033 152.096C25.2843 151.536 26.1713 151.917 26.9043 152.565C28.4103 153.899 28.5033 155.698 27.1833 157.485C24.1293 161.617 17.3963 161.028 15.5863 155.987C14.2603 152.3 12.9433 149.197 9.22427 147.513C8.61127 147.235 8.18528 146.397 7.82528 145.733C6.82228 143.887 5.58827 142.457 3.24227 142.563C2.95527 142.576 2.64625 142.428 2.36925 142.306C1.04925 141.721 -0.144726 140.934 0.0142735 139.295C0.172274 137.664 1.54226 136.717 2.87926 136.829C5.83126 137.077 7.78926 135.781 9.46926 133.635C9.74426 133.284 10.1413 132.893 10.5453 132.802C14.5743 131.901 16.3133 128.933 18.2773 125.576C20.8983 121.097 27.1983 121.506 29.7533 125.785C31.0543 127.963 30.4673 130.265 28.3593 131.202C27.6193 131.53 26.8273 131.585 26.2113 131.022C25.5533 130.42 25.6093 129.686 26.2023 129.014C28.0023 126.975 26.3143 126.331 24.8133 125.898C22.7353 125.297 20.6843 126.676 19.8873 128.972C18.8143 132.059 20.5913 136.149 23.5893 137.496C26.5883 138.845 29.5133 137.854 31.3683 134.683C32.1303 133.378 32.6463 131.908 33.1343 130.465C33.7203 128.728 34.1973 126.95 34.6493 125.171C36.0753 119.543 38.7913 115.131 45.0893 113.838C41.5493 108.47 42.7503 103.429 45.7203 98.4411C46.6603 96.8651 47.5793 95.2691 48.3933 93.6271C49.0693 92.2631 49.7433 90.8581 50.1273 89.3961C51.0583 85.8421 49.6913 83.0731 46.6163 81.9071C43.5433 80.7391 39.3953 82.3741 37.9713 85.3151C36.9123 87.5031 37.3853 89.9281 39.2793 90.9731C40.6483 91.7271 42.2963 92.4661 42.4653 89.7521C42.5213 88.8581 43.0003 88.2971 43.8913 88.3381C44.7253 88.3751 45.2473 88.9741 45.5363 89.7291C46.3643 91.8831 45.1523 93.9251 42.6933 94.5461C37.8613 95.7661 33.1173 91.5991 34.4303 86.5791C35.4153 82.8171 36.2843 79.4881 34.0723 76.0031C33.8513 75.6531 33.8473 75.0941 33.9003 74.6531C34.2313 71.9471 33.7623 69.6461 31.5003 67.7341C30.4773 66.8681 30.1773 65.2291 31.2193 63.9651C32.2653 62.6941 33.6673 62.9811 35.0133 63.5021C35.2953 63.6111 35.6183 63.7241 35.8113 63.9361C37.3953 65.6701 39.2793 65.5311 41.2943 64.9351C42.0163 64.7211 42.9113 64.4281 43.5413 64.6661C47.3623 66.1051 50.4873 64.8421 54.0313 63.1711C58.8753 60.8881 64.0533 65.2331 63.2903 70.3141C62.9603 72.5111 61.6223 73.7181 59.6143 73.5961C58.6383 73.5361 57.7413 73.1791 57.5133 72.1591C57.3253 71.3181 57.8603 70.7391 58.7213 70.5281C60.9983 69.9691 60.2243 68.5901 59.4273 67.4301C58.3373 65.8421 55.9483 65.4971 54.0433 66.4771C51.2773 67.9011 49.8903 72.3071 51.2503 75.3421C52.6723 78.5121 55.8933 79.6791 59.3013 78.2741C61.4583 77.3861 63.2213 75.9111 65.0063 74.4711C67.2603 72.6521 68.9313 71.3021 70.3143 70.3161C71.3013 68.9321 72.6513 67.2621 74.4693 65.0081C75.9113 63.2211 77.3843 61.4601 78.2743 59.3031C79.6783 55.8951 78.5103 52.6721 75.3403 51.2521C72.3053 49.8911 67.8993 51.2791 66.4763 54.0451C65.4963 55.9481 65.8413 58.3391 67.4293 59.4291C68.5903 60.2241 69.9693 61.0001 70.5263 58.7231C70.7383 57.8601 71.3163 57.3271 72.1573 57.5151C73.1773 57.7411 73.5363 58.6381 73.5943 59.6161C73.7163 61.6241 72.5093 62.9621 70.3143 63.2921C65.2323 64.0541 60.8873 58.8771 63.1713 54.0331C64.8423 50.4891 66.1053 47.3631 64.6643 43.5431C64.4283 42.9121 64.7203 42.0181 64.9343 41.2941C65.5303 39.2791 65.6693 37.3961 63.9373 35.8121C63.7253 35.6191 63.6103 35.2961 63.5013 35.0141C62.9813 33.6671 62.6933 32.2671 63.9643 31.2191C65.2283 30.1771 66.8683 30.4771 67.7333 31.5011C69.6463 33.7641 71.9463 34.2321 74.6523 33.9011C75.0953 33.8481 75.6543 33.8511 76.0043 34.0731C79.4883 36.2841 82.8173 35.4161 86.5793 34.4311C91.6013 33.1171 95.7653 37.8601 94.5463 42.6941C93.9263 45.1531 91.8833 46.3661 89.7293 45.5371C88.9753 45.2461 88.3763 44.7261 88.3393 43.8901C88.2993 43.0001 88.8583 42.5201 89.7523 42.4641C92.4683 42.2961 91.7283 40.6471 90.9733 39.2801C89.9283 37.3851 87.5043 36.9111 85.3173 37.9721C82.3763 39.3951 80.7403 43.5421 81.9083 46.6171C83.0763 49.6911 85.8433 51.0601 89.3973 50.1271C90.8593 49.7441 92.2633 49.0711 93.6273 48.3941C95.2693 47.5801 96.8643 46.6601 98.4413 45.7211C103.43 42.7501 108.47 41.5511 113.838 45.0901C115.131 38.7911 119.543 36.0761 125.171 34.6481C126.949 34.1971 128.728 33.7191 130.465 33.1331C131.908 32.6471 133.377 32.1311 134.683 31.3671C137.854 29.5131 138.845 26.5891 137.496 23.5901C136.149 20.5921 132.059 18.8151 128.973 19.8871C126.677 20.6851 125.297 22.7351 125.897 24.8141C126.331 26.3141 126.973 28.0031 129.013 26.2011C129.685 25.6091 130.419 25.5521 131.021 26.2111C131.586 26.8271 131.53 27.6181 131.202 28.3581C130.265 30.4681 127.963 31.0541 125.785 29.7541C121.506 27.1991 121.097 20.8991 125.576 18.2781C128.932 16.3131 131.902 14.5751 132.802 10.5461C132.892 10.1421 133.285 9.7431 133.635 9.4701C135.782 7.7901 137.079 5.83311 136.831 2.8791C136.718 1.5431 137.667 0.172103 139.296 0.0141032C140.935 -0.143897 141.724 1.0501 142.307 2.3701C142.43 2.6471 142.576 2.9551 142.564 3.2431C142.458 5.5881 143.888 6.8211 145.735 7.8251C146.397 8.1861 147.237 8.6101 147.514 9.2241C149.198 12.9441 152.302 14.2611 155.989 15.5861C161.028 17.3961 161.618 24.1301 157.485 27.1841C155.699 28.5041 153.899 28.4111 152.567 26.9041C151.918 26.1721 151.537 25.2851 152.097 24.4021C152.56 23.6751 153.345 23.6441 154.105 24.1041C156.11 25.3191 156.537 23.7971 156.795 22.4131C157.146 20.5201 155.701 18.5851 153.661 17.9321C150.699 16.9831 146.603 19.1171 145.419 22.2251C144.182 25.4711 145.635 28.5751 149.038 29.9911C151.192 30.8881 153.481 31.0921 155.762 31.3371C158.641 31.6451 160.777 31.8721 162.453 32.1521C164.13 31.8711 166.265 31.6451 169.144 31.3371C171.427 31.0921 173.714 30.8881 175.868 29.9911C179.27 28.5751 180.723 25.4711 179.488 22.2251C178.303 19.1171 174.207 16.9831 171.245 17.9321C169.206 18.5851 167.76 20.5201 168.111 22.4131C168.369 23.7971 168.797 25.3191 170.802 24.1041C171.56 23.6441 172.346 23.6761 172.808 24.4021C173.368 25.2851 172.987 26.1721 172.339 26.9041C171.005 28.4101 169.206 28.5031 167.419 27.1841C163.287 24.1301 163.876 17.3961 168.917 15.5861C172.603 14.2621 175.707 12.9451 177.391 9.2241C177.669 8.6111 178.507 8.1861 179.171 7.8251C181.017 6.8221 182.447 5.5881 182.341 3.2431C182.328 2.9551 182.476 2.6471 182.598 2.3701C183.183 1.0501 183.969 -0.143897 185.609 0.0141032C187.24 0.172103 188.187 1.5431 188.075 2.8791C187.827 5.83311 189.123 7.7901 191.269 9.4701C191.62 9.7441 192.011 10.1421 192.102 10.5461C193.003 14.5741 195.971 16.3131 199.328 18.2781C203.806 20.8991 203.398 27.1991 199.119 29.7541C196.941 31.0541 194.639 30.4681 193.702 28.3581C193.374 27.6191 193.319 26.8281 193.883 26.2111C194.485 25.5521 195.219 25.6091 195.891 26.2011C197.93 28.0021 198.574 26.3141 199.006 24.8141C199.607 22.7351 198.228 20.6851 195.932 19.8871C192.845 18.8151 188.755 20.5921 187.408 23.5901C186.06 26.5901 187.05 29.5131 190.221 31.3671C191.527 32.1311 192.995 32.6471 194.439 33.1331C196.176 33.7191 197.954 34.1961 199.733 34.6481C205.361 36.0751 209.773 38.7911 211.066 45.0901C216.434 41.5501 221.475 42.7501 226.463 45.7211C228.039 46.6601 229.634 47.5801 231.277 48.3941C232.641 49.0701 234.046 49.7441 235.508 50.1271C239.062 51.0601 241.829 49.6911 242.997 46.6171C244.165 43.5431 242.53 39.3951 239.589 37.9721C237.401 36.9111 234.976 37.3861 233.931 39.2801C233.177 40.6471 232.438 42.2971 235.152 42.4641C236.046 42.5201 236.607 43.0001 236.566 43.8901C236.529 44.7251 235.93 45.2461 235.174 45.5371C233.02 46.3651 230.978 45.1531 230.357 42.6941C229.137 37.8601 233.303 33.1171 238.324 34.4311C242.086 35.4151 245.415 36.2841 248.9 34.0731C249.25 33.8511 249.809 33.8481 250.25 33.9011C252.956 34.2321 255.256 33.7631 257.169 31.5011C258.035 30.4761 259.674 30.1771 260.938 31.2191C262.209 32.2671 261.923 33.6671 261.401 35.0141C261.292 35.2961 261.179 35.6191 260.967 35.8121C259.233 37.3961 259.372 39.2791 259.968 41.2941C260.182 42.0181 260.475 42.9121 260.237 43.5431C258.798 47.3641 260.061 50.4891 261.73 54.0331C264.014 58.8771 259.669 64.0551 254.589 63.2921C252.392 62.9621 251.185 61.6241 251.307 59.6161C251.367 58.6391 251.724 57.7411 252.744 57.5151C253.585 57.3271 254.164 57.8601 254.375 58.7231C254.932 61.0001 256.313 60.2251 257.473 59.4291C259.061 58.3381 259.406 55.9481 258.426 54.0451C257.002 51.2791 252.596 49.8911 249.561 51.2521C246.391 52.6721 245.224 55.8951 246.629 59.3031C247.517 61.4601 248.992 63.2211 250.433 65.0081C252.252 67.2621 253.6 68.9321 254.587 70.3161C255.971 71.3021 257.641 72.6521 259.895 74.4711C261.681 75.9111 263.443 77.3861 265.6 78.2741C269.008 79.6791 272.231 78.5121 273.651 75.3421C275.013 72.3071 273.624 67.9011 270.858 66.4771C268.955 65.4971 266.564 65.8421 265.474 67.4301C264.677 68.5911 263.903 69.9701 266.181 70.5281C267.044 70.7391 267.577 71.3181 267.389 72.1591C267.162 73.1791 266.264 73.5361 265.288 73.5961C263.28 73.7181 261.942 72.5111 261.612 70.3141C260.85 65.2341 266.027 60.8881 270.871 63.1711C274.415 64.8421 277.541 66.1051 281.361 64.6661C281.992 64.4281 282.886 64.7221 283.61 64.9351C285.624 65.5311 287.508 65.6701 289.092 63.9361C289.285 63.7241 289.608 63.6111 289.89 63.5021C291.237 62.9801 292.637 62.6941 293.685 63.9651C294.727 65.2291 294.427 66.8691 293.403 67.7341C291.14 69.6461 290.671 71.9471 291.002 74.6531C291.055 75.0941 291.052 75.6531 290.83 76.0031C288.619 79.4881 289.487 82.8171 290.472 86.5791C291.786 91.5991 287.043 95.7651 282.209 94.5461C279.75 93.9261 278.537 91.8831 279.366 89.7291C279.657 88.9741 280.177 88.3751 281.011 88.3381C281.902 88.2981 282.382 88.8581 282.437 89.7521C282.606 92.4661 284.256 91.7271 285.623 90.9731C287.518 89.9281 287.992 87.5031 286.931 85.3151C285.508 82.3741 281.359 80.7391 278.287 81.9071C275.213 83.0741 273.844 85.8421 274.777 89.3961C275.16 90.8581 275.833 92.2621 276.51 93.6271C277.324 95.2691 278.244 96.8641 279.183 98.4411C282.154 103.43 283.353 108.47 279.813 113.838ZM287.585 214.282C289.177 217.111 290.021 220.182 290.309 223.425C290.418 224.656 290.503 226.007 289.094 226.573C287.626 227.162 286.39 226.496 285.458 225.352C284.455 224.12 284.924 223.075 286.09 222.258C286.774 221.779 287.054 221.225 287.027 220.35C286.942 217.68 284.963 214.288 282.301 212.092C285.736 212.423 289.534 211.424 291.481 209.594C292.119 208.996 292.312 208.406 292.167 207.583C291.919 206.181 292.328 205.111 293.908 204.949C295.374 204.799 296.721 205.203 297.342 206.656C297.938 208.053 296.924 208.948 295.975 209.742C293.48 211.834 290.712 213.408 287.585 214.282ZM214.283 287.582C213.41 290.709 211.835 293.478 209.744 295.974C208.951 296.921 208.056 297.937 206.66 297.341C205.205 296.72 204.801 295.373 204.952 293.906C205.114 292.327 206.184 291.918 207.586 292.166C208.409 292.311 208.999 292.117 209.598 291.479C211.427 289.531 212.426 285.734 212.095 282.299C214.29 284.962 217.683 286.941 220.354 287.024C221.227 287.053 221.781 286.772 222.261 286.087C223.076 284.922 224.121 284.453 225.354 285.457C226.498 286.387 227.164 287.625 226.575 289.093C226.009 290.502 224.659 290.416 223.428 290.307C220.184 290.02 217.112 289.176 214.283 287.582ZM110.621 287.582C107.792 289.176 104.721 290.02 101.478 290.306C100.247 290.415 98.8963 290.501 98.3303 289.092C97.7413 287.625 98.4073 286.386 99.5513 285.456C100.783 284.453 101.828 284.921 102.645 286.086C103.124 286.771 103.678 287.052 104.552 287.023C107.222 286.94 110.614 284.961 112.81 282.298C112.479 285.733 113.478 289.531 115.308 291.478C115.906 292.116 116.496 292.309 117.319 292.165C118.721 291.917 119.791 292.325 119.953 293.905C120.103 295.372 119.699 296.72 118.246 297.34C116.849 297.936 115.954 296.92 115.161 295.973C113.069 293.478 111.496 290.709 110.621 287.582ZM37.3213 214.282C34.1943 213.408 31.4253 211.834 28.9293 209.743C27.9823 208.949 26.9663 208.055 27.5623 206.657C28.1833 205.204 29.5303 204.8 30.9973 204.95C32.5763 205.112 32.9853 206.182 32.7373 207.584C32.5923 208.407 32.7863 208.997 33.4233 209.595C35.3713 211.425 39.1683 212.424 42.6043 212.093C39.9413 214.289 37.9623 217.681 37.8793 220.351C37.8503 221.225 38.1313 221.78 38.8163 222.259C39.9813 223.076 40.4503 224.121 39.4463 225.353C38.5163 226.497 37.2783 227.163 35.8103 226.574C34.4013 226.008 34.4873 224.656 34.5963 223.426C34.8833 220.182 35.7273 217.111 37.3213 214.282ZM37.3213 110.62C35.7273 107.79 34.8833 104.72 34.5973 101.475C34.4883 100.244 34.4023 98.8941 35.8113 98.3281C37.2783 97.7391 38.5173 98.4051 39.4473 99.5491C40.4503 100.78 39.9823 101.826 38.8173 102.642C38.1323 103.122 37.8513 103.677 37.8803 104.55C37.9633 107.221 39.9423 110.613 42.6053 112.809C39.1703 112.478 35.3723 113.477 33.4243 115.306C32.7863 115.905 32.5933 116.495 32.7383 117.318C32.9863 118.72 32.5773 119.79 30.9983 119.952C29.5313 120.102 28.1833 119.698 27.5633 118.244C26.9673 116.848 27.9833 115.952 28.9303 115.16C31.4253 113.067 34.1943 111.492 37.3213 110.62ZM110.621 37.3181C111.495 34.1911 113.069 31.4241 115.16 28.9261C115.954 27.9791 116.848 26.9641 118.245 27.5601C119.698 28.1801 120.102 29.5261 119.952 30.9941C119.79 32.5751 118.719 32.9831 117.318 32.7351C116.495 32.5891 115.905 32.7841 115.307 33.4221C113.477 35.3701 112.478 39.1671 112.809 42.6021C110.614 39.9391 107.221 37.9601 104.551 37.8761C103.677 37.8491 103.122 38.1301 102.644 38.8131C101.827 39.9801 100.782 40.4481 99.5503 39.4451C98.4063 38.5141 97.7403 37.2751 98.3293 35.8091C98.8953 34.4001 100.247 34.4851 101.477 34.5941C104.721 34.8821 107.792 35.7261 110.621 37.3181ZM214.283 37.3181C217.112 35.7261 220.183 34.8821 223.428 34.5941C224.659 34.4851 226.009 34.4011 226.575 35.8091C227.164 37.2751 226.498 38.5131 225.354 39.4451C224.122 40.4481 223.077 39.9801 222.261 38.8131C221.781 38.1291 221.226 37.8481 220.354 37.8761C217.683 37.9611 214.291 39.9401 212.095 42.6021C212.426 39.1671 211.427 35.3691 209.598 33.4221C208.999 32.7841 208.409 32.5891 207.586 32.7351C206.185 32.9831 205.114 32.5751 204.952 30.9941C204.801 29.5261 205.206 28.1811 206.66 27.5601C208.056 26.9641 208.952 27.9781 209.744 28.9261C211.836 31.4231 213.411 34.1911 214.283 37.3181ZM287.585 110.62C290.712 111.493 293.479 113.068 295.976 115.159C296.925 115.951 297.939 116.847 297.343 118.243C296.722 119.698 295.375 120.102 293.909 119.951C292.328 119.789 291.92 118.719 292.168 117.317C292.313 116.494 292.119 115.904 291.482 115.305C289.534 113.476 285.737 112.478 282.302 112.808C284.965 110.613 286.944 107.22 287.028 104.549C287.055 103.676 286.774 103.122 286.091 102.641C284.924 101.826 284.456 100.779 285.459 99.5481C286.391 98.4041 287.627 97.7381 289.095 98.3271C290.504 98.8931 290.419 100.243 290.31 101.474C290.021 104.72 289.177 107.789 287.585 110.62ZM299.678 219.29C300.671 221.114 301.362 223.139 301.673 225.412C301.776 226.166 302.018 226.931 301.955 227.671C301.843 228.989 301.148 230.003 299.781 230.298C298.534 230.569 297.316 230.424 296.425 229.374C295.618 228.424 295.641 227.217 296.363 226.397C299.371 222.988 297.52 220.243 295.274 217.581C295.224 217.522 295.175 217.463 295.125 217.405C295.201 217.399 295.278 217.394 295.354 217.386C298.825 217.092 302.075 216.46 302.359 211.922C302.426 210.831 303.265 209.963 304.507 209.861C305.88 209.749 306.844 210.507 307.535 211.581C308.29 212.758 308.067 213.966 307.214 214.976C306.735 215.544 306.023 215.913 305.417 216.373C303.59 217.76 301.671 218.703 299.678 219.29ZM219.294 299.676C218.706 301.668 217.762 303.588 216.375 305.416C215.915 306.022 215.547 306.734 214.979 307.212C213.967 308.065 212.759 308.29 211.584 307.533C210.509 306.842 209.751 305.878 209.864 304.506C209.966 303.264 210.834 302.425 211.923 302.356C216.463 302.072 217.094 298.823 217.389 295.352C217.395 295.275 217.402 295.199 217.408 295.121C217.465 295.171 217.524 295.221 217.583 295.272C220.246 297.518 222.99 299.369 226.401 296.36C227.219 295.638 228.426 295.616 229.376 296.423C230.426 297.313 230.573 298.532 230.302 299.779C230.005 301.145 228.992 301.841 227.674 301.953C226.934 302.016 226.171 301.774 225.417 301.671C223.141 301.36 221.118 300.669 219.294 299.676ZM105.611 299.676C103.788 300.669 101.763 301.36 99.4903 301.671C98.7363 301.774 97.9713 302.016 97.2313 301.953C95.9133 301.841 94.8993 301.145 94.6033 299.779C94.3343 298.532 94.4783 297.313 95.5293 296.423C96.4793 295.616 97.6863 295.638 98.5063 296.36C101.915 299.37 104.66 297.518 107.322 295.272C107.381 295.222 107.439 295.172 107.498 295.121C107.504 295.198 107.51 295.274 107.517 295.352C107.811 298.823 108.443 302.072 112.982 302.356C114.073 302.425 114.941 303.263 115.043 304.506C115.155 305.877 114.397 306.842 113.323 307.533C112.146 308.29 110.938 308.065 109.928 307.212C109.36 306.735 108.991 306.023 108.531 305.416C107.143 303.588 106.199 301.668 105.611 299.676ZM25.2273 219.29C23.2353 218.702 21.3153 217.759 19.4873 216.372C18.8813 215.912 18.1693 215.542 17.6903 214.975C16.8393 213.965 16.6143 212.757 17.3703 211.58C18.0613 210.507 19.0253 209.749 20.3973 209.86C21.6393 209.962 22.4783 210.83 22.5453 211.921C22.8303 216.46 26.0793 217.092 29.5503 217.385C29.6273 217.392 29.7033 217.398 29.7813 217.404C29.7313 217.463 29.6813 217.521 29.6303 217.58C27.3843 220.243 25.5333 222.987 28.5423 226.396C29.2643 227.216 29.2863 228.422 28.4793 229.373C27.5883 230.424 26.3703 230.568 25.1233 230.297C23.7573 230.002 23.0613 228.988 22.9493 227.67C22.8863 226.93 23.1283 226.165 23.2313 225.411C23.5433 223.14 24.2343 221.115 25.2273 219.29ZM25.2273 105.61C24.2343 103.786 23.5433 101.762 23.2323 99.4881C23.1293 98.7341 22.8873 97.9691 22.9503 97.2311C23.0623 95.9121 23.7583 94.8991 25.1243 94.6031C26.3713 94.3321 27.5893 94.4781 28.4803 95.5291C29.2873 96.4791 29.2653 97.6861 28.5433 98.5041C25.5343 101.915 27.3853 104.658 29.6313 107.322C29.6813 107.381 29.7313 107.439 29.7823 107.497C29.7053 107.503 29.6293 107.51 29.5513 107.516C26.0803 107.811 22.8313 108.442 22.5463 112.982C22.4793 114.071 21.6403 114.94 20.3983 115.041C19.0273 115.154 18.0623 114.395 17.3713 113.321C16.6143 112.146 16.8393 110.938 17.6913 109.926C18.1703 109.358 18.8823 108.99 19.4883 108.53C21.3153 107.141 23.2353 106.197 25.2273 105.61ZM105.611 25.2251C106.199 23.2321 107.143 21.3131 108.53 19.4851C108.99 18.8791 109.36 18.1661 109.927 17.6881C110.937 16.8351 112.145 16.6101 113.322 17.3671C114.395 18.0581 115.154 19.0221 115.042 20.3951C114.94 21.6381 114.072 22.4761 112.981 22.5431C108.442 22.8271 107.81 26.0761 107.516 29.5481C107.509 29.6241 107.503 29.7011 107.497 29.7771C107.438 29.7271 107.38 29.6781 107.321 29.6281C104.658 27.3821 101.914 25.5311 98.5053 28.5391C97.6853 29.2611 96.4793 29.2841 95.5283 28.4771C94.4783 27.5861 94.3333 26.3681 94.6023 25.1211C94.8993 23.7541 95.9123 23.0591 97.2303 22.9461C97.9703 22.8841 98.7353 23.1271 99.4893 23.2301C101.763 23.5411 103.788 24.2321 105.611 25.2251ZM219.294 25.2251C221.118 24.2321 223.142 23.5411 225.416 23.2301C226.17 23.1271 226.934 22.8851 227.673 22.9461C228.991 23.0591 230.005 23.7541 230.301 25.1211C230.572 26.3681 230.426 27.5861 229.375 28.4771C228.425 29.2841 227.218 29.2611 226.4 28.5391C222.989 25.5311 220.245 27.3831 217.582 29.6281C217.523 29.6781 217.465 29.7271 217.407 29.7771C217.401 29.7011 217.394 29.6241 217.388 29.5481C217.093 26.0761 216.462 22.8271 211.922 22.5431C210.833 22.4761 209.964 21.6371 209.863 20.3951C209.75 19.0221 210.508 18.0581 211.583 17.3671C212.758 16.6101 213.966 16.8351 214.978 17.6881C215.545 18.1671 215.914 18.8791 216.374 19.4851C217.762 21.3131 218.706 23.2321 219.294 25.2251ZM299.678 105.61C301.671 106.197 303.59 107.142 305.418 108.529C306.024 108.989 306.736 109.357 307.215 109.925C308.068 110.937 308.291 112.145 307.536 113.32C306.845 114.393 305.881 115.153 304.508 115.04C303.266 114.938 302.427 114.07 302.36 112.981C302.076 108.441 298.826 107.81 295.355 107.515C295.279 107.509 295.202 107.502 295.126 107.496C295.176 107.439 295.225 107.38 295.275 107.321C297.521 104.657 299.372 101.914 296.364 98.5031C295.642 97.6851 295.619 96.4781 296.426 95.5281C297.317 94.4771 298.536 94.3311 299.782 94.6021C301.149 94.8991 301.844 95.9121 301.956 97.2301C302.019 97.9681 301.777 98.7331 301.674 99.4871C301.362 101.762 300.671 103.785 299.678 105.61ZM289.905 162.451C289.98 162.068 290.035 161.673 290.068 161.266C290.428 156.878 290.621 152.398 292.269 148.2C294.678 142.063 301.907 140.282 306.91 144.604C307.483 145.098 307.912 145.758 308.461 146.286C308.887 146.694 309.371 147.291 309.87 147.334C311.947 147.515 313.33 146.21 314.315 144.637C315.381 142.934 317.521 141.431 316.174 138.982C315.29 137.374 314.076 135.974 312.5 134.954C309.886 133.263 308.874 133.475 306.967 136.103C301.895 143.089 294.165 142.35 290.329 134.528C288.634 131.07 287.641 127.348 286.759 123.664C285.39 117.95 279.473 115.452 274.272 116.132C278.431 112.938 280.85 106.987 277.776 101.98C275.794 98.7511 273.865 95.4181 272.62 91.7731C269.801 83.5281 274.744 77.5401 283.271 78.8941C286.478 79.4041 287.342 78.8381 287.996 75.7941C288.389 73.9581 288.258 72.1101 287.745 70.3471C286.967 67.6641 284.392 68.1131 282.432 67.6641C280.622 67.2481 278.722 67.3031 277.38 68.8991C277.059 69.2831 277.136 70.0451 277.126 70.6361C277.112 71.3971 277.274 72.1671 277.219 72.9221C276.736 79.5171 270.366 83.3681 264.322 80.7321C260.189 78.9291 256.884 75.8981 253.528 73.0491C253.217 72.7851 252.899 72.5451 252.574 72.3281C252.358 72.0031 252.117 71.6841 251.853 71.3741C249.004 68.0181 245.973 64.7111 244.17 60.5801C241.535 54.5371 245.385 48.1671 251.98 47.6841C252.735 47.6301 253.505 47.7911 254.266 47.7771C254.857 47.7661 255.619 47.8441 256.003 47.5231C257.599 46.1821 257.654 44.2811 257.238 42.4711C256.789 40.5121 257.238 37.9371 254.555 37.1581C252.792 36.6451 250.944 36.5141 249.108 36.9071C246.064 37.5601 245.498 38.4251 246.008 41.6321C247.362 50.1591 241.373 55.1021 233.129 52.2831C229.485 51.0381 226.151 49.1091 222.922 47.1271C217.915 44.0531 211.964 46.4721 208.767 50.6301C209.449 45.4311 206.951 39.5131 201.237 38.1451C197.552 37.2641 193.831 36.2701 190.373 34.5751C182.55 30.7391 181.812 23.0081 188.798 17.9371C191.426 16.0291 191.638 15.0181 189.947 12.4041C188.927 10.8281 187.527 9.6141 185.919 8.7281C183.47 7.3821 181.966 9.5221 180.264 10.5881C178.69 11.5741 177.386 12.9571 177.567 15.0331C177.61 15.5321 178.205 16.0161 178.615 16.4421C179.144 16.9911 179.803 17.4191 180.297 17.9931C184.619 22.9961 182.838 30.2251 176.7 32.6341C172.504 34.2821 168.024 34.4751 163.636 34.8351C163.229 34.8681 162.833 34.9241 162.451 34.9981C162.068 34.9231 161.673 34.8681 161.266 34.8351C156.878 34.4751 152.398 34.2821 148.202 32.6341C142.064 30.2251 140.283 22.9961 144.605 17.9931C145.101 17.4201 145.76 16.9911 146.287 16.4421C146.697 16.0161 147.292 15.5321 147.335 15.0331C147.516 12.9571 146.211 11.5741 144.638 10.5881C142.936 9.5221 141.432 7.3821 138.984 8.7281C137.375 9.6141 135.975 10.8271 134.956 12.4041C133.264 15.0181 133.477 16.0301 136.105 17.9371C143.091 23.0091 142.352 30.7391 134.529 34.5751C131.072 36.2701 127.349 37.2631 123.666 38.1451C117.951 39.5141 115.454 45.4311 116.134 50.6301C112.94 46.4721 106.989 44.0541 101.981 47.1271C98.7543 49.1091 95.4193 51.0381 91.7743 52.2831C83.5293 55.1021 77.5403 50.1591 78.8953 41.6321C79.4053 38.4251 78.8403 37.5601 75.7973 36.9071C73.9603 36.5141 72.1123 36.6451 70.3483 37.1581C67.6653 37.9361 68.1153 40.5121 67.6653 42.4711C67.2493 44.2811 67.3043 46.1811 68.9023 47.5231C69.2853 47.8441 70.0483 47.7651 70.6393 47.7771C71.4003 47.7911 72.1683 47.6291 72.9233 47.6841C79.5183 48.1671 83.3693 54.5371 80.7333 60.5801C78.9303 64.7121 75.9013 68.0181 73.0523 71.3741C72.7873 71.6851 72.5483 72.0031 72.3303 72.3281C72.0063 72.5441 71.6883 72.7851 71.3763 73.0491C68.0203 75.8981 64.7153 78.9291 60.5823 80.7321C54.5393 83.3671 48.1683 79.5171 47.6853 72.9221C47.6313 72.1671 47.7943 71.3971 47.7803 70.6361C47.7693 70.0461 47.8473 69.2831 47.5253 68.8991C46.1843 67.3031 44.2833 67.2481 42.4733 67.6641C40.5153 68.1131 37.9403 67.6641 37.1603 70.3471C36.6473 72.1101 36.5173 73.9581 36.9113 75.7941C37.5633 78.8381 38.4293 79.4041 41.6363 78.8941C50.1623 77.5401 55.1043 83.5291 52.2873 91.7731C51.0403 95.4171 49.1113 98.7511 47.1293 101.98C44.0553 106.987 46.4743 112.937 50.6323 116.135C45.4333 115.453 39.5153 117.951 38.1483 123.664C37.2653 127.348 36.2723 131.07 34.5773 134.528C30.7403 142.35 23.0103 143.089 17.9393 136.103C16.0323 133.475 15.0203 133.263 12.4063 134.954C10.8303 135.974 9.61626 137.375 8.73226 138.982C7.38626 141.431 9.52428 142.934 10.5923 144.637C11.5783 146.211 12.9593 147.515 15.0373 147.334C15.5363 147.291 16.0203 146.695 16.4443 146.286C16.9933 145.757 17.4213 145.098 17.9953 144.604C22.9993 140.282 30.2273 142.063 32.6363 148.2C34.2843 152.398 34.4773 156.877 34.8373 161.266C34.8703 161.673 34.9263 162.068 35.0023 162.451C34.9263 162.834 34.8703 163.229 34.8373 163.636C34.4773 168.024 34.2843 172.504 32.6363 176.7C30.2273 182.838 23.0003 184.618 17.9953 180.297C17.4223 179.801 16.9933 179.142 16.4443 178.614C16.0203 178.204 15.5353 177.609 15.0373 177.566C12.9593 177.385 11.5773 178.69 10.5923 180.263C9.52428 181.965 7.38626 183.469 8.73226 185.917C9.61626 187.526 10.8303 188.927 12.4063 189.946C15.0203 191.637 16.0323 191.425 17.9393 188.797C23.0113 181.811 30.7413 182.55 34.5773 190.373C36.2723 193.83 37.2663 197.553 38.1483 201.236C39.5153 206.951 45.4323 209.448 50.6333 208.768C46.4743 211.962 44.0553 217.913 47.1293 222.921C49.1113 226.148 51.0403 229.483 52.2873 233.128C55.1043 241.373 50.1623 247.362 41.6363 246.007C38.4293 245.497 37.5633 246.062 36.9113 249.105C36.5173 250.942 36.6473 252.79 37.1603 254.554C37.9403 257.237 40.5153 256.787 42.4733 257.237C44.2833 257.653 46.1833 257.598 47.5253 256C47.8473 255.617 47.7693 254.853 47.7803 254.263C47.7943 253.502 47.6313 252.734 47.6853 251.979C48.1683 245.384 54.5383 241.533 60.5823 244.169C64.7153 245.97 68.0203 249.001 71.3763 251.85C71.6883 252.115 72.0073 252.354 72.3303 252.572C72.5483 252.896 72.7873 253.214 73.0523 253.526C75.9013 256.882 78.9313 260.187 80.7333 264.32C83.3683 270.363 79.5183 276.734 72.9233 277.215C72.1683 277.271 71.4003 277.108 70.6393 277.122C70.0493 277.134 69.2853 277.055 68.9023 277.377C67.3043 278.718 67.2503 280.617 67.6653 282.429C68.1153 284.387 67.6653 286.962 70.3483 287.742C72.1123 288.255 73.9593 288.385 75.7973 287.991C78.8413 287.339 79.4063 286.473 78.8953 283.266C77.5413 274.741 83.5303 269.796 91.7743 272.615C95.4183 273.86 98.7533 275.791 101.981 277.773C106.99 280.847 112.94 278.428 116.136 274.27C115.455 279.469 117.952 285.387 123.667 286.754C127.35 287.637 131.073 288.63 134.53 290.325C142.353 294.161 143.093 301.891 136.106 306.963C133.478 308.871 133.264 309.882 134.957 312.496C135.976 314.072 137.376 315.286 138.985 316.17C141.433 317.516 142.936 315.377 144.639 314.31C146.213 313.324 147.517 311.943 147.336 309.865C147.293 309.366 146.698 308.882 146.288 308.458C145.761 307.909 145.101 307.481 144.606 306.907C140.284 301.903 142.065 294.675 148.203 292.266C152.399 290.618 156.879 290.423 161.267 290.065C161.674 290.032 162.069 289.976 162.452 289.9C162.835 289.976 163.23 290.032 163.637 290.065C168.025 290.423 172.505 290.618 176.701 292.266C182.839 294.675 184.62 301.902 180.298 306.907C179.804 307.48 179.144 307.909 178.616 308.458C178.206 308.882 177.611 309.367 177.568 309.865C177.387 311.943 178.691 313.325 180.265 314.31C181.968 315.378 183.471 317.516 185.92 316.17C187.528 315.286 188.928 314.072 189.948 312.496C191.639 309.882 191.427 308.87 188.799 306.963C181.813 301.891 182.551 294.161 190.374 290.325C193.832 288.63 197.554 287.636 201.238 286.754C206.952 285.387 209.45 279.469 208.77 274.269C211.964 278.428 217.915 280.847 222.922 277.773C226.151 275.791 229.484 273.861 233.129 272.615C241.374 269.796 247.363 274.74 246.008 283.266C245.498 286.473 246.064 287.339 249.108 287.991C250.944 288.385 252.792 288.255 254.555 287.742C257.238 286.962 256.789 284.387 257.238 282.429C257.654 280.618 257.599 278.719 256.003 277.377C255.619 277.054 254.857 277.133 254.266 277.122C253.505 277.108 252.736 277.271 251.98 277.215C245.385 276.734 241.534 270.363 244.17 264.32C245.973 260.187 249.004 256.882 251.853 253.526C252.117 253.214 252.357 252.895 252.574 252.572C252.899 252.354 253.217 252.115 253.528 251.85C256.884 249.001 260.189 245.97 264.322 244.169C270.365 241.534 276.736 245.384 277.219 251.979C277.274 252.734 277.111 253.502 277.126 254.263C277.136 254.853 277.059 255.617 277.38 256C278.721 257.598 280.622 257.652 282.432 257.237C284.391 256.787 286.966 257.237 287.745 254.554C288.258 252.79 288.388 250.943 287.996 249.105C287.343 246.061 286.478 245.497 283.271 246.007C274.744 247.361 269.801 241.372 272.62 233.128C273.865 229.484 275.794 226.149 277.776 222.921C280.85 217.912 278.431 211.962 274.273 208.766C279.472 209.447 285.39 206.95 286.758 201.235C287.639 197.552 288.633 193.829 290.328 190.372C294.164 182.549 301.895 181.809 306.966 188.796C308.873 191.424 309.885 191.636 312.499 189.945C314.075 188.926 315.289 187.526 316.173 185.916C317.52 183.468 315.381 181.965 314.314 180.262C313.328 178.688 311.945 177.384 309.869 177.565C309.37 177.608 308.886 178.203 308.46 178.613C307.911 179.14 307.483 179.8 306.909 180.296C301.906 184.617 294.677 182.837 292.268 176.699C290.62 172.503 290.426 168.023 290.067 163.635C290.036 163.229 289.98 162.833 289.905 162.451ZM268.803 118.396C268.499 118.647 268.379 119.12 268.164 119.507C268.535 119.629 268.884 119.88 269.083 119.791C276.754 116.38 284.28 123.702 286.045 130.863C286.941 134.503 286.452 138.529 289.202 141.671C289.565 142.085 289.491 143.303 289.145 143.845C287.513 146.39 287.996 149.147 288.123 151.866C288.261 154.825 287.838 157.663 286.531 160.33C286.165 161.078 285.776 161.786 285.36 162.451C285.776 163.115 286.165 163.824 286.531 164.571C287.838 167.239 288.261 170.077 288.123 173.036C287.995 175.753 287.513 178.511 289.145 181.057C289.492 181.597 289.565 182.817 289.202 183.231C286.452 186.372 286.941 190.399 286.045 194.038C284.279 201.201 276.754 208.521 269.083 205.112C268.884 205.023 268.535 205.272 268.164 205.396C268.379 205.783 268.499 206.256 268.805 206.501C268.414 206.464 267.994 206.713 267.568 206.835C267.744 207.183 267.815 207.606 268.016 207.685C275.852 210.699 275.997 221.196 272.181 227.508C270.242 230.715 267.049 233.218 266.771 237.383C266.735 237.932 265.821 238.743 265.193 238.879C262.239 239.525 260.631 241.817 258.799 243.829C256.804 246.017 254.5 247.727 251.689 248.689C250.901 248.959 250.125 249.185 249.362 249.36C249.186 250.124 248.961 250.901 248.691 251.687C247.728 254.497 246.02 256.803 243.83 258.798C241.819 260.631 239.526 262.239 238.881 265.193C238.744 265.821 237.934 266.734 237.383 266.771C233.217 267.048 230.716 270.242 227.509 272.181C221.196 275.996 210.699 275.853 207.685 268.016C207.608 267.812 207.183 267.742 206.835 267.567C206.713 267.993 206.464 268.411 206.507 268.801C206.256 268.499 205.783 268.378 205.396 268.163C205.274 268.533 205.023 268.882 205.112 269.08C208.523 276.753 201.201 284.277 194.04 286.042C190.4 286.939 186.374 286.45 183.231 289.199C182.817 289.563 181.599 289.49 181.057 289.142C178.512 287.51 175.754 287.994 173.036 288.12C170.077 288.258 167.239 287.836 164.572 286.529C163.824 286.164 163.116 285.774 162.451 285.358C161.787 285.774 161.078 286.163 160.331 286.529C157.663 287.836 154.825 288.257 151.866 288.12C149.149 287.994 146.391 287.509 143.845 289.142C143.305 289.49 142.085 289.563 141.671 289.199C138.53 286.45 134.503 286.939 130.864 286.042C123.701 284.276 116.381 276.753 119.79 269.08C119.879 268.882 119.63 268.532 119.506 268.163C119.119 268.378 118.646 268.498 118.401 268.804C118.438 268.411 118.189 267.993 118.067 267.567C117.719 267.742 117.296 267.812 117.217 268.016C114.203 275.852 103.706 275.995 97.3943 272.181C94.1873 270.242 91.6843 267.048 87.5183 266.771C86.9693 266.734 86.1583 265.821 86.0223 265.193C85.3763 262.239 83.0843 260.631 81.0723 258.798C78.8843 256.803 77.1743 254.497 76.2123 251.687C75.9433 250.9 75.7163 250.124 75.5413 249.36C74.7773 249.185 74.0003 248.959 73.2123 248.689C70.4033 247.727 68.0973 246.018 66.1023 243.829C64.2693 241.817 62.6613 239.525 59.7073 238.879C59.0793 238.743 58.1663 237.932 58.1293 237.383C57.8513 233.217 54.6583 230.715 52.7193 227.508C48.9043 221.197 49.0473 210.699 56.8843 207.685C57.0883 207.606 57.1583 207.183 57.3333 206.835C56.9073 206.713 56.4893 206.464 56.0993 206.507C56.4013 206.256 56.5223 205.783 56.7373 205.396C56.3673 205.273 56.0183 205.023 55.8203 205.112C48.1473 208.521 40.6233 201.201 38.8583 194.038C37.9613 190.399 38.4503 186.372 35.7013 183.231C35.3373 182.817 35.4103 181.597 35.7573 181.057C37.3913 178.51 36.9063 175.753 36.7803 173.036C36.6423 170.077 37.0643 167.239 38.3713 164.571C38.7363 163.824 39.1263 163.115 39.5423 162.451C39.1263 161.786 38.7373 161.078 38.3713 160.33C37.0643 157.663 36.6433 154.825 36.7803 151.866C36.9063 149.147 37.3903 146.39 35.7573 143.845C35.4103 143.303 35.3373 142.085 35.7013 141.671C38.4503 138.528 37.9613 134.503 38.8583 130.863C40.6243 123.702 48.1473 116.38 55.8203 119.791C56.0183 119.88 56.3673 119.629 56.7373 119.507C56.5223 119.12 56.4023 118.647 56.0963 118.402C56.4893 118.439 56.9073 118.19 57.3333 118.068C57.1583 117.72 57.0883 117.296 56.8843 117.218C49.0483 114.204 48.9043 103.707 52.7193 97.3941C54.6583 94.1871 57.8513 91.6861 58.1293 87.5201C58.1663 86.9701 59.0793 86.1601 59.7073 86.0221C62.6613 85.3771 64.2683 83.0841 66.1023 81.0731C68.0973 78.8831 70.4033 77.1751 73.2123 76.2121C74.0003 75.9431 74.7773 75.7181 75.5413 75.5411C75.7163 74.7771 75.9423 74.0001 76.2123 73.2141C77.1743 70.4041 78.8833 68.0991 81.0723 66.1041C83.0843 64.2711 85.3763 62.6631 86.0223 59.7091C86.1583 59.0811 86.9693 58.1671 87.5183 58.1311C91.6843 57.8531 94.1863 54.6601 97.3943 52.7211C103.705 48.9051 114.203 49.0491 117.217 56.8861C117.296 57.0881 117.719 57.1581 118.067 57.3351C118.189 56.9091 118.438 56.4891 118.395 56.1001C118.646 56.4041 119.119 56.5241 119.506 56.7391C119.629 56.3681 119.879 56.0201 119.79 55.8201C116.381 48.1491 123.701 40.6231 130.864 38.8581C134.503 37.9621 138.53 38.4511 141.671 35.7011C142.085 35.3391 143.305 35.4121 143.845 35.7581C146.392 37.3901 149.149 36.9071 151.866 36.7801C154.825 36.6421 157.663 37.0651 160.331 38.3711C161.078 38.7381 161.787 39.1281 162.451 39.5431C163.116 39.1271 163.824 38.7381 164.572 38.3711C167.239 37.0661 170.077 36.6431 173.036 36.7801C175.755 36.9081 178.512 37.3911 181.057 35.7581C181.599 35.4111 182.817 35.3381 183.231 35.7011C186.374 38.4511 190.399 37.9631 194.04 38.8581C201.201 40.6231 208.523 48.1491 205.112 55.8201C205.023 56.0191 205.274 56.3671 205.396 56.7391C205.783 56.5241 206.256 56.4041 206.501 56.0981C206.464 56.4891 206.713 56.9091 206.835 57.3351C207.183 57.1591 207.607 57.0891 207.685 56.8861C210.699 49.0501 221.196 48.9051 227.509 52.7211C230.716 54.6601 233.217 57.8531 237.383 58.1311C237.933 58.1671 238.743 59.0811 238.881 59.7091C239.526 62.6631 241.819 64.2711 243.83 66.1041C246.02 68.0991 247.728 70.4031 248.691 73.2141C248.96 74.0011 249.185 74.7771 249.362 75.5411C250.126 75.7171 250.901 75.9421 251.689 76.2121C254.499 77.1751 256.804 78.8831 258.799 81.0731C260.632 83.0841 262.24 85.3771 265.193 86.0221C265.821 86.1601 266.735 86.9691 266.771 87.5201C267.049 91.6861 270.242 94.1871 272.181 97.3941C275.997 103.707 275.853 114.204 268.016 117.218C267.814 117.295 267.744 117.72 267.568 118.068C267.993 118.189 268.413 118.439 268.803 118.396ZM245.069 128.23C246.555 129.507 247.964 130.863 249.314 132.284C252.553 135.358 255.452 138.747 257.847 142.637C258.923 144.387 259.147 145.639 258.326 147.631C256.065 153.111 252.973 157.991 249.229 162.451C252.974 166.911 256.065 171.789 258.326 177.269C259.147 179.261 258.924 180.515 257.847 182.263C255.452 186.152 252.553 189.543 249.314 192.617C247.964 194.039 246.555 195.394 245.069 196.671C245.217 198.624 245.255 200.579 245.204 202.538C245.321 207.002 244.973 211.449 243.916 215.893C243.442 217.891 242.714 218.935 240.723 219.764C235.25 222.04 229.615 223.304 223.812 223.808C223.306 229.611 222.042 235.247 219.766 240.72C218.939 242.709 217.894 243.437 215.895 243.913C211.452 244.971 207.005 245.317 202.541 245.2C200.582 245.252 198.626 245.214 196.673 245.065C195.396 246.551 194.04 247.961 192.619 249.31C189.545 252.55 186.156 255.448 182.266 257.843C180.516 258.921 179.264 259.144 177.272 258.322C171.792 256.062 166.912 252.971 162.452 249.225C157.992 252.971 153.114 256.062 147.634 258.322C145.642 259.145 144.388 258.921 142.64 257.843C138.749 255.448 135.36 252.551 132.286 249.31C130.864 247.962 129.509 246.551 128.232 245.065C126.279 245.214 124.324 245.251 122.365 245.2C117.899 245.318 113.454 244.971 109.01 243.913C107.012 243.437 105.967 242.709 105.139 240.72C102.863 235.247 101.599 229.611 101.093 223.808C95.2923 223.303 89.6553 222.04 84.1823 219.764C82.1933 218.936 81.4653 217.891 80.9893 215.893C79.9313 211.449 79.5843 207.002 79.7023 202.538C79.6503 200.579 79.6883 198.624 79.8373 196.671C78.3513 195.394 76.9413 194.038 75.5923 192.617C72.3523 189.543 69.4543 186.152 67.0593 182.263C65.9813 180.515 65.7583 179.261 66.5793 177.269C68.8403 171.789 71.9323 166.911 75.6783 162.451C71.9323 157.991 68.8413 153.112 66.5793 147.631C65.7583 145.639 65.9813 144.387 67.0593 142.637C69.4543 138.748 72.3513 135.358 75.5923 132.284C76.9413 130.862 78.3513 129.507 79.8373 128.23C79.6883 126.277 79.6513 124.32 79.7023 122.361C79.5853 117.897 79.9313 113.45 80.9893 109.007C81.4653 107.008 82.1933 105.963 84.1823 105.136C89.6553 102.86 95.2913 101.596 101.093 101.09C101.599 95.2871 102.863 89.6521 105.139 84.1791C105.967 82.1881 107.012 81.4601 109.01 80.9851C113.454 79.9291 117.899 79.5811 122.365 79.6981C124.324 79.6471 126.279 79.6851 128.232 79.8331C129.509 78.3471 130.865 76.9371 132.286 75.5881C135.36 72.3491 138.749 69.4501 142.64 67.0551C144.388 65.9791 145.642 65.7551 147.634 66.5761C153.114 68.8371 157.993 71.9271 162.452 75.6731C166.912 71.9271 171.791 68.8371 177.272 66.5761C179.264 65.7551 180.517 65.9781 182.266 67.0551C186.155 69.4501 189.545 72.3491 192.619 75.5881C194.041 76.9371 195.396 78.3471 196.673 79.8331C198.626 79.6851 200.582 79.6471 202.541 79.6981C207.005 79.5801 211.452 79.9291 215.895 80.9851C217.894 81.4611 218.939 82.1891 219.766 84.1791C222.042 89.6521 223.306 95.2871 223.812 101.09C229.615 101.596 235.25 102.86 240.723 105.136C242.714 105.963 243.442 107.008 243.916 109.007C244.974 113.45 245.322 117.897 245.204 122.361C245.256 124.32 245.217 126.276 245.069 128.23Z" fill="#8B8584"/>
</svg>
