<svg width="341" height="360" viewBox="0 0 341 360" fill="none" xmlns="http://www.w3.org/2000/svg">
<rect x="27.7291" y="129.815" width="134.741" height="47.0346" rx="23.5173" transform="rotate(35.6485 27.7291 129.815)" fill="#FEE5C2"/>
<path d="M40.0476 153.447C38.1888 154.202 36.7856 155.292 35.8659 156.708C35.6477 157.044 35.4673 157.384 35.3172 157.722C36.3899 157.94 39.9646 158.881 42.244 162.057C43.1985 163.387 43.8056 164.94 44.0706 166.698C46.0913 162.226 44.7516 156.791 40.6146 153.824C40.4286 153.69 40.2391 153.566 40.0472 153.447L40.0476 153.447Z" fill="black"/>
<path d="M37.7614 164.992C36.5184 163.521 34.9949 162.85 34.5393 162.672C34.0136 163.103 31.8672 164.689 28.8719 164.535C27.213 164.451 25.5978 163.846 24.0463 162.733C24.0233 162.716 24.0012 162.697 23.9782 162.681C24.0323 164.44 24.5249 166.174 25.4263 167.709C27.2342 168.549 29.0311 168.891 30.7982 168.722C34.6439 168.352 37.2021 165.639 37.7611 164.992L37.7614 164.992Z" fill="black"/>
<path d="M41.8135 162.366C39.5668 159.235 35.9906 158.388 35.117 158.222C34.4642 160.035 34.6448 161.689 34.7193 162.172C35.3554 162.412 37.8017 163.478 39.1663 166.149C39.9344 167.652 40.2122 169.385 40.0054 171.321C41.1592 170.612 42.1932 169.668 43.0308 168.5C43.2528 168.19 43.454 167.874 43.6375 167.549C43.46 165.552 42.8529 163.816 41.8123 162.366L41.8135 162.366Z" fill="black"/>
<path d="M30.5764 163.897C32.4723 163.555 33.8148 162.572 34.1963 162.266C34.0853 161.596 33.7861 158.944 35.4167 156.426C36.3338 155.011 37.6945 153.904 39.474 153.114C37.8737 152.25 36.122 151.84 34.3857 151.858C32.7582 153.002 31.5662 154.383 30.8307 155.994C29.2282 159.503 30.2502 162.973 30.5758 163.896L30.5764 163.897Z" fill="black"/>
<path d="M28.8911 164.005C29.2904 164.026 29.6752 164.013 30.0425 163.974C29.6689 162.87 28.7188 159.344 30.3485 155.775C31.0222 154.3 32.0544 153.011 33.4293 151.913C30.5306 152.207 27.7658 153.692 25.9382 156.24C24.6808 157.993 24.0419 160.006 23.9776 162.016C25.5607 163.248 27.2054 163.916 28.8915 164.004L28.8911 164.005Z" fill="black"/>
<path d="M38.6985 166.397C38.5169 166.04 38.3125 165.714 38.0955 165.416C37.3222 166.297 34.7531 168.874 30.85 169.249C29.2307 169.405 27.5933 169.155 25.95 168.511C26.6 169.415 27.4023 170.233 28.3561 170.917C31.7109 173.323 36.0128 173.466 39.4328 171.648C39.7086 169.661 39.4655 167.901 38.6985 166.397Z" fill="black"/>
<path d="M46.3265 179.477L49.8402 166.27L51.3614 167.361L48.5494 178.015L57.7241 171.925L59.2746 173.037L47.8623 180.579L46.3265 179.477ZM55.3745 186.299C53.2683 184.788 52.882 182.208 54.4241 180.058C56.0186 177.834 58.6185 177.329 60.7247 178.839C62.8164 180.34 63.1754 182.989 61.5913 185.198C60.0492 187.348 57.4808 187.81 55.3745 186.299ZM56.2557 185.07C57.616 186.046 59.186 185.71 60.2456 184.233C61.3471 182.697 61.1746 181.023 59.8435 180.068C58.4979 179.103 56.8818 179.472 55.7698 181.023C54.7102 182.5 54.8954 184.095 56.2557 185.07ZM61.0671 190.05L68.6728 179.445L70.0184 180.41L62.4127 191.015L61.0671 190.05ZM64.972 192.85L72.5777 182.246L73.9234 183.211L66.3177 193.815L64.972 192.85ZM71.6158 197.947C69.568 196.479 69.2109 193.919 70.7636 191.754C72.3476 189.546 74.9182 189.019 76.966 190.488C78.926 191.894 79.1784 194.445 77.5943 196.653C77.5209 196.756 77.4328 196.848 77.2923 197.013L71.8511 193.11C71.0847 194.488 71.3268 195.88 72.497 196.719C73.3746 197.348 74.4919 197.396 75.4116 196.794L76.0992 198.306C74.7 199.052 73.0346 198.965 71.6158 197.947ZM72.8201 191.944L76.7694 194.777C77.276 193.545 77.0355 192.398 76.0848 191.716C75.0609 190.982 73.8387 191.08 72.8201 191.944ZM74.7079 204.019L75.6836 202.659L75.8925 202.831C77.0394 203.765 78.2377 203.051 78.9374 202.601L79.4131 202.277L80.8924 193.636L82.3551 194.685L81.2672 201.082L86.4653 197.633L87.928 198.682L80.1134 203.71L80.0987 203.699L79.8431 203.87C78.4646 204.742 76.77 205.654 74.7079 204.019ZM87.7966 209.553C86.8166 208.85 86.2347 207.901 86.04 206.875L85.2188 207.371L84.4582 206.826L92.0638 196.221L93.4095 197.187L90.4826 201.267C91.3929 201.234 92.3131 201.495 93.1468 202.093C95.2092 203.572 95.5494 206.186 93.9654 208.395C92.4127 210.56 89.859 211.032 87.7966 209.553ZM88.6778 208.324C89.9796 209.258 91.5496 208.922 92.6197 207.43C93.7212 205.894 93.5674 204.255 92.2656 203.322C90.9785 202.398 89.4021 202.774 88.2901 204.324C87.2201 205.816 87.3907 207.401 88.6778 208.324ZM95.2962 214.931C93.775 213.84 93.2864 212.205 94.283 210.816C95.2272 209.499 96.8824 209.446 98.5645 210.652L100.451 212.006L100.672 211.698C101.536 210.369 101.447 209.907 100.336 209.109C99.5019 208.511 98.6109 208.271 97.4323 208.556L97.2405 207.155C98.7415 206.792 99.9443 206.968 101.217 207.881C103.045 209.192 103.388 210.567 102.059 212.605L98.8177 217.125L98.0425 216.569L98.2135 215.805C97.2361 215.902 96.2177 215.592 95.2962 214.931ZM96.1774 213.703C97.406 214.584 98.666 214.402 99.5702 213.234L97.6833 211.881C96.6886 211.168 96.0483 211.196 95.6287 211.781C95.1671 212.424 95.3144 213.084 96.1774 213.703ZM101.109 218.768L108.715 208.164L110.061 209.129L102.455 219.733L101.109 218.768ZM105.014 221.569L112.62 210.964L113.966 211.93L106.36 222.534L105.014 221.569Z" fill="black"/>
<rect x="137.75" y="243.846" width="107.4" height="46" rx="23" transform="rotate(-31.5981 137.75 243.846)" fill="#AA79FF"/>
<path d="M174.809 249.447C173.013 248.007 169.995 249.03 168.719 249.571C168.081 249.84 167.014 250.462 167 251.601C166.989 252.646 167.707 253.965 168.632 254.61C169.06 254.91 169.73 255.202 170.498 254.906C171.285 254.607 172.27 253.597 172.025 252.704C171.99 252.582 172.064 252.451 172.188 252.418C172.272 252.393 172.355 252.425 172.414 252.482C172.44 252.508 172.464 252.542 172.475 252.581C172.554 252.871 172.542 253.159 172.469 253.439L172.785 253.953C172.853 254.064 172.82 254.204 172.709 254.272C172.601 254.339 172.459 254.307 172.391 254.196L172.25 253.968C172.203 254.048 172.156 254.127 172.099 254.203C171.838 254.572 171.482 254.888 171.122 255.11C170.97 255.204 170.815 255.283 170.666 255.339C169.908 255.63 169.113 255.508 168.368 254.99C167.31 254.255 166.522 252.793 166.534 251.592C166.539 251.253 166.618 250.935 166.763 250.637C166.191 250.81 165.655 251.044 165.325 251.532C164.225 253.18 165.69 255.767 166.369 256.806C167.325 258.262 168.313 259.303 169.308 259.902C170.704 260.745 172.468 260.459 173.504 259.227C173.753 258.929 173.926 258.596 174.007 258.258C174.111 257.837 174.069 257.387 173.891 256.958C173.701 256.509 173.437 256.074 173.181 255.652C173.062 255.458 172.944 255.261 172.83 255.064C172.782 254.981 172.794 254.876 172.851 254.804C172.869 254.782 172.892 254.762 172.918 254.749C173.028 254.686 173.172 254.723 173.234 254.834C173.342 255.026 173.459 255.216 173.578 255.41C173.842 255.845 174.117 256.295 174.319 256.776C174.437 257.053 174.503 257.338 174.519 257.621C174.605 257.549 174.689 257.477 174.777 257.406C174.843 257.35 174.911 257.291 174.981 257.235C175.427 256.862 175.877 256.475 176.279 256.057C176.824 255.489 177.43 254.762 177.495 254.028C177.5 253.95 177.504 253.873 177.497 253.797C177.469 253.764 177.441 253.731 177.418 253.694L174.807 249.449L174.809 249.447Z" fill="white"/>
<path d="M164.467 252.794C164.491 252.261 164.632 251.743 164.943 251.277C165.002 251.189 165.063 251.109 165.131 251.036C165.006 250.846 164.883 250.649 164.763 250.459C164.646 250.269 164.526 250.079 164.405 249.894C164.335 249.788 164.365 249.643 164.471 249.573C164.495 249.555 164.524 249.545 164.551 249.539C164.641 249.521 164.74 249.554 164.793 249.637C164.916 249.824 165.038 250.019 165.159 250.215C165.265 250.382 165.373 250.554 165.481 250.721C165.974 250.365 166.58 250.2 167.137 250.052C167.15 250.047 167.163 250.05 167.175 250.049C167.508 249.69 167.964 249.38 168.535 249.138C169.042 248.925 169.805 248.639 170.67 248.449C170.543 247.34 170.068 246.065 169.258 244.651C168.637 243.579 166.989 241.105 165.02 241.342C164.433 241.415 163.985 241.789 163.574 242.221C163.905 242.226 164.225 242.298 164.529 242.447C165.605 242.978 166.556 244.341 166.736 245.618C166.86 246.515 166.612 247.282 166.01 247.826C165.89 247.934 165.753 248.035 165.6 248.129C165.24 248.351 164.796 248.524 164.35 248.592C164.257 248.609 164.164 248.615 164.072 248.621L164.212 248.849C164.28 248.96 164.245 249.101 164.137 249.168C164.026 249.236 163.886 249.202 163.818 249.092L163.501 248.577C163.22 248.515 162.956 248.397 162.733 248.196C162.703 248.169 162.685 248.132 162.672 248.097C162.645 248.019 162.657 247.93 162.717 247.866C162.802 247.771 162.951 247.761 163.046 247.85C163.734 248.47 165.074 248.046 165.7 247.48C166.309 246.926 166.349 246.197 166.277 245.681C166.121 244.566 165.263 243.327 164.327 242.868C163.302 242.364 162.268 243.038 161.74 243.486C160.682 244.382 158.407 246.613 158.885 248.868L161.497 253.116C161.52 253.153 161.537 253.193 161.554 253.233C161.619 253.274 161.689 253.304 161.761 253.335C162.446 253.608 163.369 253.394 164.121 253.164C164.235 253.128 164.35 253.09 164.465 253.048C164.463 252.965 164.46 252.878 164.467 252.794Z" fill="white"/>
<path d="M157.681 248.854L157.633 248.883L158.817 250.808C158.885 250.918 158.849 251.06 158.741 251.127C158.63 251.195 158.49 251.161 158.422 251.051L157.237 249.127L156.15 249.796C155.888 249.957 155.806 250.296 155.967 250.557L158.627 254.881C158.787 255.141 159.129 255.224 159.39 255.063L159.439 255.033L158.254 253.107C158.187 252.999 158.222 252.855 158.33 252.789C158.438 252.722 158.582 252.756 158.649 252.865L159.833 254.791L160.922 254.121C161.181 253.962 161.263 253.617 161.103 253.358L158.442 249.034C158.28 248.774 157.941 248.694 157.681 248.854Z" fill="white"/>
<path d="M176.871 247.426L175.783 248.096L176.966 250.02C177.034 250.131 177.001 250.271 176.891 250.339C176.782 250.405 176.64 250.373 176.572 250.263L175.388 248.339L175.34 248.368C175.08 248.528 174.995 248.868 175.156 249.129L177.817 253.454C177.976 253.713 178.318 253.797 178.58 253.636L179.668 252.966L178.483 251.04C178.417 250.932 178.451 250.788 178.559 250.722C178.667 250.655 178.811 250.69 178.878 250.798L180.063 252.724L180.111 252.694C180.37 252.534 180.453 252.19 180.293 251.931L177.633 247.606C177.473 247.347 177.132 247.265 176.871 247.426Z" fill="white"/>
<path d="M185.018 248.817L178.322 237.932L181.956 235.696C183.458 234.772 185.505 235.351 186.514 236.992C187.024 237.82 187.188 238.775 187.022 239.638C188.189 239.681 189.385 240.319 190.064 241.423C191.111 243.125 190.752 245.29 189.234 246.223L185.018 248.817ZM182.692 241.668L184.669 240.451C185.405 239.999 185.587 238.851 185.012 237.916C184.465 237.027 183.448 236.68 182.804 237.076L180.673 238.387L182.692 241.668ZM185.672 246.513L188.386 244.843C189.014 244.457 189.146 243.298 188.562 242.347C187.996 241.427 186.806 241.039 186.116 241.463L183.54 243.048L185.672 246.513ZM197.452 241.485C195.244 242.843 192.715 242.201 191.328 239.948C189.895 237.617 190.434 235.024 192.642 233.666C194.834 232.318 197.417 233.011 198.841 235.326C200.227 237.58 199.66 240.127 197.452 241.485ZM196.66 240.197C198.085 239.32 198.383 237.743 197.43 236.194C196.44 234.584 194.829 234.096 193.434 234.954C192.024 235.822 191.739 237.455 192.739 239.08C193.692 240.628 195.234 241.074 196.66 240.197ZM201.905 238.429L202.14 233.212L197.378 231.07L199.095 230.014L202.343 231.481L202.498 227.92L204.093 226.939L203.857 232.156L208.62 234.298L206.903 235.355L203.654 233.887L203.499 237.448L201.905 238.429ZM205.414 223.865C204.846 224.214 204.119 224.028 203.76 223.445C203.421 222.893 203.583 222.16 204.15 221.811C204.717 221.462 205.454 221.664 205.784 222.2C206.143 222.783 205.981 223.516 205.414 223.865ZM210.245 233.299L205.718 225.94L207.128 225.072L211.655 232.431L210.245 233.299ZM214.307 230.8L209.78 223.441L210.577 222.95L211.162 223.351C211.387 222.515 211.953 221.787 212.797 221.268C214.621 220.146 216.764 220.708 217.952 222.64L220.593 226.933L219.182 227.801L216.542 223.508C215.787 222.281 214.616 221.924 213.589 222.556C212.531 223.206 212.313 224.397 213.077 225.639L215.717 229.932L214.307 230.8ZM227.979 226.721C226.461 227.655 224.645 227.589 223.238 226.743L223.984 225.311C225.088 226.006 226.206 226.037 227.187 225.433C228.521 224.613 228.916 222.954 228.077 221.589L227.794 221.129C227.458 221.991 226.855 222.764 226.012 223.282C224.003 224.518 221.378 223.892 220.143 221.884C218.86 219.799 219.476 217.159 221.485 215.923C222.451 215.329 223.576 215.165 224.631 215.404L224.493 214.39L225.29 213.899L229.487 220.722C230.742 222.761 230.126 225.401 227.979 226.721ZM225.22 221.995C226.461 221.231 226.822 219.55 226.03 218.262C225.2 216.913 223.503 216.457 222.277 217.211C221.05 217.966 220.714 219.652 221.553 221.016C222.355 222.32 223.993 222.749 225.22 221.995Z" fill="white"/>
<rect x="32.0004" y="240" width="107" height="47" rx="23.5" fill="#FDC3FD"/>
<path fill-rule="evenodd" clip-rule="evenodd" d="M67.606 265.639L63.9205 266.774C63.5593 266.885 63.1763 266.699 63.0369 266.345L62.8547 265.883C62.7371 265.583 62.5518 265.511 62.2802 265.415L58.4417 264.05L56.817 266.292C56.7202 266.094 56.612 265.9 56.4954 265.712L56.4819 265.69L56.4663 265.669C56.0416 265.086 55.7751 264.348 55.6024 263.622L56.0104 263.223L57.2156 262.02C57.6111 261.626 58.1805 261.529 58.6873 261.761L64.9904 264.58L67.4187 264.51C67.681 264.503 67.9099 264.683 67.9797 264.936C68.0609 265.232 67.8964 265.55 67.605 265.64L67.606 265.639ZM45.8031 269.368C44.8101 269.368 44.0004 270.184 44.0004 271.184C44.0004 272.184 44.8101 273 45.8031 273C46.796 273 47.6057 272.184 47.6057 271.184C47.6057 270.184 46.796 269.368 45.8031 269.368ZM56.7389 271.403H52.5653C53.0034 271.143 53.452 270.876 53.8746 270.624H53.8736C54.0089 270.543 54.1431 270.464 54.2784 270.383L51.7982 267.038L49.0234 268.779C48.1543 269.324 47.764 270.345 48.045 271.337C48.326 272.329 49.1941 272.987 50.2172 272.987H56.739C57.171 272.987 57.5249 272.631 57.5249 272.196C57.5249 271.761 57.171 271.404 56.739 271.404L56.7389 271.403ZM52.3769 255.03V266.674L54.8644 270.029C55.4046 269.702 55.8032 269.457 55.9198 269.375C56.8149 268.62 56.8149 267.519 55.9198 266.072C55.3474 265.287 55.0008 264.241 54.7978 263.069C54.5782 261.799 54.2139 258.229 54.2149 256.981C54.2149 256.783 54.2847 256.612 54.4231 256.47L54.7697 256.116C55.0351 255.844 55.0487 255.417 54.802 255.129L52.2822 252.191C52.0834 251.96 51.7264 251.937 51.4911 252.132C51.2903 252.297 51.2184 252.581 51.3319 252.821L52.3769 255.029L52.3769 255.03Z" fill="black"/>
<path d="M73.6924 269.5V256.72H78.7684C80.5504 256.72 81.9904 258.358 81.9904 260.356C81.9904 262.372 80.5504 263.992 78.7684 263.992H75.4564V269.5H73.6924ZM75.4564 262.372H78.5344C79.4704 262.372 80.2264 261.436 80.2264 260.356C80.2264 259.258 79.4704 258.34 78.5344 258.34H75.4564V262.372ZM85.0337 258.934C84.3677 258.934 83.8457 258.394 83.8457 257.71C83.8457 257.062 84.3677 256.522 85.0337 256.522C85.6997 256.522 86.2217 257.08 86.2217 257.71C86.2217 258.394 85.6997 258.934 85.0337 258.934ZM84.2057 269.5V260.86H85.8617V269.5H84.2057ZM89.0111 269.5V256.45H90.6671V269.5H89.0111ZM96.3554 269.77C94.4834 269.77 93.1334 268.726 93.1334 267.016C93.1334 265.396 94.4474 264.388 96.5174 264.388H98.8394V264.01C98.7674 262.426 98.4254 262.102 97.0574 262.102C96.0314 262.102 95.1674 262.426 94.3754 263.344L93.4034 262.318C94.4114 261.148 95.4914 260.59 97.0574 260.59C99.3074 260.59 100.387 261.508 100.495 263.938V269.5H99.5414L99.2354 268.78C98.4974 269.428 97.4894 269.77 96.3554 269.77ZM96.3554 268.258C97.8674 268.258 98.7854 267.376 98.8394 265.9H96.5174C95.2934 265.9 94.7894 266.296 94.7894 267.016C94.7894 267.808 95.2934 268.258 96.3554 268.258ZM107.006 269.5C104.504 269.5 103.874 268.852 103.838 266.206V262.372H102.29V260.86H103.838V258.088H105.494V260.86H107.348V262.372H105.494V266.206C105.53 267.556 105.836 267.88 107.006 267.88H107.348V269.482C107.294 269.5 107.24 269.5 107.006 269.5ZM113.425 269.77C110.905 269.77 109.123 267.898 109.123 265.234C109.123 262.516 110.905 260.59 113.425 260.59C115.837 260.59 117.529 262.516 117.529 265.234C117.529 265.36 117.511 265.486 117.493 265.702H110.797C110.977 267.268 111.985 268.258 113.425 268.258C114.505 268.258 115.441 267.646 115.837 266.62L117.277 267.448C116.575 268.87 115.171 269.77 113.425 269.77ZM110.905 264.19H115.765C115.459 262.894 114.595 262.102 113.425 262.102C112.165 262.102 111.229 262.894 110.905 264.19ZM122.874 269.77C121.218 269.77 119.994 268.96 119.076 267.862L120.138 266.89C120.948 267.862 121.92 268.258 122.874 268.258C123.972 268.258 124.458 267.898 124.458 267.286C124.458 266.692 124.224 266.404 123.036 265.936C120.606 264.946 119.886 264.388 119.886 263.092C119.886 261.544 121.056 260.59 122.874 260.59C123.756 260.59 124.422 260.77 125.52 261.508L124.548 262.624C123.954 262.246 123.432 262.102 122.874 262.102C122.028 262.102 121.542 262.354 121.542 263.092C121.542 263.614 121.974 263.848 123.684 264.55C125.394 265.216 126.114 265.99 126.114 267.286C126.114 268.798 124.836 269.77 122.874 269.77Z" fill="black"/>
<rect x="122" y="151" width="82" height="47" rx="23.5" fill="#FDC3FD"/>
<path fill-rule="evenodd" clip-rule="evenodd" d="M145.209 169.41C144.996 169.421 144.783 169.492 144.6 169.626C144.104 169.986 144.005 170.668 144.376 171.149C144.945 171.882 145.79 173.253 146.433 175.441C146.015 176.552 144.086 180.998 139.754 181.847C139.148 181.966 138.754 182.54 138.877 183.128C139 183.717 139.592 184.098 140.199 183.978C143.677 183.297 145.934 180.77 147.235 178.711C147.42 179.735 147.562 180.984 147.684 182.977C147.719 183.576 148.251 184.033 148.869 183.998C149.487 183.964 149.959 183.449 149.924 182.849C149.674 178.726 149.334 177.614 148.746 175.394C148.256 173.546 147.626 172.157 147.05 171.161C148.001 170.808 148.726 170.321 149.283 169.772C151.194 167.883 151.093 165.147 150.906 163.927C150.813 163.334 150.242 162.924 149.629 163.012C149.017 163.102 148.594 163.655 148.686 164.249C148.814 165.079 148.98 166.964 147.679 168.25C147.138 168.784 146.342 169.198 145.21 169.41L145.209 169.41ZM145.637 165.317C145.662 165.289 145.692 165.265 145.726 165.245L147.411 164.261C147.588 164.157 147.817 164.212 147.925 164.384C148.03 164.556 147.973 164.778 147.798 164.882L146.113 165.865C146.09 165.879 146.067 165.89 146.043 165.897C146.243 166.293 146.337 166.746 146.29 167.217C146.158 168.578 144.91 169.578 143.507 169.45C142.752 169.381 142.105 168.999 141.688 168.449C141.679 168.455 141.671 168.461 141.662 168.466L135.397 172.126L135.937 172.963L135.343 173.29C135.006 173.474 134.58 173.361 134.387 173.036L134.088 172.533C134.075 172.519 134.064 172.503 134.054 172.487C133.948 172.317 134.005 172.093 134.181 171.99L141.276 167.845C141.296 167.833 141.318 167.823 141.339 167.815C141.218 167.485 141.166 167.122 141.204 166.75C141.335 165.39 142.584 164.389 143.987 164.518C144.646 164.579 145.224 164.877 145.637 165.317Z" fill="black"/>
<path d="M162.182 180.77C158.69 180.77 155.81 177.8 155.81 174.11C155.81 170.438 158.69 167.45 162.182 167.45C164.576 167.45 166.664 168.836 167.762 170.888L166.268 171.752C165.476 170.15 163.928 169.07 162.182 169.07C159.662 169.07 157.574 171.338 157.574 174.11C157.574 176.882 159.662 179.15 162.182 179.15C163.874 179.15 165.35 178.16 166.16 176.684V175.838H162.164V174.218H167.78V177.332C166.682 179.384 164.576 180.77 162.182 180.77ZM174.094 180.77C171.502 180.77 169.684 178.898 169.684 176.252C169.684 173.516 171.502 171.59 174.094 171.59C176.668 171.59 178.504 173.534 178.504 176.252C178.504 178.898 176.686 180.77 174.094 180.77ZM174.094 179.258C175.768 179.258 176.848 178.07 176.848 176.252C176.848 174.362 175.732 173.102 174.094 173.102C172.438 173.102 171.34 174.344 171.34 176.252C171.34 178.07 172.42 179.258 174.094 179.258ZM180.906 180.5V167.45H182.562V180.5H180.906ZM186.233 180.5V173.372H184.703V171.86H186.233V170.726C186.269 168.098 186.917 167.45 189.419 167.45C189.635 167.45 189.707 167.45 189.761 167.468V169.07H189.419C188.231 169.07 187.925 169.394 187.889 170.726V171.86H189.761V173.372H187.889V180.5H186.233Z" fill="black"/>
<rect x="63.0004" y="295" width="139.039" height="47.0375" rx="23.5188" fill="#FEE5C2"/>
<path d="M75.4348 325.507L77.6341 323.307C77.8914 323.049 78.3413 323.049 78.6003 323.307L79.73 324.437C79.8591 324.566 79.9307 324.738 79.9307 324.921C79.9307 325.103 79.8599 325.275 79.73 325.404L77.5307 327.603C77.2513 327.884 76.8792 328.038 76.4823 328.038C76.0863 328.038 75.7141 327.884 75.4339 327.603C74.8558 327.025 74.8558 326.085 75.4339 325.508L75.4348 325.507Z" fill="black"/>
<path d="M81.5376 311.661C81.5376 312.503 80.8534 313.187 80.0118 313.187C79.1703 313.187 78.4861 312.503 78.4861 311.661V310.903C78.4861 310.537 78.784 310.239 79.1509 310.239H80.8737C81.2397 310.239 81.5385 310.537 81.5385 310.903V311.661H81.5376Z" fill="black"/>
<path d="M87.5529 313.928L86.7449 313.12L85.937 313.928L86.7449 314.736L87.5529 313.928Z" fill="black"/>
<path d="M88.7357 315.11L87.9278 314.302L87.1198 315.11L87.9278 315.918L88.7357 315.11Z" fill="black"/>
<path d="M89.9186 313.928L89.1106 313.12L88.3027 313.928L89.1106 314.736L89.9186 313.928Z" fill="black"/>
<path d="M91.1021 310.378L90.2941 309.571L89.4862 310.378L90.2941 311.186L91.1021 310.378Z" fill="black"/>
<path d="M90.669 309.196L91.0827 308.782C91.5636 308.795 92.0118 308.893 92.4131 309.067L91.4761 310.004L90.6681 309.196H90.669Z" fill="black"/>
<path d="M88.5271 309.42C88.9028 309.221 89.2908 309.07 89.6842 308.962L89.9185 309.196L89.1105 310.004L88.5271 309.42Z" fill="black"/>
<path d="M88.7357 312.745L87.9278 311.937L87.1198 312.745L87.9278 313.553L88.7357 312.745Z" fill="black"/>
<path d="M91.1012 315.11L90.2933 314.302L89.4853 315.11L90.2933 315.918L91.1012 315.11Z" fill="black"/>
<path d="M87.9279 311.187L87.1483 310.407C87.4356 310.141 87.7388 309.903 88.0552 309.699L88.735 310.379L87.927 311.187H87.9279Z" fill="black"/>
<path d="M89.9186 311.561L89.1106 310.753L88.3027 311.561L89.1106 312.369L89.9186 311.561Z" fill="black"/>
<path d="M91.1012 312.744L90.2933 311.936L89.4853 312.744L90.2933 313.552L91.1012 312.744Z" fill="black"/>
<path d="M92.2849 313.928L91.477 313.12L90.669 313.928L91.477 314.736L92.2849 313.928Z" fill="black"/>
<path d="M92.2849 311.561L91.477 310.753L90.669 311.561L91.477 312.369L92.2849 311.561Z" fill="black"/>
<path d="M93.4675 312.744L92.6596 311.936L91.8516 312.744L92.6596 313.552L93.4675 312.744Z" fill="black"/>
<path d="M92.6597 314.302L93.3395 314.982C93.1344 315.3 92.8966 315.603 92.6305 315.889L91.8509 315.109L92.6588 314.302L92.6597 314.302Z" fill="black"/>
<path d="M85.5624 313.552L85.3273 313.317C85.4351 312.93 85.5872 312.542 85.7878 312.162L86.3704 312.744L85.5624 313.552Z" fill="black"/>
<path d="M87.5529 316.293L86.508 317.338C86.3498 317.232 86.1977 317.115 86.0598 316.978C85.9219 316.84 85.8061 316.689 85.7001 316.531L86.7449 315.486L87.5529 316.294V316.293Z" fill="black"/>
<path d="M86.3702 315.11L85.4324 316.048C85.2547 315.641 85.161 315.19 85.1468 314.718L85.5623 314.302L86.3702 315.11Z" fill="black"/>
<path d="M91.8516 310.378L92.8991 309.331C93.0582 309.438 93.2076 309.557 93.3437 309.693C93.4807 309.83 93.5974 309.982 93.7043 310.141L92.6595 311.186L91.8516 310.378V310.378Z" fill="black"/>
<path d="M87.5529 311.561L86.7449 312.369L86.0651 311.689C86.2685 311.375 86.5054 311.072 86.7732 310.782L87.5529 311.561Z" fill="black"/>
<path d="M88.7357 317.476L88.3211 317.89C87.8482 317.876 87.3983 317.783 86.9908 317.605L87.9286 316.667L88.7366 317.475L88.7357 317.476Z" fill="black"/>
<path d="M93.8423 313.12L94.0765 313.354C93.9687 313.747 93.8167 314.136 93.6178 314.511L93.0344 313.928L93.8423 313.12Z" fill="black"/>
<path d="M93.0344 311.561L93.9732 310.623C94.1482 311.025 94.241 311.476 94.2543 311.957L93.8423 312.37L93.0344 311.562V311.561Z" fill="black"/>
<path d="M90.8767 317.25C90.4966 317.451 90.1094 317.603 89.7214 317.711L89.4862 317.476L90.2942 316.668L90.8767 317.25Z" fill="black"/>
<path d="M91.4768 315.485L92.2556 316.264C91.9666 316.532 91.6625 316.769 91.3478 316.972L90.6689 316.293L91.4768 315.485Z" fill="black"/>
<path d="M89.9186 316.293L89.1106 315.485L88.3027 316.293L89.1106 317.101L89.9186 316.293Z" fill="black"/>
<path d="M78.7282 322.752L83.6076 317.872C83.8967 317.583 83.9753 317.152 83.81 316.773C82.7979 314.456 83.5537 311.463 85.692 309.325C88.3969 306.621 92.3951 306.22 94.606 308.432C95.6844 309.511 96.1812 311.038 96.0044 312.732C95.8294 314.405 95.0153 316.044 93.7123 317.346C91.574 319.484 88.5817 320.24 86.264 319.227C85.8865 319.062 85.4543 319.141 85.1652 319.43L80.2883 324.307C80.2371 324.219 80.1779 324.136 80.1045 324.063L78.9748 322.933C78.9014 322.859 78.8165 322.802 78.7282 322.752L78.7282 322.752ZM85.685 317.353C86.4054 318.074 87.3849 318.423 88.4431 318.423C89.914 318.423 91.537 317.748 92.8248 316.459C93.8874 315.397 94.5698 314.076 94.7457 312.74C94.926 311.376 94.5609 310.162 93.7185 309.32C92.8761 308.477 91.6615 308.112 90.2985 308.292C88.962 308.469 87.6405 309.152 86.578 310.213C84.3628 312.428 83.9623 315.631 85.6843 317.353H85.685Z" fill="black"/>
<path d="M80.8975 309.711C80.8489 309.707 79.1738 309.707 79.1243 309.711L78.9554 308.177C78.9218 307.878 79.0191 307.577 79.2197 307.353C79.4213 307.128 79.7095 307 80.0109 307C80.3123 307 80.6005 307.129 80.802 307.353C81.0027 307.577 81.0999 307.878 81.0664 308.177L80.8975 309.711Z" fill="black"/>
<path d="M81.9186 310.337C81.8037 310.127 81.6304 309.956 81.4165 309.846L81.5941 308.235C81.6322 307.888 81.5517 307.54 81.3749 307.244C81.6189 307.143 81.892 307.13 82.1431 307.221C82.4268 307.324 82.6531 307.544 82.7654 307.824C82.8777 308.103 82.8653 308.419 82.7318 308.689L81.9186 310.337Z" fill="black"/>
<path d="M78.4286 308.235L78.6063 309.845C78.3933 309.956 78.2191 310.127 78.1042 310.337L77.2909 308.689C77.1575 308.419 77.146 308.104 77.2574 307.824C77.3696 307.545 77.5968 307.324 77.8797 307.222C78.1298 307.131 78.403 307.143 78.6478 307.245C78.471 307.541 78.3906 307.887 78.4286 308.235Z" fill="black"/>
<path d="M101.695 324.519V311.739H105.961C107.725 311.739 109.165 313.305 109.165 315.231C109.165 316.203 108.805 317.103 108.211 317.751C109.183 318.399 109.867 319.569 109.867 320.865C109.867 322.863 108.427 324.519 106.645 324.519H101.695ZM103.459 317.211H105.781C106.645 317.211 107.401 316.329 107.401 315.231C107.401 314.187 106.717 313.359 105.961 313.359H103.459V317.211ZM103.459 322.899H106.645C107.383 322.899 108.103 321.981 108.103 320.865C108.103 319.785 107.293 318.831 106.483 318.831H103.459V322.899ZM114.784 324.789C112.912 324.789 111.562 323.745 111.562 322.035C111.562 320.415 112.876 319.407 114.946 319.407H117.268V319.029C117.196 317.445 116.854 317.121 115.486 317.121C114.46 317.121 113.596 317.445 112.804 318.363L111.832 317.337C112.84 316.167 113.92 315.609 115.486 315.609C117.736 315.609 118.816 316.527 118.924 318.957V324.519H117.97L117.664 323.799C116.926 324.447 115.918 324.789 114.784 324.789ZM114.784 323.277C116.296 323.277 117.214 322.395 117.268 320.919H114.946C113.722 320.919 113.218 321.315 113.218 322.035C113.218 322.827 113.722 323.277 114.784 323.277ZM125.308 324.789C122.77 324.789 120.97 322.917 120.97 320.253C120.97 317.535 122.77 315.609 125.308 315.609C126.334 315.609 127.234 315.933 127.954 316.491V311.469H129.61V324.519H128.674L128.296 323.637C127.54 324.357 126.514 324.789 125.308 324.789ZM125.308 323.277C126.892 323.277 127.954 322.089 127.954 320.253C127.954 318.345 126.892 317.121 125.308 317.121C123.706 317.121 122.626 318.363 122.626 320.253C122.626 322.089 123.706 323.277 125.308 323.277ZM132.595 324.519V315.879H133.531L133.819 316.527C134.449 315.933 135.313 315.609 136.303 315.609C137.491 315.609 138.499 316.095 139.147 316.923C139.813 316.095 140.821 315.609 142.027 315.609C144.169 315.609 145.699 317.211 145.699 319.479V324.519H144.043V319.479C144.043 318.039 143.233 317.121 142.027 317.121C140.785 317.121 139.975 318.021 139.975 319.479V324.519H138.319V319.479C138.319 318.039 137.509 317.121 136.303 317.121C135.061 317.121 134.251 318.021 134.251 319.479V324.519H132.595ZM149.391 313.953C148.725 313.953 148.203 313.413 148.203 312.729C148.203 312.081 148.725 311.541 149.391 311.541C150.057 311.541 150.579 312.099 150.579 312.729C150.579 313.413 150.057 313.953 149.391 313.953ZM148.563 324.519V315.879H150.219V324.519H148.563ZM153.333 324.519V315.879H154.269L154.557 316.527C155.187 315.933 156.051 315.609 157.041 315.609C159.183 315.609 160.713 317.211 160.713 319.479V324.519H159.057V319.479C159.057 318.039 158.247 317.121 157.041 317.121C155.799 317.121 154.989 318.021 154.989 319.479V324.519H153.333ZM167.367 324.519C164.865 324.519 164.235 323.871 164.199 321.225V317.391H162.651V315.879H164.199V313.107H165.855V315.879H167.709V317.391H165.855V321.225C165.891 322.575 166.197 322.899 167.367 322.899H167.709V324.501C167.655 324.519 167.601 324.519 167.367 324.519ZM173.876 324.789C171.284 324.789 169.466 322.917 169.466 320.271C169.466 317.535 171.284 315.609 173.876 315.609C176.45 315.609 178.286 317.553 178.286 320.271C178.286 322.917 176.468 324.789 173.876 324.789ZM173.876 323.277C175.55 323.277 176.63 322.089 176.63 320.271C176.63 318.381 175.514 317.121 173.876 317.121C172.22 317.121 171.122 318.363 171.122 320.271C171.122 322.089 172.202 323.277 173.876 323.277ZM180.652 324.519V315.879H181.588L181.876 316.527C182.506 315.933 183.37 315.609 184.36 315.609C186.502 315.609 188.032 317.211 188.032 319.479V324.519H186.376V319.479C186.376 318.039 185.566 317.121 184.36 317.121C183.118 317.121 182.308 318.021 182.308 319.479V324.519H180.652Z" fill="black"/>
<rect x="49" y="113.637" width="164.751" height="47.3438" rx="23.6719" transform="rotate(-17.6094 49 113.637)" fill="#FCFCFC"/>
<path d="M85.784 130.217C85.3544 130.49 84.948 130.725 84.5646 130.925C85.0119 132.18 86.004 133.047 86.004 133.047C85.2494 135.075 85.9878 136.613 85.9878 136.613L86.7798 136.342C86.3871 135.095 87.3538 132.753 87.3538 132.753C87.2119 132.303 87.1628 131.823 87.1557 131.394C86.5624 131.125 86.013 130.748 85.7823 130.218L85.784 130.217Z" fill="black"/>
<path d="M73.9195 132.836C73.855 133.02 75.713 136.455 76.4934 137.083L77.1844 136.74L75.7433 133.777C75.7433 133.777 76.8482 133.278 77.7114 132.785C77.2345 132.189 76.9172 131.544 76.7078 130.989C75.9277 131.393 74.0743 132.397 73.9204 132.838L73.9195 132.836Z" fill="black"/>
<path d="M89.7165 128.661L90.9902 127.989C89.727 123.944 87.5821 124.456 86.9785 124.694C87.1485 124.86 87.3067 125.064 87.4549 125.303C88.4032 124.935 89.7165 128.661 89.7165 128.661Z" fill="black"/>
<path d="M72.3231 128.422C72.3811 128.311 72.6007 127.926 72.8596 127.808C72.9019 127.789 72.981 127.762 73.0821 127.732C73.5644 127.576 74.5729 127.255 74.4825 126.546C74.4746 126.495 74.5046 126.446 74.5538 126.424C74.6053 126.403 74.6574 126.418 74.6911 126.457C74.6998 126.469 75.6427 127.677 76.5562 129.547L76.5683 129.582C76.5716 129.6 76.8298 131.384 77.9805 132.742C77.9871 132.747 79.2316 133.989 80.1871 134.777C80.9439 135.4 82.2574 137.275 82.5342 137.674L83.1433 137.465C83.0142 137.111 82.5692 135.927 81.8338 134.434C81.8338 134.434 81.1709 133.469 80.3911 132.031C79.9479 131.984 79.7138 131.875 79.6864 131.86C79.6293 131.83 79.6057 131.762 79.6328 131.704C79.6622 131.646 79.7309 131.623 79.7892 131.65C79.8065 131.658 80.6993 132.068 82.5345 131.515L80.3127 128.733C80.2878 128.702 80.2802 128.66 80.2937 128.621L81.2594 125.882C79.9989 126.318 78.9461 126.689 78.9221 126.697C78.8783 126.712 78.8296 126.699 78.7975 126.664C78.5962 126.435 78.4041 126.233 78.2167 126.045L77.479 126.595C77.4693 126.604 77.4581 126.607 77.4478 126.611C77.4281 126.618 77.4068 126.62 77.385 126.615C77.3531 126.609 77.3236 126.587 77.307 126.558L76.895 125.83C76.8706 125.786 76.8755 125.731 76.9126 125.693L77.3398 125.24C76.0739 124.221 75.0595 124.065 73.7914 124.185C73.7506 124.19 73.7131 124.173 73.6882 124.142C73.3026 123.647 72.6657 123.654 72.3662 123.691C72.5044 123.906 72.7462 124.312 72.8315 124.583C72.8406 124.61 72.8392 124.642 72.8253 124.666L71.2328 128.031C71.2702 128.148 71.4024 128.503 71.6735 128.599C71.8529 128.664 72.0695 128.601 72.3204 128.414L72.3231 128.422Z" fill="black"/>
<path d="M85.4885 124.45C85.2819 124.509 84.7401 124.69 84.0531 124.923C84.0392 125.011 84.0195 125.097 83.9814 125.179L82.2375 128.365L83.6808 131.092C84.5452 130.709 85.559 130.141 86.7257 129.298C86.7774 129.261 86.8496 129.273 86.887 129.324C86.9239 129.375 86.9122 129.448 86.8617 129.485C86.556 129.705 86.265 129.904 85.9794 130.087C86.3541 131.037 87.9637 131.474 88.7515 131.686C88.9357 131.736 89.0687 131.771 89.1422 131.8C89.509 131.952 90.9893 134.05 91.3989 134.635L92.0123 134.424C91.2845 133.018 90.1322 130.952 89.7673 130.728C89.2101 130.385 88.3849 128.938 88.3485 128.877C88.3415 128.865 88.3368 128.851 88.335 128.837C87.8703 126.005 87.0877 124.976 86.5131 124.611C86.1017 124.349 85.7297 124.375 85.4874 124.444L85.4885 124.45Z" fill="black"/>
<path d="M78.7836 118.668C79.0722 119.51 78.6238 120.426 77.782 120.714C76.9401 121.003 76.0242 120.555 75.7357 119.713C75.4471 118.871 75.8955 117.955 76.7374 117.666C77.5792 117.378 78.4951 117.826 78.7836 118.668Z" fill="black"/>
<path d="M77.1378 125.798L77.4427 126.338L79.7613 124.605L81.0872 122.42C81.12 122.365 81.1928 122.348 81.2454 122.381C81.3008 122.413 81.3181 122.486 81.2852 122.539L80.3944 124.007L81.5424 125.628C81.5656 125.659 81.5691 125.698 81.5565 125.734L80.5327 128.64L83.3564 132.176L83.8294 131.864L82.0035 128.416C81.9837 128.381 81.9856 128.342 82.0048 128.305L83.7746 125.071C83.8529 124.9 83.8598 124.696 83.7894 124.521C82.937 122.392 81.5306 121.157 80.4978 120.496C80.2965 120.368 80.0484 120.333 79.8195 120.402C79.5838 120.473 79.3905 120.64 79.2878 120.865L79.0507 121.385C78.9264 121.661 78.9584 121.984 79.1379 122.228L79.2667 122.411L79.5147 121.686C79.536 121.625 79.6006 121.592 79.6617 121.614C79.7228 121.635 79.7555 121.7 79.7342 121.761L79.057 123.743C79.0529 123.759 79.0423 123.773 79.0324 123.786L77.1401 125.794L77.1378 125.798Z" fill="black"/>
<path d="M97.6603 129.323L93.7941 117.142L95.4754 116.609L97.1308 121.824L102.535 120.109L100.88 114.893L102.561 114.36L106.427 126.541L104.746 127.074L103.025 121.653L97.6209 123.368L99.3417 128.79L97.6603 129.323ZM113.27 124.652C110.8 125.436 108.501 124.202 107.7 121.68C106.872 119.072 108.023 116.686 110.493 115.902C112.947 115.124 115.285 116.421 116.107 119.012C116.907 121.534 115.741 123.868 113.27 124.652ZM112.813 123.211C114.408 122.704 115.078 121.245 114.528 119.513C113.957 117.711 112.512 116.848 110.951 117.343C109.372 117.844 108.701 119.36 109.279 121.179C109.829 122.912 111.217 123.717 112.813 123.211ZM119.647 122.345L117.033 114.11L117.925 113.827L118.575 114.565C119.095 113.644 119.954 112.899 121.052 112.551C121.275 112.48 121.52 112.421 121.846 112.375L122.303 113.816C122.012 113.851 121.732 113.921 121.509 113.992C120.154 114.422 119.387 115.874 119.771 117.263L121.225 121.844L119.647 122.345ZM129.402 119.532C127.823 120.033 126.412 119.631 125.205 118.862L125.923 117.615C126.989 118.296 128.035 118.379 128.944 118.091C129.991 117.759 130.345 117.268 130.16 116.685C129.98 116.119 129.67 115.915 128.396 115.829C125.781 115.62 124.926 115.306 124.534 114.071C124.065 112.595 124.892 111.332 126.625 110.782C127.465 110.515 128.155 110.485 129.424 110.857L128.836 112.214C128.155 112.034 127.614 112.054 127.082 112.223C126.276 112.479 125.889 112.866 126.112 113.57C126.27 114.067 126.752 114.16 128.595 114.312C130.426 114.429 131.346 114.949 131.739 116.184C132.196 117.625 131.272 118.938 129.402 119.532ZM138.168 116.75C135.766 117.512 133.501 116.267 132.695 113.728C131.873 111.137 132.989 108.762 135.39 108C137.689 107.27 139.885 108.594 140.707 111.185C140.745 111.305 140.766 111.43 140.814 111.642L134.432 113.667C135.077 115.106 136.338 115.744 137.71 115.309C138.74 114.982 139.447 114.115 139.514 113.018L141.137 113.371C140.898 114.939 139.832 116.221 138.168 116.75ZM134.078 112.194L138.71 110.723C138.026 109.581 136.963 109.087 135.848 109.441C134.647 109.822 133.994 110.86 134.078 112.194ZM148.814 113.087L144.947 100.906L149.786 99.3706C151.484 98.8315 153.352 99.9571 153.957 101.862C154.534 103.68 153.772 105.565 152.237 106.203L156.946 110.506L155.162 111.073L150.459 106.787L148.829 107.304L150.495 112.554L148.814 113.087ZM148.339 105.76L151.272 104.829C152.165 104.545 152.602 103.425 152.275 102.395C151.943 101.349 150.945 100.702 150.053 100.985L147.119 101.917L148.339 105.76ZM156.913 99.4312C156.278 99.6327 155.617 99.2759 155.41 98.624C155.214 98.0064 155.548 97.3337 156.183 97.1323C156.818 96.9308 157.484 97.3047 157.675 97.9052C157.882 98.5571 157.548 99.2298 156.913 99.4312ZM159.32 109.753L156.706 101.517L158.285 101.017L160.899 109.252L159.32 109.753ZM167.396 107.473C164.977 108.24 162.695 107.001 161.889 104.461C161.067 101.871 162.2 99.4905 164.619 98.7227C165.597 98.4123 166.553 98.4489 167.408 98.7629L165.889 93.9762L167.467 93.4752L171.415 105.914L170.523 106.197L169.896 105.471C169.393 106.386 168.546 107.108 167.396 107.473ZM166.939 106.031C168.449 105.552 169.102 104.099 168.546 102.349C167.969 100.53 166.586 99.6847 165.077 100.164C163.55 100.649 162.896 102.159 163.468 103.96C164.023 105.71 165.412 106.516 166.939 106.031ZM171.887 94.6784C171.253 94.8799 170.592 94.5231 170.385 93.8712C170.189 93.2535 170.523 92.5809 171.158 92.3794C171.792 92.1779 172.459 92.5519 172.649 93.1524C172.856 93.8043 172.522 94.4769 171.887 94.6784ZM174.295 105L171.681 96.7646L173.259 96.2637L175.873 104.499L174.295 105ZM178.841 103.557L176.227 95.3218L177.119 95.0386L177.589 95.5691C178.01 94.8123 178.736 94.2421 179.679 93.9426C181.721 93.2946 183.664 94.3587 184.35 96.5204L185.875 101.324L184.296 101.825L182.772 97.0214C182.336 95.6489 181.286 95.0189 180.137 95.3838C178.953 95.7595 178.453 96.8624 178.894 98.2521L180.419 103.056L178.841 103.557ZM193.093 102.904C191.395 103.444 189.649 102.94 188.487 101.779L189.558 100.571C190.461 101.512 191.538 101.812 192.636 101.463C194.129 100.99 194.913 99.4753 194.429 97.9483L194.265 97.4336C193.731 98.1887 192.959 98.7924 192.015 99.0919C189.768 99.8053 187.372 98.5639 186.659 96.3164C185.918 93.9831 187.154 91.5702 189.402 90.8568C190.482 90.5137 191.614 90.6268 192.58 91.1132L192.692 90.0958L193.584 89.8127L196.007 97.4473C196.731 99.7292 195.495 102.142 193.093 102.904ZM191.558 97.6508C192.948 97.2097 193.704 95.6665 193.247 94.2254C192.768 92.7156 191.232 91.8623 189.859 92.2979C188.487 92.7336 187.753 94.2885 188.237 95.8154C188.7 97.2737 190.185 98.0864 191.558 97.6508Z" fill="black"/>
<rect x="19.0177" y="57.496" width="98.5429" height="46.6249" rx="23.3124" transform="rotate(-14.9947 19.0177 57.496)" fill="#FDC3FD"/>
<path d="M58.116 80.7984L57.5733 80.9438C57.6513 80.6818 57.6618 80.4047 57.6026 80.1389C57.4238 79.2996 56.6812 78.788 55.8361 78.9214C55.2623 79.0125 54.6841 79.0772 54.1075 79.1267C55.1157 78.6164 56.1223 78.1342 57.1648 77.7556C59.2248 77.0041 60.2449 80.2282 58.116 80.7984Z" fill="black"/>
<path d="M52.3227 79.9573C50.6387 80.0439 48.9839 80.0951 47.3739 80.3791C45.2122 80.7575 45.9401 84.0598 48.069 83.4896L52.8058 82.2208C52.4266 81.53 52.2589 80.7429 52.3227 79.9573Z" fill="black"/>
<path d="M55.9476 79.6233C54.9711 79.778 54.0008 79.8594 53.0386 79.9165C52.9559 80.6556 53.1249 81.4 53.5182 82.03L56.2971 81.2856C57.3328 81.0082 57.0053 79.4559 55.9476 79.6233Z" fill="black"/>
<path d="M55.7933 77.5387C54.6286 78.0421 53.5034 78.638 52.315 79.2453C51.0249 79.3111 49.7295 79.358 48.4512 79.5053C48.5546 78.9327 48.5722 78.3491 48.505 77.7717L50.8013 77.2873L50.8011 77.2864C51.1329 77.216 51.4331 77.0417 51.6579 76.7882C51.9793 76.8954 52.3265 76.8963 52.6493 76.7923L54.8803 76.064C55.1107 76.5978 55.4177 77.0945 55.7932 77.5378L55.7933 77.5387Z" fill="black"/>
<path d="M46.4058 66.9861C47.377 66.9561 48.1483 66.4476 48.3742 65.6968L48.374 65.696C48.4087 65.5781 48.5029 65.4866 48.6223 65.4546C48.7416 65.4226 48.869 65.4548 48.9579 65.5396C49.5272 66.0773 50.4506 66.13 51.3072 65.6723L51.3269 65.6634C50.7683 64.5742 49.6808 63.8126 48.2828 64.1871C46.8848 64.5615 46.3227 65.765 46.3841 66.9873L46.4058 66.9861Z" fill="black"/>
<path d="M48.8632 66.3545C48.4276 67.1338 47.5477 67.6419 46.4868 67.6942C46.8503 69.1817 48.1039 70.4601 49.8384 69.9955C51.5722 69.5311 52.0189 67.7972 51.591 66.327C50.7096 66.7784 49.6808 66.8442 48.8632 66.3545Z" fill="black"/>
<path d="M49.4681 63.414C48.6089 63.2815 47.5997 63.527 46.8719 64.1149C46.542 63.3989 46.8838 62.4551 47.7562 62.2214C48.6296 61.9875 49.3933 62.6297 49.4681 63.414Z" fill="black"/>
<path d="M53.8134 74.2661L52.6873 74.8171C52.5285 74.8946 52.3373 74.8437 52.2376 74.6983L51.3848 73.4523L51.3837 73.4517C51.3499 73.4009 51.2842 73.3826 51.2284 73.4077C51.1727 73.4336 51.1434 73.4958 51.1601 73.5548L51.7448 75.7377C51.7819 75.8797 51.8751 76.001 52.0029 76.0726C52.1307 76.1442 52.2823 76.1607 52.4229 76.1184C52.7875 76.0023 51.4011 76.451 54.6471 75.392L53.8134 74.2661Z" fill="black"/>
<path d="M50.4728 73.738C50.4578 73.6785 50.4013 73.6394 50.3401 73.6447C50.2792 73.6509 50.2315 73.6996 50.2269 73.7615L50.1111 75.2669C50.0974 75.4427 49.9572 75.5824 49.7811 75.5946L48.5279 75.6818L48.369 77.0745L50.6547 76.592C50.7989 76.5599 50.9248 76.47 51.0003 76.343C51.0769 76.2167 51.0977 76.0638 51.0575 75.9209L50.4728 73.738Z" fill="black"/>
<path d="M56.64 74.7414L55.3399 75.1651C55.3144 75.0873 55.3561 75.1571 54.4617 73.948L55.1859 73.5939C55.3583 73.5054 55.4289 73.2951 55.3436 73.121C55.2583 72.9468 55.049 72.8732 54.874 72.955L54.382 73.1935C54.2204 72.5355 54.0799 71.8663 53.9648 71.1996L53.9656 71.1993C53.9277 71.0098 53.746 70.8845 53.5559 70.917C53.365 70.9497 53.2362 71.1287 53.2644 71.3199C53.3912 72.0545 53.5469 72.7904 53.7285 73.513L52.6496 74.0413L51.9695 73.0482L51.9701 73.0471C51.822 72.8309 51.5817 72.6965 51.3205 72.6836C51.0594 72.6708 50.8063 72.7809 50.6382 72.9814C50.3924 72.8917 50.1182 72.9229 49.8976 73.0648C49.6781 73.2073 49.5374 73.4447 49.5182 73.7066L49.4255 74.9067L48.2271 74.9885C48.0231 74.2719 47.7899 73.5557 47.5328 72.857C47.5022 72.7667 47.4363 72.6924 47.3497 72.6511C47.2632 72.6099 47.1635 72.6053 47.074 72.6385C46.9844 72.6717 46.9113 72.7391 46.8722 72.8269C46.8329 72.9138 46.8312 73.0137 46.8661 73.1028C47.0997 73.7378 47.3133 74.3875 47.5014 75.0384L46.9556 75.076C46.7622 75.0928 46.6186 75.261 46.6318 75.4545C46.6449 75.6479 46.8104 75.795 47.0047 75.7853L47.8056 75.7309C47.6345 77.2364 47.6371 77.1427 47.6535 77.2249L46.3191 77.5068L46.3189 77.506C45.9748 77.5788 45.6159 77.5065 45.3266 77.306C45.0381 77.1054 44.8445 76.7946 44.7927 76.4468L44.7925 76.4459C44.5982 75.1055 44.5819 73.746 44.7444 72.4009C44.8127 71.8553 45.1354 71.3731 45.6141 71.1022L47.2568 70.1671C47.9885 70.7203 48.9368 70.9724 50.023 70.6815C51.0157 70.4156 51.7769 69.7663 52.1638 68.8537L54.052 68.8421L54.0531 68.8428C54.6029 68.8372 55.1234 69.0936 55.4553 69.532C56.2683 70.6156 56.9338 71.8012 57.4358 73.0604C57.5648 73.3875 57.5526 73.7543 57.4014 74.0727C57.2512 74.3918 56.9755 74.6331 56.64 74.7414Z" fill="black"/>
<path d="M67.2233 74.9299L65.8029 69.6268L59.5699 63.7493L61.639 63.1951L66.1798 67.6251L67.8984 61.5185L69.9674 60.9643L67.5021 69.153L68.9272 74.4734L67.2233 74.9299ZM77.1567 72.5487C74.6529 73.2193 72.4125 71.8814 71.7279 69.3255C71.02 66.6827 72.2778 64.3519 74.7815 63.6813C77.2679 63.0153 79.5444 64.4181 80.2476 67.0435C80.9322 69.5994 79.6604 71.8781 77.1567 72.5487ZM76.7655 71.0882C78.3825 70.6551 79.1183 69.2281 78.648 67.472C78.159 65.6464 76.755 64.718 75.1727 65.1418C73.5731 65.5703 72.8339 67.0541 73.3275 68.8971C73.7979 70.6532 75.1485 71.5213 76.7655 71.0882ZM87.9769 73.191C86.2556 73.6521 84.5343 73.0696 83.4268 71.8569L84.5514 70.6985C85.4105 71.6796 86.473 72.0286 87.5857 71.7305C89.0984 71.3254 89.9513 69.8484 89.5368 68.3009L89.3971 67.7793C88.8286 68.5093 88.0304 69.0771 87.0741 69.3333C84.7964 69.9434 82.4597 68.594 81.8496 66.3163C81.2162 63.9516 82.5609 61.5976 84.8387 60.9875C85.934 60.6941 87.0589 60.8586 88.0022 61.3886L88.1599 60.3774L89.064 60.1352L91.1365 67.8725C91.7559 70.185 90.4111 72.539 87.9769 73.191ZM86.6829 67.8728C88.0912 67.4955 88.9174 65.9885 88.5262 64.5279C88.1164 62.9979 86.6208 62.0754 85.2299 62.448C83.8389 62.8206 83.0347 64.3404 83.4492 65.8878C83.8451 67.3657 85.2919 68.2453 86.6829 67.8728ZM96.6037 67.3398C94.7954 67.8242 93.2213 67.165 92.7788 65.5132C92.3597 63.9484 93.3682 62.6347 95.3677 62.0992L97.6106 61.4984L97.5128 61.1333C97.0334 59.6218 96.6192 59.3973 95.2978 59.7513C94.3068 60.0167 93.556 60.5533 93.0285 61.6449L91.8241 60.9053C92.4951 59.5144 93.3939 58.6959 94.9066 58.2908C97.08 57.7086 98.3607 58.3159 99.0938 60.6353L100.533 66.0079L99.6113 66.2547L99.1295 65.6384C98.5842 66.4553 97.6991 67.0464 96.6037 67.3398ZM96.2125 65.8793C97.673 65.4881 98.3315 64.3986 98.0018 62.9589L95.7589 63.5597C94.5765 63.8764 94.1922 64.3893 94.3784 65.0848C94.5834 65.8498 95.1866 66.1541 96.2125 65.8793Z" fill="black"/>
<rect x="235.058" y="97" width="99.7121" height="46" rx="23" transform="rotate(58.111 235.058 97)" fill="#AA79FF"/>
<path d="M225.839 126.453C226.084 125.399 226.658 124.475 227.495 123.747C226.23 124.287 224.388 124.974 223.061 125.058C223.061 125.058 223.061 125.063 223.059 125.064L222.732 126.469C222.732 126.469 222.73 126.474 222.731 126.475C223.888 127.139 225.241 128.576 226.138 129.62C225.703 128.596 225.592 127.506 225.839 126.452L225.839 126.453Z" fill="white"/>
<path d="M238.906 129.496C239.212 128.181 238.928 126.844 238.21 125.69C237.373 124.345 235.948 123.253 234.178 122.732C234.254 123.106 234.246 123.491 234.149 123.861C234.603 124.016 235.036 124.22 235.436 124.471C236.107 124.891 236.68 125.437 237.091 126.053C237.131 126.108 237.171 126.174 237.208 126.236C237.555 126.809 237.759 127.409 237.817 128.023C237.826 128.11 237.83 128.199 237.833 128.286C237.841 128.599 237.806 128.912 237.736 129.22C237.664 129.526 237.555 129.824 237.41 130.102C237.164 130.569 236.827 130.984 236.398 131.336C236.255 131.454 236.103 131.565 235.943 131.667C235.884 131.704 235.82 131.744 235.757 131.778L235.754 131.779C235.196 132.101 234.549 132.325 233.867 132.428C233.769 132.444 233.671 132.457 233.572 132.466C233.081 132.517 232.582 132.509 232.08 132.437C231.915 132.415 231.753 132.386 231.588 132.349C231.588 132.349 231.585 132.35 231.582 132.349C231.557 132.344 231.524 132.336 231.49 132.329L231.484 132.328C230.854 132.181 230.263 131.948 229.73 131.636C229.148 131.302 228.63 130.871 228.219 130.381C228.161 130.31 228.103 130.24 228.049 130.166C227.953 130.038 227.878 129.926 227.813 129.822L227.775 129.76C227.432 129.196 227.223 128.581 227.166 127.969C227.157 127.882 227.152 127.796 227.152 127.709C227.144 127.395 227.179 127.082 227.249 126.774C227.32 126.468 227.43 126.17 227.575 125.893C227.815 125.431 228.161 125.011 228.589 124.657C228.732 124.539 228.882 124.429 229.042 124.327C229.139 124.263 229.255 124.198 229.384 124.128C229.236 123.743 229.188 123.342 229.23 122.952C229.097 123.009 228.966 123.067 228.837 123.134C227.393 123.871 226.414 125.064 226.081 126.498C225.747 127.933 226.096 129.439 227.067 130.734C228.043 132.038 229.524 132.976 231.241 133.375C234.776 134.199 238.217 132.453 238.91 129.484L238.906 129.496Z" fill="white"/>
<path d="M231.056 126.619L232.7 127.002L233.054 125.482L232.894 125.445C232.856 125.465 232.818 125.486 232.779 125.505C232.291 125.733 231.764 125.787 231.272 125.699L231.057 126.622L231.056 126.619Z" fill="white"/>
<path d="M229.533 124.66L229.179 126.18L230.823 126.563L231.038 125.639C230.502 125.486 230.02 125.159 229.682 124.692L229.533 124.657L229.533 124.66Z" fill="white"/>
<path d="M235.878 131.422L235.882 131.419C236.004 131.338 236.122 131.253 236.23 131.163L236.241 131.156C236.349 131.067 236.451 130.971 236.55 130.873C236.564 130.859 236.578 130.844 236.591 130.83C236.682 130.734 236.768 130.635 236.847 130.533C236.861 130.515 236.874 130.496 236.889 130.478C236.966 130.373 237.037 130.266 237.104 130.157C237.108 130.149 237.113 130.14 237.118 130.133L236.228 129.926L235.879 131.424L235.878 131.422Z" fill="white"/>
<path d="M233.288 125.535L234.931 125.918L234.577 127.439L232.933 127.056L233.288 125.535Z" fill="white"/>
<path d="M233.939 131.24L233.714 132.206C233.714 132.206 233.735 132.204 233.748 132.202C233.894 132.182 234.038 132.154 234.182 132.124C234.207 132.118 234.232 132.113 234.254 132.108C234.398 132.075 234.541 132.035 234.679 131.992C234.695 131.987 234.713 131.979 234.73 131.974C234.876 131.926 235.018 131.872 235.156 131.811C235.292 131.752 235.422 131.686 235.551 131.614L233.937 131.239L233.939 131.24Z" fill="white"/>
<path d="M234.759 127.728L234.581 128.489L234.404 129.25L236.048 129.633L236.402 128.111L234.759 127.728Z" fill="white"/>
<path d="M235.165 125.971L236.809 126.354L236.454 127.876L234.811 127.493L235.165 125.971Z" fill="white"/>
<path d="M234.348 129.485L235.991 129.867L235.637 131.389L233.993 131.006L234.348 129.485Z" fill="white"/>
<path d="M230.593 128.61L232.237 128.992L231.883 130.514L230.239 130.131L230.593 128.61Z" fill="white"/>
<path d="M230.646 128.374L232.29 128.757L232.644 127.236L231 126.853L230.646 128.374Z" fill="white"/>
<path d="M232.703 128.051L232.525 128.812L234.168 129.195L234.346 128.434L234.523 127.673L232.879 127.291L232.703 128.051Z" fill="white"/>
<path d="M232.47 129.045L234.113 129.427L233.759 130.949L232.116 130.566L232.47 129.045Z" fill="white"/>
<path d="M229.122 126.416L230.766 126.799L230.411 128.32L228.768 127.937L229.122 126.416Z" fill="white"/>
<path d="M231.827 130.748L230.184 130.365L229.927 131.47C229.989 131.506 230.051 131.538 230.115 131.571C230.167 131.599 230.217 131.627 230.27 131.651C230.355 131.692 230.444 131.73 230.532 131.766C230.579 131.786 230.626 131.808 230.672 131.827C230.784 131.87 230.901 131.912 231.018 131.95C231.042 131.957 231.066 131.969 231.091 131.976C231.229 132.02 231.371 132.057 231.513 132.09L231.826 130.749L231.827 130.748Z" fill="white"/>
<path d="M235.22 125.738L236.834 126.113C236.751 125.994 236.663 125.879 236.569 125.767C236.567 125.763 236.564 125.759 236.559 125.756C236.464 125.644 236.364 125.537 236.258 125.432C236.244 125.419 236.23 125.404 236.216 125.391C236.112 125.292 236.002 125.194 235.89 125.1C235.87 125.083 235.85 125.068 235.831 125.052C235.717 124.96 235.599 124.875 235.478 124.791C235.469 124.786 235.458 124.778 235.449 124.772L235.224 125.738L235.22 125.738Z" fill="white"/>
<path d="M236.281 129.686L237.23 129.907C237.345 129.672 237.437 129.424 237.497 129.168C237.556 128.913 237.583 128.649 237.584 128.387L236.635 128.166L236.281 129.686Z" fill="white"/>
<path d="M233.389 125.102L233.342 125.302L234.986 125.685L235.23 124.635C235.149 124.586 235.065 124.54 234.984 124.494C234.949 124.473 234.912 124.453 234.879 124.434C234.744 124.364 234.605 124.3 234.465 124.24C234.445 124.23 234.421 124.225 234.4 124.215C234.293 124.17 234.184 124.131 234.074 124.091C233.93 124.485 233.696 124.829 233.391 125.101L233.389 125.102Z" fill="white"/>
<path d="M233.704 131.187L232.061 130.804L231.75 132.139C231.827 132.153 231.905 132.168 231.98 132.18C232.033 132.187 232.085 132.2 232.138 132.207C232.269 132.225 232.401 132.237 232.532 132.246C232.553 132.247 232.575 132.25 232.597 132.251C232.751 132.261 232.903 132.263 233.055 132.261C233.095 132.262 233.134 132.257 233.176 132.254C233.269 132.25 233.365 132.243 233.459 132.236L233.704 131.186L233.704 131.187Z" fill="white"/>
<path d="M228.713 128.172L230.356 128.555L230.002 130.077L228.359 129.694L228.713 128.172Z" fill="white"/>
<path d="M236.691 127.931L237.581 128.139C237.581 128.139 237.58 128.119 237.578 128.111C237.569 127.984 237.552 127.855 237.529 127.727C237.524 127.704 237.521 127.681 237.517 127.66C237.491 127.531 237.459 127.403 237.417 127.277C237.412 127.26 237.404 127.242 237.399 127.225C237.357 127.093 237.305 126.96 237.246 126.829L237.242 126.823C237.183 126.692 237.115 126.564 237.042 126.437L237.039 126.433L236.69 127.931L236.691 127.931Z" fill="white"/>
<path d="M229.948 130.31L228.304 129.927L228.272 130.067C228.278 130.078 228.287 130.087 228.296 130.098C228.383 130.211 228.477 130.32 228.578 130.428L228.582 130.434C228.682 130.54 228.788 130.642 228.898 130.74C228.911 130.752 228.924 130.764 228.937 130.776C229.043 130.869 229.153 130.96 229.269 131.046C229.29 131.062 229.308 131.076 229.328 131.092C229.442 131.174 229.56 131.253 229.68 131.329C229.689 131.335 229.698 131.34 229.708 131.347L229.949 130.31L229.948 130.31Z" fill="white"/>
<path d="M228.534 127.882L228.888 126.362L227.745 126.096C227.63 126.332 227.538 126.58 227.478 126.835C227.419 127.091 227.392 127.355 227.391 127.616L228.534 127.882Z" fill="white"/>
<path d="M228.942 126.125L229.296 124.605L229.124 124.565L229.095 124.583C228.97 124.666 228.853 124.75 228.743 124.842L228.736 124.846C228.625 124.937 228.521 125.034 228.424 125.134C228.412 125.147 228.397 125.159 228.386 125.172C228.293 125.269 228.207 125.368 228.126 125.472C228.112 125.49 228.098 125.509 228.086 125.526C228.009 125.63 227.937 125.738 227.872 125.85C227.868 125.857 227.863 125.866 227.858 125.873L228.942 126.125Z" fill="white"/>
<path d="M227.56 128.727C227.565 128.744 227.572 128.761 227.577 128.778C227.62 128.91 227.671 129.043 227.73 129.174L227.734 129.181C227.794 129.311 227.861 129.44 227.935 129.567L227.954 129.598L228.126 129.638L228.48 128.118L227.397 127.865C227.397 127.865 227.397 127.882 227.4 127.893C227.41 128.023 227.426 128.149 227.449 128.279C227.455 128.301 227.457 128.323 227.462 128.345C227.488 128.474 227.52 128.602 227.562 128.729L227.56 128.727Z" fill="white"/>
<path d="M222.499 126.415L222.826 125.011C222.851 124.904 222.833 124.794 222.774 124.699C222.716 124.605 222.624 124.54 222.518 124.515L216.16 123.034C215.937 122.982 215.716 123.119 215.664 123.343L215.337 124.747C215.287 124.963 215.429 125.192 215.645 125.243L222.003 126.724C222.11 126.749 222.221 126.731 222.315 126.672C222.409 126.613 222.474 126.522 222.499 126.415Z" fill="white"/>
<path d="M233.772 122.269C233.734 122.185 233.689 122.104 233.641 122.026C233.42 121.67 233.111 121.393 232.754 121.213C232.765 121.7 232.705 122.95 231.896 123.738C231.382 124.236 230.663 124.448 229.759 124.379C230.344 125.378 231.606 125.786 232.676 125.288C233.226 125.031 233.641 124.576 233.849 124.006C234.057 123.437 234.029 122.821 233.774 122.27L233.772 122.269Z" fill="white"/>
<path d="M229.635 124.125C230.536 124.223 231.241 124.037 231.729 123.566C232.539 122.782 232.527 121.432 232.512 121.106C231.962 120.901 231.332 120.903 230.759 121.172C229.646 121.692 229.153 123.006 229.635 124.126L229.635 124.125Z" fill="white"/>
<path d="M231.121 145.568L240.597 139.673L238.61 136.479L239.985 135.623L244.882 143.494L243.507 144.35L241.529 141.171L232.053 147.066L231.121 145.568ZM235.856 153.69C234.525 151.55 235.173 149.048 237.435 147.641C239.743 146.205 242.32 146.701 243.651 148.84C244.925 150.888 244.184 153.343 241.876 154.778C241.769 154.845 241.652 154.896 241.459 154.995L237.922 149.31C236.688 150.29 236.379 151.669 237.14 152.891C237.711 153.808 238.725 154.28 239.805 154.074L239.863 155.734C238.285 155.889 236.779 155.173 235.856 153.69ZM239.263 148.603L241.83 152.729C242.769 151.785 242.985 150.633 242.367 149.639C241.701 148.569 240.534 148.193 239.263 148.603ZM239.499 159.034L246.835 154.469L247.329 155.264L246.931 155.851C247.769 156.072 248.5 156.634 249.023 157.475C250.155 159.294 249.603 161.439 247.677 162.637L243.398 165.3L242.523 163.894L246.802 161.231C248.025 160.47 248.376 159.298 247.739 158.274C247.083 157.219 245.891 157.007 244.653 157.777L240.374 160.44L239.499 159.034ZM244.926 167.755L252.262 163.191L252.756 163.986L252.358 164.573C253.195 164.794 253.927 165.356 254.45 166.197C255.581 168.016 255.029 170.161 253.104 171.359L248.824 174.022L247.949 172.616L252.229 169.953C253.451 169.192 253.803 168.02 253.166 166.996C252.51 165.941 251.318 165.729 250.08 166.499L245.8 169.162L244.926 167.755ZM259.78 171.629C259.428 171.064 259.611 170.335 260.192 169.974C260.742 169.632 261.476 169.79 261.828 170.355C262.18 170.92 261.982 171.658 261.447 171.991C260.866 172.353 260.132 172.195 259.78 171.629ZM250.371 176.508L257.707 171.944L258.582 173.35L251.246 177.914L250.371 176.508ZM254.24 183.237C253.365 181.831 253.406 180.364 253.854 179.005L255.24 179.393C254.843 180.594 255.02 181.628 255.524 182.438C256.104 183.371 256.666 183.593 257.186 183.27C257.69 182.956 257.811 182.605 257.581 181.349C257.138 178.763 257.231 177.857 258.332 177.172C259.646 176.355 261.074 176.844 262.034 178.388C262.5 179.137 262.699 179.797 262.653 181.119L261.192 180.884C261.199 180.179 261.045 179.66 260.751 179.186C260.304 178.468 259.833 178.189 259.206 178.578C258.763 178.854 258.793 179.345 259.1 181.167C259.438 182.971 259.161 183.991 258.061 184.676C256.777 185.475 255.276 184.903 254.24 183.237Z" fill="white"/>
<rect x="238.967" y="38" width="107.917" height="46" rx="23" transform="rotate(32.8711 238.967 38)" fill="#FCFCFC"/>
<path d="M250.98 74.8625L254.828 70.0792C254.961 69.9127 255.183 69.8847 255.345 70.0167C255.495 70.1402 255.517 70.3702 255.384 70.5366L252.161 74.5354L251.812 79.2466C251.777 79.683 252.097 80.0431 252.521 80.056L255.34 80.1296C255.769 80.137 256.144 79.7933 256.173 79.3526L256.961 68.8167C257.033 67.836 256.771 66.8745 256.213 66.107L255.754 65.4868L255.647 65.5344C255.401 65.6369 252.712 66.9437 249.559 68.8884C249.009 69.2265 248.441 69.5902 247.853 69.975C247.109 70.4675 246.404 70.9665 245.733 71.452L250.862 74.7676C250.904 74.7947 250.946 74.8219 250.98 74.8625ZM242.842 73.7298L243.616 74.2301C243.33 74.4232 243.065 74.6489 242.817 74.9022C242.585 75.1302 242.458 75.445 242.466 75.7742C242.468 76.0997 242.616 76.4117 242.86 76.6136L243.173 76.879L243.251 76.9293C243.689 77.2123 244.268 77.1456 244.651 76.7628C244.914 76.5002 245.23 76.289 245.564 76.1537C245.577 76.5137 245.515 76.8882 245.383 77.2356C245.192 77.7424 245.369 78.2978 245.807 78.5809L245.843 78.6042L245.925 78.6485L246.237 78.7963C246.54 78.9465 246.878 78.9492 247.176 78.8176C247.484 78.6829 247.73 78.4198 247.851 78.1013C247.968 77.7898 248.06 77.4615 248.117 77.1375L248.975 77.6919C249.023 77.7231 249.069 77.7441 249.116 77.7642L248.053 79.8426C247.613 80.6941 246.573 81.0127 245.811 80.5203L239.704 76.5737C240.746 75.5644 241.795 74.6115 242.842 73.7298ZM250.609 59.856C250.697 59.8774 250.774 59.9171 250.845 59.9632L255.218 62.7893C255.291 62.8359 255.352 62.8844 255.408 62.9571C254.988 63.1726 252.876 64.2304 250.111 65.9037C250.474 62.6968 250.582 60.3436 250.609 59.856ZM248.423 66.9488C248.845 63.3209 248.899 60.6445 248.896 60.6242L248.903 60.4302L249.652 59.9685C249.727 59.9186 249.8 59.8841 249.885 59.858C249.861 60.356 249.749 62.9236 249.323 66.3864C249.028 66.5649 248.726 66.7567 248.423 66.9488ZM248.147 67.9678C248.724 67.6017 249.286 67.2445 249.832 66.9124C252.887 65.04 255.271 63.8405 255.705 63.6264C255.721 63.709 255.715 63.7952 255.704 63.8782L255.589 64.7679L255.394 64.8589C254.919 65.0659 252.281 66.3602 249.209 68.2587C248.654 68.6038 248.078 68.969 247.489 69.3547C246.638 69.9218 245.833 70.4833 245.084 71.0355L244.371 70.5743C244.594 70.412 244.812 70.2469 245.032 70.0912C246.095 69.3274 247.142 68.6166 248.147 67.968L248.147 67.9678ZM241.504 72.8655L242.212 73.3229C241.19 74.1936 240.169 75.1291 239.152 76.1111L239.084 76.1759L238.545 75.8272C238.491 75.7922 238.44 75.7511 238.393 75.7204L238.397 75.7143C239.435 74.6986 240.474 73.7492 241.504 72.8655ZM239.824 71.78L240.88 72.4621C239.908 73.2941 238.943 74.1839 237.97 75.1221C237.775 74.6091 237.855 73.9847 238.241 73.5048L239.699 71.6818C239.739 71.7146 239.777 71.7492 239.824 71.78ZM235.351 65.8972L244.633 60.8507C245.498 60.382 246.482 60.2261 247.411 60.4201L248.175 60.58L248.171 60.6668C248.17 60.6938 248.17 60.7204 248.17 60.7474C248.161 60.7605 248.117 63.6325 247.633 67.4466C246.66 68.0705 245.657 68.7547 244.64 69.4851C244.338 69.7034 244.031 69.9286 243.729 70.1576L241.713 68.8548C241.671 68.8277 241.629 68.8007 241.578 68.7862L244.346 63.3048C244.443 63.115 244.365 62.8935 244.197 62.8119C244.017 62.7224 243.799 62.7971 243.702 62.9869L241.377 67.5845L241.373 67.5905L237.24 69.8291C236.851 70.0371 236.39 69.8925 236.209 69.5144L234.984 66.9749C234.802 66.5888 234.962 66.1052 235.351 65.8972ZM250.451 75.404C250.667 75.5433 250.722 75.8399 250.569 76.0754L250.04 76.8948C249.892 77.1233 249.599 77.1952 249.384 77.0558L248.214 76.2999C248.233 75.9157 248.211 75.5417 248.147 75.1663L248.545 74.5503C248.602 74.4616 248.652 74.3581 248.687 74.2639L250.451 75.404ZM241.303 69.4921L246.006 72.5312C245.934 72.6021 245.86 72.6897 245.803 72.7784L245.409 73.3883C245.041 73.4844 244.681 73.6202 244.338 73.795L240.234 71.1433C240.019 71.0039 239.964 70.7074 240.111 70.4788L240.641 69.6594C240.794 69.4245 241.087 69.3527 241.303 69.4921ZM244.898 74.3379C244.776 74.7641 244.865 75.2174 245.137 75.547C244.778 75.7206 244.447 75.9569 244.158 76.2471C244.006 76.3913 243.773 76.3949 243.618 76.2677C243.525 76.1889 243.43 76.1105 243.337 76.0318C243.155 75.8788 243.139 75.5883 243.308 75.4181C243.77 74.9508 244.315 74.5824 244.898 74.3379ZM247.491 76.0225C247.504 76.6343 247.4 77.269 247.172 77.871C247.079 78.1074 246.813 78.2427 246.587 78.1322C246.477 78.0795 246.367 78.0254 246.257 77.9727C246.076 77.8832 245.984 77.671 246.053 77.4714C246.198 77.0876 246.278 76.6894 246.289 76.2912C246.701 76.4036 247.148 76.3042 247.491 76.0225ZM245.679 74.2823L246.399 73.1674C246.602 72.8538 247.005 72.7548 247.301 72.9462L247.772 73.2504C248.068 73.4417 248.144 73.8502 247.941 74.1639L247.221 75.2787C247.018 75.5924 246.615 75.6913 246.319 75.5L245.848 75.1958C245.552 75.0044 245.476 74.5959 245.679 74.2823Z" fill="black"/>
<path d="M259.114 85.5476L266.051 74.8137L267.532 75.7711L264.211 80.9113L271.478 78.321L273.337 79.5226L265.598 82.2795L266.945 90.6082L264.965 89.3284L263.722 81.6672L260.596 86.505L259.114 85.5476ZM270.417 93.1728C268.844 92.1568 268.277 90.5472 269.205 89.111C270.084 87.7504 271.735 87.6169 273.474 88.7404L275.424 90.0007L275.629 89.6832C276.428 88.3137 276.317 87.856 275.168 87.1135C274.306 86.5566 273.405 86.3598 272.241 86.701L271.982 85.3117C273.463 84.8761 274.673 84.9936 275.989 85.8436C277.878 87.0648 278.287 88.422 277.059 90.5215L274.04 95.193L273.239 94.6752L273.373 93.9044C272.401 94.0481 271.369 93.7883 270.417 93.1728ZM271.237 91.9029C272.507 92.7235 273.757 92.481 274.603 91.2706L272.653 90.0103C271.625 89.346 270.987 89.4051 270.596 90.0098C270.166 90.675 270.345 91.3265 271.237 91.9029ZM276.379 96.704L281.068 89.4473L281.854 89.9553L281.698 90.9262C282.739 90.7415 283.86 90.9302 284.828 91.5555C285.024 91.6825 285.226 91.8344 285.469 92.0556L284.648 93.3255C284.436 93.1238 284.204 92.9524 284.007 92.8254C282.813 92.0536 281.205 92.3861 280.378 93.5663L277.769 97.6028L276.379 96.704ZM284.439 102.234C282.866 101.218 282.299 99.6084 283.227 98.1722C284.106 96.8115 285.757 96.6781 287.496 97.8016L289.446 99.0619L289.651 98.7444C290.45 97.3749 290.339 96.9172 289.19 96.1747C288.328 95.6178 287.427 95.421 286.263 95.7622L286.004 94.3729C287.485 93.9373 288.695 94.0548 290.011 94.9048C291.9 96.1259 292.309 97.4831 291.081 99.5827L288.062 104.254L287.261 103.736L287.395 102.966C286.423 103.109 285.391 102.849 284.439 102.234ZM285.259 100.964C286.529 101.785 287.779 101.542 288.625 100.332L286.675 99.0715C285.647 98.4072 285.009 98.4662 284.618 99.071C284.188 99.7362 284.367 100.388 285.259 100.964ZM293.531 107.788C291.429 106.43 291.252 105.544 292.658 103.302L294.739 100.082L293.438 99.2416L294.259 97.9717L295.559 98.8118L297.064 96.4836L298.455 97.3824L296.95 99.7106L298.507 100.717L297.687 101.987L296.129 100.981L294.049 104.201C293.346 105.354 293.427 105.792 294.41 106.427L294.697 106.613L293.828 107.958C293.773 107.944 293.727 107.915 293.531 107.788ZM298.775 111.499C296.659 110.131 296.178 107.591 297.624 105.354C299.099 103.071 301.641 102.421 303.758 103.788C305.784 105.097 306.159 107.633 304.684 109.916C304.616 110.022 304.532 110.118 304.4 110.29L298.776 106.656C298.077 108.068 298.386 109.447 299.596 110.229C300.503 110.815 301.621 110.809 302.511 110.162L303.271 111.639C301.909 112.452 300.242 112.446 298.775 111.499ZM299.687 105.444L303.769 108.082C304.216 106.827 303.92 105.693 302.937 105.058C301.879 104.374 300.663 104.532 299.687 105.444Z" fill="black"/>
<rect x="252" y="280.587" width="157.955" height="46" rx="23" transform="rotate(-73.6754 252 280.587)" fill="#FEE5C2"/>
<path d="M272.92 255.158C272.159 256.089 271.586 256.273 270.44 260.344C270.44 260.344 270.202 260.835 270.529 261.492C270.856 262.148 271.536 263.324 271.702 263.453C271.869 263.582 272.271 263.395 272.418 263.374C272.566 263.353 273.147 263.251 273.147 263.251L273.624 261.836C273.624 261.836 273.008 261.736 272.831 261.315C272.655 260.895 272.36 260.825 271.817 260.906C271.274 260.988 271.927 259.994 272.003 259.679C272.08 259.365 273.34 258.933 273.464 258.185C273.464 258.185 273.682 257.928 273.74 258.266C273.799 258.603 273.227 259.91 275.294 260.435C275.294 260.435 274.481 262.135 276.666 262.903C276.666 262.903 276.963 264.096 277.109 264.347C277.256 264.598 277.141 265.366 276.575 265.632C276.009 265.899 272.708 266.952 274.169 269.382C275.63 271.813 277.694 270.735 278.034 270.274L278.188 269.991C278.188 269.991 279.152 270.113 279.161 270.003C279.169 269.894 279.079 269.555 279.079 269.555C279.079 269.555 280.123 268.947 279.979 268.256C279.835 267.565 279.076 267.359 279.309 267.074C279.542 266.79 279.99 267.626 280.333 267.903C280.333 267.903 280.441 270.226 282.462 270.689C282.462 270.689 282.259 272.617 284.163 272.838C284.163 272.838 283.595 273.057 283.014 273.911C282.433 274.766 281.915 275.191 281.373 275.001C281.373 275.001 281.734 274.465 281.354 273.962L281.38 273.497C281.38 273.497 280.422 272.896 280.043 273.033C279.665 273.171 279.375 274.023 279.332 274.227C279.288 274.431 279.987 276.053 280.777 276.501C281.566 276.949 286.354 275.13 287.188 274.006C288.02 272.883 287.315 269.162 284.761 268.276C284.761 268.276 285.457 267.444 285.507 266.913C285.507 266.913 286.658 266.994 287.405 266.561L288.743 261.923C288.743 261.923 284.41 260.654 283.243 259.479C282.076 258.304 279.292 258.129 278.58 258.625C278.58 258.625 278.407 258.783 278.189 258.239C277.971 257.694 277.522 256.217 275.118 255.176C275.119 255.177 273.681 254.227 272.92 255.158L272.92 255.158Z" fill="black"/>
<path d="M290.135 253.56L277.87 249.968L279.069 245.874C279.565 244.181 281.472 243.239 283.321 243.781C284.254 244.054 285.016 244.652 285.471 245.404C286.366 244.654 287.681 244.326 288.925 244.69C290.842 245.252 292.027 247.099 291.526 248.81L290.135 253.56ZM283.617 249.813L284.27 247.585C284.513 246.755 283.879 245.782 282.825 245.473C281.823 245.18 280.836 245.604 280.624 246.329L279.92 248.73L283.617 249.813ZM289.076 251.412L289.971 248.354C290.179 247.646 289.5 246.697 288.429 246.383C287.393 246.08 286.249 246.589 286.022 247.366L285.172 250.268L289.076 251.412ZM294.45 239.786C293.722 242.273 291.414 243.492 288.875 242.748C286.249 241.979 284.912 239.693 285.64 237.206C286.364 234.735 288.745 233.52 291.354 234.284C293.893 235.028 295.179 237.298 294.45 239.786ZM292.999 239.361C293.47 237.754 292.633 236.384 290.888 235.873C289.075 235.342 287.552 236.059 287.091 237.631C286.626 239.22 287.509 240.623 289.34 241.159C291.085 241.67 292.529 240.967 292.999 239.361ZM297.372 229.811C296.658 232.247 294.356 233.448 291.799 232.699C289.191 231.935 287.848 229.667 288.562 227.231C288.85 226.246 289.414 225.474 290.152 224.94L285.332 223.528L285.798 221.939L298.322 225.607L298.059 226.505L297.106 226.62C297.584 227.548 297.711 228.654 297.372 229.811ZM295.921 229.386C296.366 227.866 295.524 226.513 293.762 225.997C291.931 225.461 290.458 226.136 290.013 227.656C289.562 229.193 290.451 230.579 292.265 231.11C294.027 231.626 295.47 230.924 295.921 229.386ZM302.36 223.923L300.753 223.452L300.846 223.198C301.348 221.807 300.278 220.912 299.621 220.401L299.159 220.059L290.515 221.523L291.021 219.795L297.417 218.705L292.443 214.941L292.948 213.214L300.279 218.925L300.274 218.942L300.52 219.126C301.799 220.139 303.219 221.436 302.36 223.923ZM303.25 209.741C302.911 210.898 302.208 211.761 301.305 212.284L302.045 212.895L301.782 213.793L289.258 210.125L289.723 208.536L294.543 209.948C294.21 209.1 294.152 208.145 294.44 207.16C295.153 204.725 297.508 203.539 300.116 204.303C302.673 205.051 303.963 207.305 303.25 209.741ZM301.799 209.316C302.249 207.778 301.413 206.408 299.651 205.892C297.837 205.361 296.341 206.048 295.891 207.585C295.446 209.105 296.322 210.469 298.153 211.005C299.915 211.521 301.354 210.836 301.799 209.316ZM306.093 200.035C305.491 202.091 303.523 203.109 301.346 202.471L296.51 201.055L296.975 199.466L301.812 200.882C303.194 201.287 304.303 200.768 304.642 199.61C304.986 198.436 304.337 197.383 302.955 196.978L298.119 195.562L298.584 193.972L306.876 196.401L306.613 197.299L305.91 197.393C306.285 198.16 306.371 199.085 306.093 200.035ZM297.817 189.74C297.63 190.379 296.965 190.728 296.308 190.536C295.686 190.354 295.315 189.701 295.502 189.062C295.689 188.423 296.371 188.079 296.976 188.256C297.632 188.448 298.004 189.101 297.817 189.74ZM307.724 193.504L299.432 191.076L299.898 189.487L308.19 191.915L307.724 193.504ZM309.075 188.893L296.551 185.224L297.016 183.635L309.54 187.303L309.075 188.893ZM311.691 180.919C310.978 183.355 308.676 184.556 306.119 183.807C303.511 183.043 302.168 180.775 302.882 178.339C303.17 177.354 303.734 176.582 304.472 176.047L299.652 174.636L300.118 173.047L312.642 176.715L312.378 177.613L311.426 177.728C311.904 178.656 312.03 179.762 311.691 180.919ZM310.24 180.494C310.686 178.974 309.844 177.621 308.082 177.105C306.251 176.569 304.778 177.244 304.333 178.764C303.882 180.301 304.771 181.687 306.584 182.218C308.346 182.734 309.79 182.032 310.24 180.494ZM303.583 170.051C303.396 170.69 302.731 171.039 302.075 170.847C301.453 170.665 301.081 170.012 301.269 169.373C301.456 168.734 302.138 168.39 302.743 168.567C303.399 168.759 303.771 169.412 303.583 170.051ZM313.491 173.815L305.199 171.387L305.664 169.798L313.956 172.226L313.491 173.815ZM314.831 169.238L306.54 166.81L306.803 165.911L307.505 165.817C307.113 165.046 307.044 164.125 307.323 163.175C307.925 161.12 309.892 160.102 312.069 160.739L316.906 162.156L316.44 163.745L311.603 162.328C310.221 161.924 309.113 162.443 308.774 163.6C308.425 164.792 309.061 165.823 310.46 166.232L315.297 167.649L314.831 169.238ZM322.246 157.049C321.746 158.759 320.353 159.927 318.741 160.242L318.336 158.679C319.621 158.456 320.472 157.729 320.795 156.624C321.236 155.121 320.417 153.625 318.88 153.174L318.361 153.022C318.69 153.888 318.76 154.865 318.481 155.815C317.819 158.078 315.451 159.372 313.188 158.71C310.839 158.022 309.527 155.649 310.19 153.386C310.509 152.298 311.234 151.423 312.177 150.892L311.395 150.232L311.658 149.334L319.345 151.585C321.643 152.258 322.955 154.63 322.246 157.049ZM317.03 155.39C317.44 153.991 316.582 152.501 315.131 152.076C313.611 151.631 312.046 152.429 311.641 153.811C311.236 155.193 312.116 156.67 313.654 157.12C315.122 157.55 316.626 156.772 317.03 155.39Z" fill="black"/>
<rect x="119.688" width="115.06" height="46" rx="23" transform="rotate(9.62101 119.688 0)" fill="#AA79FF"/>
<path d="M141.26 19.9704C142.265 20.1408 143.218 19.4641 143.389 18.459C143.559 17.4539 142.882 16.501 141.877 16.3306C140.872 16.1602 139.919 16.8369 139.749 17.842C139.578 18.8471 140.255 19.8001 141.26 19.9704Z" fill="white"/>
<path d="M147.072 21.5017C146.926 21.1389 146.515 20.9523 146.152 21.0988L142.684 22.4611L136.716 17.3279C136.512 17.1503 136.234 17.1032 135.995 17.2058L132.124 18.7208C131.761 18.8673 131.575 19.2777 131.721 19.6406C131.868 20.0034 132.278 20.19 132.641 20.0435L136.109 18.6812L138.605 20.8334L137.682 20.677L134.188 26.8714L132.227 28.6193C131.629 29.155 130.958 29.5873 130.213 29.9161L127.038 31.315C126.504 31.5495 126.254 32.1832 126.486 32.7296C126.637 33.0672 126.95 33.2893 127.291 33.3472C127.494 33.3815 127.706 33.3526 127.903 33.2688L131.078 31.8699C132.019 31.4573 132.881 30.9013 133.647 30.2122L135.87 28.2227L135.037 27.5355L136.377 27.7626L140.408 28.446L137.782 30.9781C137.349 31.3857 137.339 32.06 137.746 32.4932C137.912 32.6643 138.114 32.7766 138.342 32.8151C138.658 32.8687 139.012 32.7727 139.261 32.529L143.451 28.5197C143.745 28.2445 143.856 27.8212 143.739 27.4374C143.622 27.0535 143.294 26.7639 142.889 26.6953L138.213 25.9026L140.261 22.2584L142.065 23.8123C142.168 23.8947 142.288 23.9541 142.414 23.9755C142.541 23.9969 142.674 23.9804 142.798 23.9365L146.657 22.4194C147.032 22.275 147.219 21.8646 147.072 21.5017Z" fill="white"/>
<path d="M150.716 34.6733L152.852 22.073L157.856 22.9214C159.613 23.2192 160.759 25.0748 160.425 27.0447C160.106 28.9259 158.567 30.2533 156.91 30.1185L159.128 36.0992L157.282 35.7864L155.061 29.8234L153.376 29.5376L152.455 34.9681L150.716 34.6733ZM153.646 27.9404L156.681 28.4548C157.604 28.6112 158.506 27.8147 158.686 26.7499C158.87 25.6674 158.278 24.6359 157.355 24.4795L154.32 23.9651L153.646 27.9404ZM164.688 37.3157C162.576 36.9577 161.336 35.1225 161.715 32.8864L162.557 27.9173L164.19 28.194L163.347 33.1632C163.107 34.5829 163.752 35.6234 164.941 35.8249C166.148 36.0295 167.117 35.2628 167.358 33.843L168.2 28.8739L169.833 29.1507L168.389 37.6692L167.466 37.5127L167.291 36.8257C166.573 37.2883 165.664 37.4811 164.688 37.3157ZM171.329 38.1676L172.773 29.6491L173.696 29.8056L173.872 30.4926C174.592 30.0122 175.498 29.8372 176.474 30.0026C178.586 30.3606 179.827 32.1958 179.448 34.4319L178.606 39.401L176.973 39.1243L177.815 34.1551C178.056 32.7354 177.411 31.6949 176.222 31.4934C174.997 31.2858 174.048 32.0378 173.805 33.4753L172.962 38.4444L171.329 38.1676ZM181.457 39.8844L182.901 31.3659L183.824 31.5224L184 32.2094C184.72 31.729 185.626 31.554 186.602 31.7195C188.714 32.0774 189.955 33.9126 189.576 36.1487L188.733 41.1178L187.101 40.8411L187.943 35.872C188.184 34.4522 187.539 33.4117 186.35 33.2102C185.125 33.0026 184.176 33.7546 183.932 35.1921L183.09 40.1612L181.457 39.8844ZM194.203 31.3282C193.546 31.2169 193.122 30.5973 193.236 29.9229C193.344 29.284 193.949 28.8389 194.606 28.9502C195.263 29.0615 195.684 29.6989 195.579 30.32C195.464 30.9944 194.859 31.4395 194.203 31.3282ZM191.621 41.6072L193.065 33.0888L194.697 33.3655L193.253 41.884L191.621 41.6072ZM196.323 42.4044L197.767 33.8859L198.69 34.0423L198.865 34.7293C199.586 34.249 200.492 34.0739 201.468 34.2394C203.58 34.5974 204.821 36.4326 204.441 38.6687L203.599 43.6378L201.966 43.361L202.809 38.3919C203.049 36.9722 202.404 35.9317 201.215 35.7301C199.991 35.5226 199.042 36.2745 198.798 37.712L197.956 42.6811L196.323 42.4044ZM209.295 48.3459C207.538 48.0481 206.215 46.8015 205.714 45.2377L207.219 44.653C207.591 45.9028 208.412 46.6626 209.547 46.8552C211.091 47.1169 212.482 46.1294 212.75 44.5499L212.84 44.0175C212.019 44.4443 211.057 44.6281 210.081 44.4627C207.756 44.0686 206.194 41.8685 206.588 39.5437C206.997 37.1301 209.2 35.5501 211.525 35.9442C212.643 36.1337 213.597 36.7519 214.234 37.6266L214.798 36.7729L215.721 36.9294L214.382 44.8267C213.982 47.187 211.779 48.7671 209.295 48.3459ZM210.333 42.9719C211.771 43.2156 213.15 42.1896 213.402 40.6989C213.667 39.1372 212.692 37.6756 211.272 37.4349C209.852 37.1942 208.488 38.241 208.22 39.8204C207.965 41.3289 208.914 42.7313 210.333 42.9719Z" fill="white"/>
<rect x="212.287" y="253" width="121.105" height="47.4659" rx="23.7329" transform="rotate(33.6285 212.287 253)" fill="#FCFCFC"/>
<path d="M230.756 280.773C229.753 280.055 228.359 280.277 227.649 281.268C226.94 282.259 227.179 283.65 228.183 284.369C229.186 285.087 230.58 284.865 231.289 283.873C231.998 282.882 231.76 281.491 230.756 280.773ZM224.629 277.513C224.627 277.524 224.584 277.798 224.456 278.189C224.147 279.127 223.909 280.723 224.53 282.994C224.774 283.886 224.611 284.819 224.082 285.553L223.855 285.869C222.932 287.153 221.71 288.236 220.319 289.001L214.99 291.932C214.645 292.12 214.397 292.432 214.292 292.809C214.185 293.186 214.234 293.584 214.427 293.929C214.536 294.122 214.682 294.285 214.859 294.411C215.323 294.743 215.942 294.782 216.412 294.526C216.412 294.526 220.811 291.508 223.064 289.98C223.361 289.779 223.737 289.771 224.032 290.002C224.325 290.216 224.446 290.577 224.343 290.921L222.05 298.529C221.953 299.084 222.19 299.657 222.654 299.989C222.831 300.116 223.034 300.202 223.251 300.245C224.053 300.391 224.819 299.862 224.961 299.067L226.01 293.092C226.287 291.512 226.928 289.99 227.862 288.691L227.895 288.645C228.44 287.886 229.303 287.434 230.264 287.403C232.837 287.321 234.387 286.543 235.232 285.905C235.56 285.653 235.811 285.525 235.819 285.521C236.349 285.247 236.558 284.597 236.284 284.07C236.012 283.541 235.362 283.323 234.829 283.586C234.825 283.588 234.447 283.766 233.91 284.177C233.326 284.618 232.22 285.16 230.266 285.242C229.474 285.467 228.585 285.343 227.858 284.824C227.122 284.297 226.718 283.481 226.684 282.646C226.105 280.694 226.33 279.455 226.518 278.887C226.732 278.247 226.78 277.831 226.781 277.821C226.857 277.236 226.441 276.69 225.852 276.605C225.263 276.515 224.715 276.922 224.629 277.515L224.629 277.513Z" fill="black"/>
<path d="M236.437 305.096C233.529 303.162 232.776 299.094 234.819 296.021C236.853 292.964 240.906 292.071 243.813 294.005C245.807 295.331 246.778 297.641 246.556 299.958L244.833 299.85C245.061 298.077 244.37 296.321 242.916 295.354C240.818 293.958 237.823 294.69 236.288 296.998C234.753 299.306 235.236 302.351 237.334 303.747C238.803 304.724 240.69 304.682 242.221 303.776L243.002 305.333C240.951 306.434 238.43 306.421 236.437 305.096ZM244.943 310.754C243.385 309.717 242.839 308.1 243.786 306.676C244.683 305.327 246.335 305.216 248.059 306.362L249.992 307.648L250.202 307.333C251.019 305.974 250.914 305.515 249.774 304.758C248.92 304.189 248.021 303.981 246.854 304.306L246.612 302.914C248.1 302.498 249.308 302.631 250.612 303.499C252.485 304.745 252.876 306.107 251.62 308.19L248.54 312.822L247.746 312.293L247.89 311.524C246.916 311.655 245.888 311.382 244.943 310.754ZM245.781 309.495C247.04 310.332 248.293 310.106 249.155 308.907L247.222 307.621C246.202 306.943 245.563 306.994 245.165 307.593C244.726 308.253 244.896 308.906 245.781 309.495ZM250.858 314.363L255.643 307.169L256.422 307.688L256.254 308.656C257.297 308.485 258.415 308.689 259.375 309.327C259.569 309.456 259.769 309.611 260.009 309.835L259.172 311.094C258.962 310.89 258.732 310.715 258.537 310.586C257.353 309.798 255.741 310.11 254.899 311.279L252.237 315.28L250.858 314.363ZM259.567 320.48C257.453 319.074 256.991 316.519 258.467 314.3C259.972 312.037 262.537 311.43 264.65 312.836C265.505 313.404 266.075 314.172 266.365 315.036L269.146 310.854L270.525 311.771L263.298 322.637L262.519 322.119L262.692 321.175C261.664 321.356 260.571 321.148 259.567 320.48ZM260.404 319.221C261.723 320.098 263.265 319.697 264.282 318.168C265.338 316.579 265.132 314.972 263.813 314.095C262.479 313.208 260.892 313.644 259.845 315.217C258.829 316.746 259.07 318.334 260.404 319.221ZM272.355 315.971C271.8 315.602 271.664 314.864 272.043 314.294C272.402 313.755 273.136 313.594 273.69 313.963C274.245 314.332 274.371 315.085 274.022 315.61C273.643 316.18 272.909 316.34 272.355 315.971ZM265.814 324.31L270.599 317.116L271.977 318.033L267.192 325.228L265.814 324.31ZM272.708 329.22C270.55 327.785 270.073 325.219 271.538 323.016C273.053 320.738 275.634 320.141 277.792 321.576C279.935 323.002 280.387 325.637 278.882 327.901C277.417 330.104 274.866 330.656 272.708 329.22ZM273.545 327.961C274.939 328.888 276.496 328.497 277.503 326.983C278.55 325.41 278.318 323.743 276.954 322.835C275.576 321.918 273.973 322.344 272.917 323.933C271.91 325.447 272.151 327.034 273.545 327.961Z" fill="black"/>
</svg>
