<svg width="375" height="375" viewBox="0 0 375 375" fill="none" xmlns="http://www.w3.org/2000/svg">
<path d="M72.84 259.793C72.84 259.793 103.732 298.913 156.525 300.503C209.318 302.093 256.5 269.19 295.5 243.533C334.5 217.875 347.25 174.975 327.788 139.59C308.325 104.205 273.037 116.34 230.662 91.425C188.287 66.51 180.75 53.4825 131.595 55.7175C82.44 57.9525 41.7825 110.445 43.575 169.26C45.3675 228.075 72.84 259.793 72.84 259.793Z" fill="black"/>
<path opacity="0.7" d="M72.84 259.793C72.84 259.793 103.732 298.913 156.525 300.503C209.318 302.093 256.5 269.19 295.5 243.533C334.5 217.875 347.25 174.975 327.788 139.59C308.325 104.205 273.037 116.34 230.662 91.425C188.287 66.51 180.75 53.4825 131.595 55.7175C82.44 57.9525 41.7825 110.445 43.575 169.26C45.3675 228.075 72.84 259.793 72.84 259.793Z" fill="white"/>
<path d="M109.777 71.775V216.75M158.37 71.58H61.3425C61.0157 71.5529 60.6913 71.6558 60.44 71.8665C60.1886 72.0771 60.0305 72.3784 60 72.705V216C60.0305 216.327 60.1886 216.628 60.44 216.838C60.6913 217.049 61.0157 217.152 61.3425 217.125H158.37C158.535 217.144 158.702 217.129 158.861 217.082C159.02 217.036 159.168 216.958 159.297 216.853C159.425 216.748 159.532 216.619 159.609 216.472C159.687 216.326 159.735 216.165 159.75 216V72.705C159.735 72.5398 159.687 72.3793 159.609 72.2328C159.532 72.0863 159.425 71.9569 159.297 71.8521C159.168 71.7473 159.02 71.6692 158.861 71.6225C158.702 71.5758 158.535 71.5613 158.37 71.58ZM80.19 214.882H62.6775V189H80.19V214.882ZM80.19 186.735H62.6775V151.987H80.19V186.735ZM80.19 149.737H62.6775V111.27H80.19V149.737ZM80.19 109.02H62.6775V73.83H80.19V109.02ZM82.8675 73.83H102.143V109.02H82.8675V73.83ZM82.8675 111.27H102.143V149.737H82.8675V111.27ZM82.8675 151.987H102.143V186.75H82.8675V151.987ZM82.8675 188.985H102.143V214.882H82.8675V188.985ZM135.21 214.882H117.57V189H135.21V214.882ZM135.21 186.735H117.57V151.987H135.21V186.735ZM135.21 149.737H117.57V111.27H135.21V149.737ZM135.21 109.02H117.57V73.83H135.21V109.02ZM157.027 214.882H137.895V189H157.027V214.882ZM157.027 186.735H137.895V151.987H157.027V186.735ZM157.027 149.737H137.895V111.27H157.027V149.737ZM157.027 109.02H137.895V73.83H157.027V109.02Z" stroke="#263238" stroke-miterlimit="10"/>
<path d="M294.36 198.33C294.138 197.676 293.787 197.073 293.327 196.557C292.867 196.042 292.308 195.624 291.683 195.33C290.255 194.873 288.729 194.819 287.272 195.173C284.602 195.638 282.27 196.672 279.772 197.602C279.772 197.602 280.853 197.205 285.293 199.372C286.95 200.243 288.79 200.711 290.662 200.737C292.132 200.692 294.428 200.25 294.36 198.33Z" fill="black"/>
<path d="M294.6 191.812C294.579 191.12 294.418 190.44 294.128 189.811C293.838 189.182 293.425 188.618 292.912 188.152C291.677 187.317 290.239 186.833 288.75 186.75C286.057 186.42 283.5 186.75 280.83 186.9C280.83 186.9 281.977 186.832 285.6 190.185C286.937 191.498 288.563 192.479 290.348 193.05C291.75 193.432 294.105 193.687 294.6 191.812Z" fill="black"/>
<path d="M299.19 200.43C298.66 199.983 298.225 199.434 297.912 198.816C297.599 198.197 297.413 197.522 297.367 196.83C297.481 195.334 297.999 193.898 298.867 192.675C300.285 190.365 302.138 188.587 303.915 186.57C303.915 186.57 303.165 187.425 303.518 192.345C303.716 194.21 303.474 196.095 302.812 197.85C302.205 199.23 300.96 201.21 299.19 200.43Z" fill="black"/>
<path d="M305.603 204C305.541 203.31 305.621 202.614 305.836 201.955C306.051 201.297 306.398 200.688 306.855 200.168C307.985 199.183 309.362 198.524 310.838 198.263C313.478 197.633 316.035 197.678 318.72 197.513C318.72 197.513 317.572 197.573 314.362 201.323C313.189 202.793 311.686 203.967 309.975 204.75C308.587 205.275 306.3 205.8 305.603 204Z" fill="black"/>
<path d="M305.182 195.75C304.498 195.639 303.843 195.392 303.257 195.022C302.67 194.652 302.165 194.167 301.77 193.598C301.095 192.26 300.797 190.764 300.907 189.27C300.907 186.555 301.605 184.088 302.092 181.44C302.092 181.44 301.875 182.565 304.725 186.6C305.863 188.095 306.633 189.837 306.975 191.685C307.155 193.193 307.102 195.533 305.182 195.75Z" fill="black"/>
<path d="M311.798 191.64C312.299 192.108 312.889 192.472 313.533 192.711C314.177 192.949 314.862 193.056 315.548 193.027C317.02 192.745 318.389 192.068 319.508 191.07C321.638 189.397 323.183 187.32 324.983 185.348C324.983 185.348 324.233 186.217 319.29 186.42C317.415 186.441 315.57 186.9 313.905 187.763C312.638 188.505 310.815 189.975 311.798 191.64Z" fill="black"/>
<path d="M309.885 190.028C310.575 190.08 311.269 189.993 311.925 189.771C312.581 189.55 313.185 189.198 313.702 188.737C314.673 187.595 315.316 186.211 315.563 184.733C316.17 182.093 316.095 179.527 316.238 176.842C316.238 176.842 316.185 177.99 312.488 181.245C311.04 182.436 309.892 183.948 309.135 185.663C308.573 187.058 308.07 189.345 309.885 190.028Z" fill="black"/>
<path d="M301.635 212.513L297.653 202.695L293.048 191.355" stroke="#263238" stroke-linecap="round" stroke-linejoin="round"/>
<path d="M302.557 210.825L306.54 197.175L310.838 188.745" stroke="#263238" stroke-linecap="round" stroke-linejoin="round"/>
<path d="M304.088 205.463L308.077 203.16" stroke="#263238" stroke-linecap="round" stroke-linejoin="round"/>
<path d="M306.54 197.183L304.553 192.735" stroke="#263238" stroke-linecap="round" stroke-linejoin="round"/>
<path d="M309.037 192.758L313.905 190.583" stroke="#263238" stroke-linecap="round" stroke-linejoin="round"/>
<path d="M298.418 204.54L300.105 197.79" stroke="#263238" stroke-linecap="round" stroke-linejoin="round"/>
<path d="M296.183 199.41L292.283 197.332" stroke="#263238" stroke-linecap="round" stroke-linejoin="round"/>
<path d="M305.618 217.418H298.425L296.88 209.295H307.155L305.618 217.418Z" fill="#263238" stroke="#263238" stroke-linecap="round" stroke-linejoin="round"/>
<path d="M271.537 188.033H227.003V215.835H271.537V188.033Z" fill="#263238" stroke="#263238" stroke-linecap="round" stroke-linejoin="round"/>
<path d="M270.397 188.033H225.862V215.835H270.397V188.033Z" fill="white" stroke="#263238" stroke-linecap="round" stroke-linejoin="round"/>
<path d="M268.32 190.02H227.933V214.545H268.32V190.02Z" fill="white" stroke="#263238" stroke-linecap="round" stroke-linejoin="round"/>
<path d="M232.035 203.527V190.087" stroke="#263238" stroke-width="0.5" stroke-miterlimit="10"/>
<path d="M239.565 203.527V190.087" stroke="#263238" stroke-width="0.5" stroke-miterlimit="10"/>
<path d="M247.103 203.527V190.087" stroke="#263238" stroke-width="0.5" stroke-miterlimit="10"/>
<path d="M254.64 203.527V190.087" stroke="#263238" stroke-width="0.5" stroke-miterlimit="10"/>
<path d="M262.17 203.527V190.087" stroke="#263238" stroke-width="0.5" stroke-miterlimit="10"/>
<path d="M227.963 196.5H268.185" stroke="#263238" stroke-width="0.5" stroke-miterlimit="10"/>
<path d="M227.588 203.393H268.268" stroke="#263238" stroke-width="0.5" stroke-miterlimit="10"/>
<path d="M247.223 211.77C249.252 211.77 250.897 210.266 250.897 208.41C250.897 206.554 249.252 205.05 247.223 205.05C245.193 205.05 243.548 206.554 243.548 208.41C243.548 210.266 245.193 211.77 247.223 211.77Z" fill="black" stroke="#263238" stroke-width="0.5" stroke-miterlimit="10"/>
<path d="M245.52 204.54C244.915 204.304 244.243 204.304 243.638 204.54C242.558 204.915 242.055 206.7 242.077 207C242.1 207.3 243.008 211.215 243.008 211.215C243.008 211.215 241.98 211.868 241.928 212.07C241.875 212.273 243.51 211.77 243.66 211.545C243.81 211.32 243.787 206.925 243.787 206.925C244.364 206.994 244.948 206.976 245.52 206.872C245.799 206.745 246.068 206.594 246.322 206.423L247.95 206.475C248.347 206.733 248.761 206.966 249.188 207.173C249.447 207.27 249.716 207.338 249.99 207.375L250.215 210.563C250.215 210.99 250.418 212.063 250.418 212.063C250.872 212.18 251.333 212.273 251.798 212.34C252.045 212.34 250.867 211.463 250.867 211.463C250.867 211.463 251.67 207.195 251.617 206.662C251.615 206.448 251.567 206.237 251.477 206.043C251.386 205.849 251.255 205.677 251.093 205.537C250.648 205.224 250.133 205.025 249.593 204.96H249C248.412 205.134 247.788 205.15 247.192 205.005C246.809 204.807 246.404 204.656 245.985 204.555L245.52 204.54Z" fill="white" stroke="#263238" stroke-width="0.5" stroke-miterlimit="10"/>
<path d="M251.092 205.5C250.648 205.186 250.133 204.988 249.592 204.923H249C248.412 205.097 247.788 205.112 247.192 204.968C246.809 204.77 246.404 204.619 245.985 204.518H245.535C244.93 204.281 244.258 204.281 243.652 204.518C242.572 204.893 242.07 206.678 242.092 206.978C242.092 207.038 242.137 207.233 242.197 207.503H243.802V206.903C244.379 206.972 244.963 206.954 245.535 206.85C245.814 206.722 246.083 206.572 246.337 206.4L247.965 206.453C248.362 206.711 248.776 206.944 249.202 207.15C249.462 207.247 249.731 207.315 250.005 207.353V207.503H251.55C251.597 207.22 251.622 206.934 251.625 206.648C251.625 206.429 251.578 206.213 251.486 206.015C251.394 205.817 251.259 205.641 251.092 205.5Z" fill="#263238" stroke="#263238" stroke-width="0.5" stroke-miterlimit="10"/>
<path d="M243.66 211.5C243.684 211.44 243.697 211.377 243.697 211.312L243.457 211.372L243.008 211.17C243.008 211.17 241.98 211.823 241.928 212.025C241.875 212.228 243.51 211.748 243.66 211.5Z" fill="white" stroke="#263238" stroke-width="0.5" stroke-miterlimit="10"/>
<path d="M250.867 211.447L250.643 211.62L250.335 211.53L250.418 212.048C250.872 212.165 251.333 212.258 251.798 212.325C252.045 212.325 250.867 211.447 250.867 211.447Z" fill="white" stroke="#263238" stroke-width="0.5" stroke-miterlimit="10"/>
<path d="M248.857 198.615L248.558 198.09C248.558 198.09 248.407 197.49 248.332 197.258C248.257 197.025 248.183 196.86 248.183 196.86L249.435 194.4L252.803 194.775C252.904 194.928 253.02 195.071 253.147 195.202C253.35 195.327 253.57 195.42 253.8 195.48C253.875 195.48 253.553 195.105 253.553 195.105C253.73 195.21 253.916 195.3 254.107 195.375C254.182 195.375 254.28 195.63 254.355 195.63C254.43 195.63 254.257 195.127 254.152 194.977C253.715 194.66 253.245 194.391 252.75 194.175C252.473 194.047 249.21 192.87 249 193.02C248.79 193.17 247.44 196.207 247.088 196.912C246.773 197.584 246.578 198.304 246.51 199.043C246.51 199.395 246.135 201.78 246.135 202.133C246.135 202.485 246.06 203.332 246.06 203.332L245.535 204.54C246.072 204.909 246.664 205.191 247.29 205.372C247.949 205.357 248.599 205.212 249.202 204.945L249 203.835L250.732 201.48C250.732 201.48 252.232 203.16 252.465 203.16C252.697 203.16 252.862 203.16 252.765 202.582C252.411 201.747 251.947 200.963 251.385 200.25C250.94 199.942 250.459 199.69 249.952 199.5L248.947 198.878L248.857 198.615Z" fill="white" stroke="#263238" stroke-width="0.5" stroke-miterlimit="10"/>
<path d="M249.982 199.5H249.938L248.933 198.878L248.857 198.622L248.588 198.15C248.168 198.465 247.163 199.215 246.428 199.702C246.323 200.542 246.12 201.885 246.12 202.14C246.12 202.395 246.045 203.34 246.045 203.34L245.52 204.548C246.057 204.917 246.649 205.198 247.275 205.38C247.934 205.365 248.584 205.219 249.188 204.952L248.985 203.843L250.372 201.96C250.089 201.172 249.957 200.337 249.982 199.5Z" fill="black" stroke="#263238" stroke-width="0.5" stroke-miterlimit="10"/>
<path d="M249 198C248.922 198.262 248.789 198.505 248.61 198.713C248.537 198.788 248.481 198.878 248.445 198.976C248.409 199.075 248.394 199.18 248.401 199.284C248.408 199.389 248.437 199.491 248.486 199.583C248.535 199.676 248.603 199.758 248.685 199.823C249.09 200.048 249.435 199.665 249.592 199.493C249.806 199.136 249.999 198.768 250.17 198.39L249.165 197.783L249 198Z" fill="white" stroke="#263238" stroke-width="0.5" stroke-miterlimit="10"/>
<path d="M249.532 196.08C249.532 196.08 249.637 195.705 249.285 196.005C248.932 196.305 249.015 196.59 249.157 196.665C249.3 196.74 249.532 196.08 249.532 196.08Z" fill="white" stroke="#263238" stroke-width="0.5" stroke-miterlimit="10"/>
<path d="M251.468 197.25C251.468 197.25 251.775 197.017 251.633 197.452C251.49 197.887 251.19 197.933 251.07 197.82C250.95 197.708 251.468 197.25 251.468 197.25Z" fill="white" stroke="#263238" stroke-width="0.5" stroke-miterlimit="10"/>
<path d="M249.99 195.375C249.99 195.375 249.442 196.163 249.157 196.665C249.025 196.858 248.942 197.081 248.914 197.313C248.887 197.546 248.916 197.781 249 198C249.077 198.174 249.199 198.325 249.353 198.437C249.507 198.549 249.688 198.618 249.878 198.638C250.38 198.735 250.852 198.233 250.92 198.165C250.987 198.098 251.707 197.018 251.895 196.665C251.967 196.446 251.976 196.211 251.922 195.987C251.867 195.764 251.752 195.559 251.587 195.398C251.492 195.278 251.371 195.182 251.234 195.115C251.097 195.047 250.947 195.012 250.794 195.009C250.641 195.007 250.49 195.039 250.351 195.102C250.212 195.165 250.089 195.259 249.99 195.375Z" fill="white" stroke="#263238" stroke-width="0.5" stroke-miterlimit="10"/>
<path d="M251.558 195.397C251.46 195.285 251.34 195.194 251.205 195.133C251.07 195.071 250.923 195.038 250.774 195.038C250.625 195.038 250.478 195.071 250.343 195.133C250.207 195.194 250.087 195.285 249.99 195.397C249.99 195.397 249.75 195.75 249.503 196.147V196.215L249.675 196.32C249.883 196.131 250.06 195.911 250.2 195.668C250.328 195.39 250.477 195.112 250.755 195.367C251.032 195.622 250.853 195.99 251.28 196.117C251.708 196.245 252.082 196.29 251.835 196.515C251.587 196.74 251.535 196.74 251.46 196.973C251.371 197.165 251.252 197.343 251.107 197.497L251.31 197.617C251.535 197.287 251.782 196.867 251.88 196.725C251.962 196.496 251.976 196.249 251.919 196.013C251.861 195.777 251.736 195.563 251.558 195.397Z" fill="#263238" stroke="#263238" stroke-width="0.5" stroke-miterlimit="10"/>
<path d="M252.12 202.68L250.62 204.817C250.307 204.735 249.983 204.702 249.66 204.72C249.435 204.795 249.165 204.893 249.263 204.945C249.664 205.102 250.075 205.235 250.492 205.343C250.621 205.326 250.747 205.294 250.867 205.245C250.867 205.245 252.878 203.438 253.028 203.16C253.178 202.883 252.353 201.855 252.353 201.855" fill="white"/>
<path d="M252.12 202.68L250.62 204.817C250.307 204.735 249.983 204.702 249.66 204.72C249.435 204.795 249.165 204.893 249.263 204.945C249.664 205.102 250.075 205.235 250.492 205.343C250.621 205.326 250.747 205.294 250.867 205.245C250.867 205.245 252.878 203.438 253.028 203.16C253.178 202.883 252.353 201.855 252.353 201.855" stroke="#263238" stroke-width="0.5" stroke-miterlimit="10"/>
<path d="M271.89 215.842H205.763V218.04H271.89V215.842Z" fill="white" stroke="#263238" stroke-linecap="round" stroke-linejoin="round"/>
<path d="M271.89 215.842H248.228V218.04H271.89V215.842Z" fill="#263238" stroke="#263238" stroke-linecap="round" stroke-linejoin="round"/>
<path d="M248.618 189.038C248.617 189.136 248.588 189.232 248.534 189.313C248.479 189.395 248.401 189.458 248.31 189.496C248.219 189.533 248.119 189.542 248.023 189.522C247.927 189.503 247.839 189.455 247.77 189.385C247.701 189.315 247.654 189.226 247.636 189.129C247.618 189.033 247.629 188.933 247.667 188.843C247.706 188.753 247.771 188.676 247.853 188.622C247.935 188.569 248.032 188.541 248.13 188.543C248.195 188.542 248.259 188.555 248.318 188.58C248.378 188.605 248.432 188.642 248.477 188.688C248.523 188.734 248.559 188.789 248.583 188.849C248.607 188.909 248.618 188.973 248.618 189.038Z" fill="#263238"/>
<path d="M240.277 89.7825H198.442V145.748H240.277V89.7825Z" stroke="#263238" stroke-miterlimit="10"/>
<path d="M232.673 99.9525H206.048V135.563H232.673V99.9525Z" stroke="#263238" stroke-miterlimit="10"/>
<path d="M302.76 126.038H268.53V171.825H302.76V126.038Z" stroke="#263238" stroke-miterlimit="10"/>
<path d="M296.535 134.362H274.755V163.5H296.535V134.362Z" stroke="#263238" stroke-miterlimit="10"/>
<path d="M317.535 218.902L338.775 298.545H317.28L317.535 218.902Z" fill="black"/>
<path opacity="0.5" d="M317.535 218.902L338.775 298.545H317.28L317.535 218.902Z" fill="white"/>
<path d="M317.28 217.935H131.783V298.5H317.28V217.935Z" fill="#263238" stroke="#263238" stroke-linecap="round" stroke-linejoin="round"/>
<path d="M297.968 217.935H112.47V298.5H297.968V217.935Z" fill="white" stroke="#263238" stroke-linecap="round" stroke-linejoin="round"/>
<path d="M293.97 220.935H116.467V295.5H293.97V220.935Z" fill="#BFBFBF" stroke="#263238" stroke-linecap="round" stroke-linejoin="round"/>
<path d="M250.845 220.935H246.848V256.935H250.845V220.935Z" fill="white" stroke="#263238" stroke-linecap="round" stroke-linejoin="round"/>
<path d="M207.72 220.935H203.723V256.935H207.72V220.935Z" fill="white" stroke="#263238" stroke-linecap="round" stroke-linejoin="round"/>
<path d="M226.628 220.935H207.54V256.935H226.628V220.935Z" fill="#263238" stroke="#263238" stroke-linecap="round" stroke-linejoin="round"/>
<path d="M204.443 259.29H185.355V295.29H204.443V259.29Z" fill="#263238" stroke="#263238" stroke-linecap="round" stroke-linejoin="round"/>
<path d="M135.57 259.29H116.482V295.29H135.57V259.29Z" fill="#263238" stroke="#263238" stroke-linecap="round" stroke-linejoin="round"/>
<path d="M256.62 259.29H237.532V295.29H256.62V259.29Z" fill="#263238" stroke="#263238" stroke-linecap="round" stroke-linejoin="round"/>
<path d="M179.362 220.935H160.275V256.935H179.362V220.935Z" fill="#263238" stroke="#263238" stroke-linecap="round" stroke-linejoin="round"/>
<path d="M135.57 220.935H116.482V256.935H135.57V220.935Z" fill="#263238" stroke="#263238" stroke-linecap="round" stroke-linejoin="round"/>
<path d="M269.888 220.935H250.8V256.935H269.888V220.935Z" fill="#263238" stroke="#263238" stroke-linecap="round" stroke-linejoin="round"/>
<path d="M160.095 220.935H156.098V256.935H160.095V220.935Z" fill="white" stroke="#263238" stroke-linecap="round" stroke-linejoin="round"/>
<path d="M185.22 259.432H181.223V295.432H185.22V259.432Z" fill="white" stroke="#263238" stroke-linecap="round" stroke-linejoin="round"/>
<path d="M237.532 259.432H233.535V295.432H237.532V259.432Z" fill="white" stroke="#263238" stroke-linecap="round" stroke-linejoin="round"/>
<path d="M293.97 256.365H116.542V259.463H293.97V256.365Z" fill="white" stroke="#263238" stroke-linecap="round" stroke-linejoin="round"/>
<path d="M279.96 283.598C280.921 283.598 281.7 282.818 281.7 281.857C281.7 280.897 280.921 280.117 279.96 280.117C278.999 280.117 278.22 280.897 278.22 281.857C278.22 282.818 278.999 283.598 279.96 283.598Z" fill="#263238" stroke="#263238" stroke-linecap="round" stroke-linejoin="round"/>
<path d="M289.83 295.5C290.51 294.296 290.869 292.938 290.872 291.555C290.841 290.13 290.466 288.735 289.779 287.486C289.092 286.238 288.114 285.174 286.928 284.385H273C271.811 285.172 270.831 286.235 270.142 287.484C269.454 288.733 269.078 290.13 269.048 291.555C269.055 292.937 269.414 294.295 270.09 295.5H289.83Z" fill="white" stroke="#263238" stroke-miterlimit="10"/>
<path d="M287.955 282.39H271.965C271.609 282.39 271.32 282.679 271.32 283.035V283.62C271.32 283.976 271.609 284.265 271.965 284.265H287.955C288.311 284.265 288.6 283.976 288.6 283.62V283.035C288.6 282.679 288.311 282.39 287.955 282.39Z" fill="#263238" stroke="#263238" stroke-linecap="round" stroke-linejoin="round"/>
<path d="M259.59 283.875C259.59 283.578 259.502 283.288 259.337 283.042C259.172 282.795 258.938 282.603 258.664 282.489C258.39 282.376 258.088 282.346 257.797 282.404C257.506 282.462 257.239 282.605 257.029 282.814C256.82 283.024 256.677 283.291 256.619 283.582C256.561 283.873 256.591 284.175 256.704 284.449C256.818 284.723 257.01 284.957 257.257 285.122C257.503 285.287 257.793 285.375 258.09 285.375C258.488 285.375 258.869 285.217 259.151 284.936C259.432 284.654 259.59 284.273 259.59 283.875Z" fill="#263238" stroke="#263238" stroke-linecap="round" stroke-linejoin="round"/>
<path d="M266.52 295.5C267.102 294.473 267.41 293.313 267.412 292.133C267.387 290.918 267.068 289.728 266.481 288.665C265.895 287.601 265.059 286.696 264.045 286.027H252.173C251.159 286.696 250.323 287.601 249.736 288.665C249.15 289.728 248.83 290.918 248.805 292.133C248.808 293.313 249.115 294.473 249.698 295.5H266.52Z" fill="white" stroke="#263238" stroke-miterlimit="10"/>
<path d="M264.825 284.332H251.393C251.036 284.332 250.747 284.621 250.747 284.978V285.285C250.747 285.641 251.036 285.93 251.393 285.93H264.825C265.181 285.93 265.47 285.641 265.47 285.285V284.978C265.47 284.621 265.181 284.332 264.825 284.332Z" fill="#263238" stroke="#263238" stroke-linecap="round" stroke-linejoin="round"/>
<path d="M283.965 247.147L285.037 247.68C285.411 247.878 285.77 248.104 286.11 248.355C286.11 248.355 286.778 249.293 287.445 249.293C288.113 249.293 288.383 248.887 288.383 248.22C288.383 247.552 287.31 245.97 287.183 245.543C287.055 245.115 286.507 242.595 285.975 242.325C285.367 242.091 284.74 241.913 284.1 241.793V239.918C282.766 239.815 281.43 240.071 280.228 240.659C279.027 241.248 278.005 242.146 277.268 243.263C275.583 245.633 274.864 248.556 275.258 251.437C275.393 252.637 276.195 255.99 276.195 255.99H286.5C286.5 255.99 286.77 254.647 285.428 251.97C284.085 249.292 283.965 249.69 283.965 247.147Z" fill="white" stroke="#263238" stroke-linecap="round" stroke-linejoin="round"/>
<path d="M284.1 241.793C281.997 242.16 280.095 243.271 278.742 244.923C277.389 246.575 276.674 248.658 276.728 250.793" stroke="#263238" stroke-linecap="round" stroke-linejoin="round"/>
<path d="M217.815 267.322H215.678L214.867 273.022L213.142 274.853C212.263 275.783 211.62 276.911 211.265 278.141C210.91 279.372 210.854 280.669 211.102 281.925L213.727 295.253H219.142L222.397 282.442C222.711 281.202 222.725 279.905 222.438 278.658C222.151 277.412 221.572 276.251 220.747 275.272L218.857 273.022L217.815 267.322Z" fill="white" stroke="#263238" stroke-linecap="round" stroke-linejoin="round"/>
<path d="M329.963 298.867H46.26" stroke="#263238" stroke-miterlimit="10"/>
<path d="M344.55 298.867H337.508" stroke="#263238" stroke-miterlimit="10"/>
<path d="M141.195 324.052C170.07 324.052 193.478 319.583 193.478 314.07C193.478 308.557 170.07 304.087 141.195 304.087C112.32 304.087 88.9125 308.557 88.9125 314.07C88.9125 319.583 112.32 324.052 141.195 324.052Z" fill="black"/>
<path opacity="0.5" d="M141.195 324.052C170.07 324.052 193.478 319.583 193.478 314.07C193.478 308.557 170.07 304.087 141.195 304.087C112.32 304.087 88.9125 308.557 88.9125 314.07C88.9125 319.583 112.32 324.052 141.195 324.052Z" fill="white"/>
<path d="M102.75 222.75C102.75 222.75 94.5375 223.245 92.565 229.98C91.425 233.88 92.04 238.485 92.46 242.452C92.9325 246.952 93.21 252.69 95.0475 256.897C95.9775 259.042 98.3775 260.842 100.41 259.147C102.945 257.04 103.522 251.97 104.062 249.022C107.002 232.912 108.157 221.25 102.75 222.75Z" fill="white" stroke="#263238" stroke-linecap="round" stroke-linejoin="round"/>
<path d="M102.75 222.75C102.75 222.75 94.5375 223.245 92.565 229.98C91.425 233.88 92.04 238.485 92.46 242.452C92.46 242.872 92.5425 243.315 92.5875 243.757C96.5883 244.791 100.746 245.076 104.85 244.597C107.16 230.827 107.64 221.392 102.75 222.75Z" fill="#263238" stroke="#263238" stroke-linecap="round" stroke-linejoin="round"/>
<path d="M162.75 296.94C164.415 298.633 166.342 300.046 168.458 301.125C172.208 303.105 175.252 303.045 175.357 305.28C175.462 307.515 173.257 309.487 168.15 310.207C163.042 310.927 162.975 312.457 158.708 312.532C154.44 312.607 151.553 310.688 152.37 307.507C153.188 304.327 154.898 297.128 154.898 297.128C154.898 297.128 160.148 303.75 162.75 296.94Z" fill="white" stroke="#263238" stroke-linecap="round" stroke-linejoin="round"/>
<path d="M162 243.585C162 243.585 160.853 256.725 160.193 262.643C159.533 268.56 154.605 299.925 155.1 302.228C155.595 304.53 158.22 305.978 160.35 304.522C162.48 303.067 163.305 302.393 163.635 300.42C163.965 298.447 163.14 296.805 163.14 294.668C163.14 292.53 175.95 254.43 177.757 245.393C179.565 236.355 178.418 231.435 176.445 229.643C174.472 227.85 169.215 227.018 166.26 228.143" fill="#263238"/>
<path d="M162 243.585C162 243.585 160.853 256.725 160.193 262.643C159.533 268.56 154.605 299.925 155.1 302.228C155.595 304.53 158.22 305.977 160.35 304.522C162.48 303.067 163.305 302.392 163.635 300.42C163.965 298.447 163.14 296.805 163.14 294.668C163.14 292.53 175.95 254.43 177.758 245.393C179.565 236.355 178.418 231.435 176.445 229.643C174.473 227.85 169.215 227.018 166.26 228.143" stroke="#263238" stroke-linecap="round" stroke-linejoin="round"/>
<path d="M161.138 253.425C160.823 256.785 160.485 260.287 160.223 262.642C159.563 268.552 154.635 299.925 155.13 302.227C155.625 304.53 158.25 305.977 160.38 304.522C162.51 303.067 163.335 302.392 163.665 300.42C163.979 298.688 164.125 296.93 164.1 295.17C164.1 293.422 171.75 267.097 175.86 252.817C169.14 255.525 163.868 254.437 161.138 253.425Z" fill="white"/>
<mask id="mask0_257_9047" style="mask-type:luminance" maskUnits="userSpaceOnUse" x="155" y="252" width="21" height="54">
<path d="M161.138 253.425C160.823 256.785 160.485 260.287 160.223 262.642C159.563 268.552 154.635 299.925 155.13 302.227C155.625 304.53 158.25 305.977 160.38 304.522C162.51 303.067 163.335 302.392 163.665 300.42C163.979 298.688 164.125 296.93 164.1 295.17C164.1 293.422 171.75 267.097 175.86 252.817C169.14 255.525 163.868 254.437 161.138 253.425Z" fill="white"/>
</mask>
<g mask="url(#mask0_257_9047)">
<path opacity="0.18" d="M161.138 253.425C160.823 256.785 160.485 260.287 160.223 262.642C159.563 268.552 154.635 299.925 155.13 302.227C155.625 304.53 158.25 305.977 160.38 304.522C162.51 303.067 163.335 302.392 163.665 300.42C163.979 298.688 164.125 296.93 164.1 295.17C164.1 293.422 171.75 267.097 175.86 252.817C169.14 255.525 163.868 254.437 161.138 253.425Z" fill="black"/>
</g>
<path d="M161.138 253.425C160.823 256.785 160.485 260.287 160.223 262.642C159.563 268.552 154.635 299.925 155.13 302.227C155.625 304.53 158.25 305.977 160.38 304.522C162.51 303.067 163.335 302.392 163.665 300.42C163.979 298.688 164.125 296.93 164.1 295.17C164.1 293.422 171.75 267.097 175.86 252.817C169.14 255.525 163.868 254.437 161.138 253.425Z" stroke="#263238" stroke-linecap="round" stroke-linejoin="round"/>
<path d="M166.223 282.427C166.223 308.408 146.573 321.187 122.348 321.187C98.1225 321.187 78.4725 308.438 78.4725 282.427C78.4725 256.417 98.115 239.932 122.348 239.932C146.58 239.932 166.223 256.447 166.223 282.427Z" fill="black"/>
<mask id="mask1_257_9047" style="mask-type:luminance" maskUnits="userSpaceOnUse" x="78" y="239" width="89" height="83">
<path d="M166.223 282.427C166.223 308.408 146.573 321.187 122.348 321.187C98.1225 321.187 78.4725 308.438 78.4725 282.427C78.4725 256.417 98.115 239.932 122.348 239.932C146.58 239.932 166.223 256.447 166.223 282.427Z" fill="white"/>
</mask>
<g mask="url(#mask1_257_9047)">
<path opacity="0.18" d="M122.348 239.932C110.805 239.932 100.32 243.682 92.4825 250.432C95.7375 254.302 102.375 259.26 115.882 262.575C140.955 268.725 154.432 276.937 156.57 294.742C158.422 310.162 141.458 318.743 118.147 321.075C119.527 321.157 120.93 321.21 122.348 321.21C146.573 321.21 166.223 308.46 166.223 282.45C166.223 256.44 146.573 239.932 122.348 239.932Z" fill="black"/>
</g>
<path d="M166.223 282.427C166.223 308.407 146.573 321.187 122.348 321.187C98.1225 321.187 78.4725 308.437 78.4725 282.427C78.4725 256.417 98.115 239.932 122.348 239.932C146.58 239.932 166.223 256.447 166.223 282.427Z" stroke="#263238" stroke-linecap="round" stroke-linejoin="round"/>
<path d="M172.89 228.937C170.378 227.662 166.425 228.022 162.683 228.48C155.933 229.298 146.587 228.645 146.587 228.645C146.587 228.645 147.083 212.22 147.083 211.395C147.083 210.57 165.315 198.09 165.315 198.09C165.315 198.09 177.315 230.287 180.097 231.6C182.88 232.912 186.668 234.225 185.347 224.7C184.028 215.175 178.282 200.062 175.98 193.822C173.678 187.582 165.803 182.325 161.857 176.737C157.912 171.15 157.59 169.672 158.107 167.542C158.625 165.412 163.2 162.292 163.2 162.292L154.5 155.055C154.5 155.055 153 159.66 148.92 160.972C144.84 162.285 142.02 155.88 141.203 150.622C140.385 145.365 150.728 121.057 150.728 121.057L191.25 117.442C191.25 117.442 190.267 119.745 191.58 121.553C192.892 123.36 195.195 127.297 195.683 127.792C196.17 128.287 196.673 128.94 197.325 128.61C197.978 128.28 195.825 123.848 195.825 123.848C195.825 123.848 202.725 130.418 203.872 131.243C205.02 132.068 207.487 133.537 207.487 132.885C207.487 132.232 204.367 129.435 203.055 127.635C201.742 125.835 196.815 118.44 195.173 115.808C193.53 113.175 189.585 112.852 188.422 112.852C187.26 112.852 148.012 109.897 147.172 110.715C146.332 111.532 132.96 136.17 130.987 143.25C129.015 150.33 127.042 156.39 126.877 163.447C126.712 170.505 121.628 180.532 120.803 188.085C119.978 195.637 113.25 205.005 110.303 209.602C107.355 214.2 102.053 217.32 100.125 227.017C98.1975 236.715 100.778 243.93 105.87 247.05C110.963 250.17 133.957 250.5 140.197 250.335C144.697 250.222 160.118 247.297 168.99 242.437" fill="white"/>
<mask id="mask2_257_9047" style="mask-type:luminance" maskUnits="userSpaceOnUse" x="99" y="110" width="109" height="141">
<path d="M172.89 228.937C170.378 227.662 166.425 228.022 162.683 228.48C155.933 229.298 146.587 228.645 146.587 228.645C146.587 228.645 147.083 212.22 147.083 211.395C147.083 210.57 165.315 198.09 165.315 198.09C165.315 198.09 177.315 230.287 180.097 231.6C182.88 232.912 186.668 234.225 185.347 224.7C184.028 215.175 178.282 200.062 175.98 193.822C173.678 187.582 165.803 182.325 161.857 176.737C157.912 171.15 157.59 169.672 158.107 167.542C158.625 165.412 163.2 162.292 163.2 162.292L154.5 155.055C154.5 155.055 153 159.66 148.92 160.972C144.84 162.285 142.02 155.88 141.203 150.622C140.385 145.365 150.728 121.057 150.728 121.057L191.25 117.442C191.25 117.442 190.267 119.745 191.58 121.553C192.892 123.36 195.195 127.297 195.683 127.792C196.17 128.287 196.673 128.94 197.325 128.61C197.978 128.28 195.825 123.848 195.825 123.848C195.825 123.848 202.725 130.418 203.872 131.243C205.02 132.068 207.487 133.537 207.487 132.885C207.487 132.232 204.367 129.435 203.055 127.635C201.742 125.835 196.815 118.44 195.173 115.808C193.53 113.175 189.585 112.852 188.422 112.852C187.26 112.852 148.012 109.897 147.172 110.715C146.332 111.532 132.96 136.17 130.987 143.25C129.015 150.33 127.042 156.39 126.877 163.447C126.712 170.505 121.628 180.532 120.803 188.085C119.978 195.637 113.25 205.005 110.303 209.602C107.355 214.2 102.053 217.32 100.125 227.017C98.1975 236.715 100.778 243.93 105.87 247.05C110.963 250.17 133.957 250.5 140.197 250.335C144.697 250.222 160.118 247.297 168.99 242.437" fill="white"/>
</mask>
<g mask="url(#mask2_257_9047)">
<g opacity="0.18">
<path d="M203.093 127.628C201.78 125.82 196.852 118.432 195.21 115.8C194.655 114.952 193.876 114.275 192.96 113.842C192.96 114.315 192.345 114.803 189.877 114.803C185.1 114.803 148.68 117.007 148.68 117.007C148.68 117.007 135.75 147.908 136.5 152.325C137.25 156.743 139.807 162.255 142.755 162.255C144.062 162.082 145.3 161.565 146.34 160.755C143.632 159.45 141.84 154.673 141.165 150.585C140.34 145.335 150.69 121.02 150.69 121.02L191.25 117.443C191.25 117.443 190.267 119.745 191.58 121.553C192.892 123.36 195.195 127.298 195.682 127.793C196.17 128.288 196.673 128.94 197.325 128.61C197.977 128.28 195.825 123.848 195.825 123.848C195.825 123.848 202.725 130.418 203.872 131.243C205.02 132.068 207.487 133.537 207.487 132.885C207.487 132.232 204.405 129.435 203.093 127.628Z" fill="black"/>
<path d="M175.987 193.822C173.692 187.582 165.81 182.325 161.865 176.737C157.92 171.15 157.598 169.672 158.115 167.542C158.633 165.412 163.207 162.292 163.207 162.292L160.372 159.938C157.275 162.938 154.192 166.14 153.825 167.783C153.075 171.09 155.662 175.875 159.712 181.02C163.762 186.165 168.54 190.59 171.847 195.735C174.262 199.485 180.787 220.485 184.432 232.125C185.467 231.375 186.015 229.275 185.385 224.707C184.035 215.175 178.29 200.062 175.987 193.822Z" fill="black"/>
<path d="M159.315 196.83C156.735 198.33 143.865 210.075 142.388 213.015C140.91 215.955 146.587 228.645 146.587 228.645C146.587 228.645 147.082 212.22 147.082 211.395C147.082 210.57 165.315 198.09 165.315 198.09C165.315 198.09 161.887 195.36 159.315 196.83Z" fill="black"/>
</g>
</g>
<path d="M172.89 228.937C170.378 227.662 166.425 228.022 162.683 228.48C155.933 229.297 146.587 228.645 146.587 228.645C146.587 228.645 147.083 212.22 147.083 211.395C147.083 210.57 165.315 198.09 165.315 198.09C165.315 198.09 177.315 230.287 180.098 231.6C182.88 232.912 186.668 234.225 185.348 224.7C184.028 215.175 178.282 200.062 175.98 193.822C173.677 187.582 165.802 182.325 161.857 176.737C157.912 171.15 157.59 169.672 158.107 167.542C158.625 165.412 163.2 162.292 163.2 162.292L154.5 155.055C154.5 155.055 153 159.66 148.92 160.972C144.84 162.285 142.02 155.88 141.203 150.622C140.385 145.365 150.728 121.058 150.728 121.058L191.25 117.442C191.25 117.442 190.268 119.745 191.58 121.553C192.893 123.36 195.195 127.297 195.683 127.792C196.17 128.287 196.673 128.94 197.325 128.61C197.978 128.28 195.825 123.848 195.825 123.848C195.825 123.848 202.725 130.418 203.872 131.243C205.02 132.068 207.487 133.537 207.487 132.885C207.487 132.232 204.367 129.435 203.055 127.635C201.742 125.835 196.815 118.44 195.173 115.808C193.53 113.175 189.585 112.852 188.422 112.852C187.26 112.852 148.012 109.897 147.172 110.715C146.332 111.532 132.96 136.17 130.987 143.25C129.015 150.33 127.042 156.39 126.877 163.447C126.712 170.505 121.628 180.532 120.803 188.085C119.978 195.637 113.25 205.005 110.303 209.602C107.355 214.2 102.053 217.32 100.125 227.017C98.1975 236.715 100.778 243.93 105.87 247.05C110.963 250.17 133.957 250.5 140.197 250.335C144.697 250.222 160.118 247.297 168.99 242.437" stroke="#263238" stroke-linecap="round" stroke-linejoin="round"/>
<path d="M140.182 250.32C144.682 250.208 160.102 247.283 168.975 242.423L172.89 228.923C170.377 227.647 166.425 228.007 162.682 228.465C155.932 229.282 146.587 228.63 146.587 228.63C146.587 228.63 146.872 219.097 147.015 214.192L118.785 195.022C116.34 200.707 112.38 206.325 110.288 209.572C107.333 214.17 102.037 217.29 100.11 226.987C98.1825 236.685 100.762 243.9 105.855 247.02C110.947 250.14 133.943 250.5 140.182 250.32Z" fill="#263238" stroke="#263238" stroke-linecap="round" stroke-linejoin="round"/>
<path d="M146.587 228.645C146.587 228.645 147.083 212.22 147.083 211.395C147.083 211.125 149.018 209.625 151.583 207.72C149.647 203.505 147.345 196.575 149.67 190.868C152.497 183.923 159.548 179.295 162.48 177.615C162.255 177.325 162.038 177.032 161.828 176.737C161.31 175.987 160.86 175.35 160.462 174.75C155.52 175.987 144.472 178.147 144.09 172.8C143.797 168.765 145.358 164.13 146.708 160.957C145.709 160.553 144.852 159.862 144.248 158.97C139.253 167.22 129.023 173.61 123.743 176.513C122.445 180.533 121.148 184.567 120.743 188.07C119.918 195.63 113.19 204.99 110.243 209.588C107.79 213.405 103.763 216.218 101.333 222.593C107.513 231.045 114.195 232.935 128.64 233.242C137.64 233.43 144.053 230.872 147.803 228.742L146.587 228.645Z" fill="#808080" stroke="#263238" stroke-linecap="round" stroke-linejoin="round"/>
<path d="M140.25 195C140.213 197.393 140.586 199.775 141.352 202.043" stroke="#263238" stroke-linecap="round" stroke-linejoin="round"/>
<path d="M140.663 189.307C140.663 189.307 140.543 189.945 140.43 190.995" stroke="#263238" stroke-linecap="round" stroke-linejoin="round"/>
<path d="M172.575 131.46C169.423 132.026 166.503 133.492 164.168 135.682C161.295 138.322 157.088 142.867 155.168 148.32C152.048 157.027 153.855 162.945 159.278 163.762C164.7 164.58 173.235 160.012 178.988 152.43C184.74 144.847 183.915 137.152 179.805 133.05C177.885 131.167 175.073 131.04 172.575 131.46Z" fill="#263238" stroke="#263238" stroke-linecap="round" stroke-linejoin="round"/>
<path d="M179.25 225.36C179.25 225.36 165.787 227.325 160.035 227.16C154.282 226.995 150.345 226.507 150.345 226.507C150.249 224.666 149.919 222.844 149.362 221.085C148.537 218.947 146.73 215.34 146.362 213.532C145.995 211.725 144.555 213.367 144.555 215.175C144.555 216.982 144.232 224.865 144.232 224.865C144.232 224.865 140.287 220.59 139.792 219.277C139.297 217.965 138.15 219.442 139.305 221.415C140.46 223.387 141.765 227.325 142.912 229.132C144.06 230.94 147.517 231.435 148.995 231.93C150.472 232.425 166.567 235.537 172.477 236.197C178.387 236.857 186.442 236.032 186.937 234.885C187.432 233.737 185.13 225.682 185.13 225.682" fill="white"/>
<mask id="mask3_257_9047" style="mask-type:luminance" maskUnits="userSpaceOnUse" x="138" y="212" width="50" height="25">
<path d="M179.25 225.36C179.25 225.36 165.787 227.325 160.035 227.16C154.282 226.995 150.345 226.507 150.345 226.507C150.249 224.666 149.919 222.844 149.362 221.085C148.537 218.947 146.73 215.34 146.362 213.532C145.995 211.725 144.555 213.367 144.555 215.175C144.555 216.982 144.232 224.865 144.232 224.865C144.232 224.865 140.287 220.59 139.792 219.277C139.297 217.965 138.15 219.442 139.305 221.415C140.46 223.387 141.765 227.325 142.912 229.132C144.06 230.94 147.517 231.435 148.995 231.93C150.472 232.425 166.567 235.537 172.477 236.197C178.387 236.857 186.442 236.032 186.937 234.885C187.432 233.737 185.13 225.682 185.13 225.682" fill="white"/>
</mask>
<g mask="url(#mask3_257_9047)">
<path opacity="0.18" d="M182.138 225.517C182.183 226.575 182.138 229.695 180.638 230.31C178.8 231.06 160.387 232.515 153.42 232.515C153.064 232.489 152.708 232.545 152.377 232.68C157.77 233.797 168.06 235.68 172.53 236.197C178.447 236.857 186.495 236.032 186.99 234.885C187.485 233.737 185.182 225.682 185.182 225.682L182.138 225.517Z" fill="black"/>
<path opacity="0.18" d="M146.07 225.157C150.112 225.157 150.368 226.507 150.368 226.507C150.271 224.666 149.941 222.844 149.385 221.085C148.56 218.947 146.752 215.34 146.385 213.532C146.017 211.725 144.578 213.367 144.578 215.175C144.578 216.982 144.255 224.865 144.255 224.865C144.255 224.865 140.31 220.59 139.815 219.277C139.47 218.347 138.795 218.82 138.84 219.877C141.787 223.14 142.5 225.157 146.07 225.157Z" fill="black"/>
</g>
<path d="M179.25 225.36C179.25 225.36 165.787 227.325 160.035 227.16C154.282 226.995 150.345 226.507 150.345 226.507C150.249 224.666 149.919 222.844 149.362 221.085C148.537 218.947 146.73 215.34 146.362 213.532C145.995 211.725 144.555 213.367 144.555 215.175C144.555 216.982 144.232 224.865 144.232 224.865C144.232 224.865 140.287 220.59 139.792 219.277C139.297 217.965 138.15 219.442 139.305 221.415C140.46 223.387 141.765 227.325 142.912 229.132C144.06 230.94 147.517 231.435 148.995 231.93C150.472 232.425 166.567 235.537 172.477 236.197C178.387 236.857 186.442 236.032 186.937 234.885C187.432 233.737 185.13 225.682 185.13 225.682" stroke="#263238" stroke-linecap="round" stroke-linejoin="round"/>
</svg>
